<svg width="16" height="22" viewBox="0 0 16 22" fill="none" xmlns="http://www.w3.org/2000/svg">
<mask id="path-1-inside-1_395_208" fill="white">
<path fill-rule="evenodd" clip-rule="evenodd" d="M7.00335 2.0824C7.3275 2.02821 7.66046 2 8 2C8.33954 2 8.6725 2.02821 8.99665 2.0824C8.99887 2.05523 9 2.02774 9 2C9 1.44772 8.55228 1 8 1C7.44772 1 7 1.44772 7 2C7 2.02774 7.00113 2.05523 7.00335 2.0824ZM6.0274 2.3318C6.00938 2.22388 6 2.11304 6 2C6 0.89543 6.89543 0 8 0C9.10457 0 10 0.89543 10 2C10 2.11304 9.99062 2.22388 9.9726 2.3318C12.3173 3.14769 14 5.37734 14 8V15V15.05C14.9796 15.2488 15.7512 16.0204 15.95 17C15.9828 17.1616 16 17.3288 16 17.5V18H15H1H0V17.5C0 17.3288 0.0172151 17.1616 0.0500091 17C0.24885 16.0204 1.02043 15.2488 2 15.05V15V8C2 5.37734 3.68271 3.14769 6.0274 2.3318ZM6.43777 3.2489C4.44142 3.90494 3 5.78414 3 8V15H13V8C13 5.78414 11.5586 3.90494 9.56223 3.2489C9.19572 3.70676 8.6321 4 8 4C7.3679 4 6.80428 3.70676 6.43777 3.2489ZM13 16H13.5C14.1531 16 14.7087 16.4174 14.9146 17H1.08535C1.29127 16.4174 1.84689 16 2.5 16H3H13ZM10 19C10 19 8.88071 21.5 7.5 21.5C6.11929 21.5 5 19 5 19H10Z"/>
</mask>
<path d="M7.00335 2.0824L6.00666 2.16369L6.09511 3.24812L7.16824 3.06871L7.00335 2.0824ZM8.99665 2.0824L8.83176 3.06871L9.90489 3.24812L9.99334 2.16369L8.99665 2.0824ZM6.0274 2.3318L6.35604 3.27626L7.15265 2.99906L7.01374 2.16711L6.0274 2.3318ZM9.9726 2.3318L8.98626 2.16711L8.84735 2.99906L9.64396 3.27626L9.9726 2.3318ZM14 15.05H13V15.8674L13.8011 16.03L14 15.05ZM15.95 17L14.97 17.1989L14.97 17.1989L15.95 17ZM16 18V19H17V18H16ZM0 18H-1V19H0V18ZM0.0500091 17L1.03002 17.1989L1.03002 17.1989L0.0500091 17ZM2 15.05L2.19893 16.03L3 15.8674V15.05H2ZM6.43777 3.2489L7.21846 2.62398L6.78482 2.08224L6.12558 2.29888L6.43777 3.2489ZM3 15H2V16H3V15ZM13 15V16H14V15H13ZM9.56223 3.2489L9.87442 2.29888L9.21518 2.08224L8.78154 2.62398L9.56223 3.2489ZM14.9146 17V18H16.3287L15.8575 16.6668L14.9146 17ZM1.08535 17L0.142513 16.6668L-0.328722 18H1.08535V17ZM10 19L10.9127 19.4086L11.5434 18H10V19ZM5 19V18H3.45663L4.0873 19.4086L5 19ZM8 1C7.60498 1 7.21687 1.03282 6.83845 1.09609L7.16824 3.06871C7.43812 3.02359 7.71593 3 8 3V1ZM9.16155 1.09609C8.78313 1.03282 8.39502 1 8 1V3C8.28407 3 8.56188 3.02359 8.83176 3.06871L9.16155 1.09609ZM9.99334 2.16369C9.99776 2.10951 10 2.05491 10 2H8C8 2.00058 7.99998 2.00094 7.99996 2.00111L9.99334 2.16369ZM10 2C10 0.89543 9.10457 0 8 0V2H10ZM8 0C6.89543 0 6 0.89543 6 2H8V0ZM6 2C6 2.0549 6.00224 2.1095 6.00666 2.16369L8.00004 2.00111C8.00002 2.00095 8 2.00059 8 2H6ZM7.01374 2.16711C7.00477 2.1134 7 2.05764 7 2H5C5 2.16844 5.01398 2.33437 5.04105 2.4965L7.01374 2.16711ZM7 2C7 1.44772 7.44772 1 8 1V-1C6.34315 -1 5 0.343146 5 2H7ZM8 1C8.55228 1 9 1.44772 9 2H11C11 0.343146 9.65685 -1 8 -1V1ZM9 2C9 2.05764 8.99523 2.1134 8.98626 2.16711L10.9589 2.4965C10.986 2.33437 11 2.16844 11 2H9ZM15 8C15 4.93867 13.0354 2.33877 10.3012 1.38735L9.64396 3.27626C11.5992 3.95661 13 5.816 13 8H15ZM15 15V8H13V15H15ZM15 15.05V15H13V15.05H15ZM16.93 16.8011C16.6513 15.4279 15.5721 14.3487 14.1989 14.07L13.8011 16.03C14.387 16.149 14.851 16.613 14.97 17.1989L16.93 16.8011ZM17 17.5C17 17.2616 16.976 17.0277 16.93 16.8011L14.97 17.1989C14.9896 17.2954 15 17.396 15 17.5H17ZM17 18V17.5H15V18H17ZM15 19H16V17H15V19ZM1 19H15V17H1V19ZM0 19H1V17H0V19ZM-1 17.5V18H1V17.5H-1ZM-0.930004 16.8011C-0.976014 17.0277 -1 17.2616 -1 17.5H1C1 17.396 1.01044 17.2954 1.03002 17.1989L-0.930004 16.8011ZM1.80107 14.07C0.427918 14.3487 -0.65127 15.4279 -0.930004 16.8011L1.03002 17.1989C1.14897 16.613 1.61295 16.149 2.19893 16.03L1.80107 14.07ZM1 15V15.05H3V15H1ZM1 8V15H3V8H1ZM5.69875 1.38735C2.96458 2.33877 1 4.93867 1 8H3C3 5.816 4.40085 3.95661 6.35604 3.27626L5.69875 1.38735ZM6.12558 2.29888C3.73104 3.08577 2 5.33943 2 8H4C4 6.22884 5.15181 4.7241 6.74997 4.19892L6.12558 2.29888ZM2 8V15H4V8H2ZM3 16H13V14H3V16ZM14 15V8H12V15H14ZM14 8C14 5.33943 12.269 3.08577 9.87442 2.29888L9.25003 4.19892C10.8482 4.7241 12 6.22884 12 8H14ZM8.78154 2.62398C8.59665 2.85495 8.3156 3 8 3V5C8.94861 5 9.79479 4.55857 10.3429 3.87382L8.78154 2.62398ZM8 3C7.6844 3 7.40335 2.85495 7.21846 2.62398L5.65709 3.87382C6.20521 4.55857 7.05139 5 8 5V3ZM13.5 15H13V17H13.5V15ZM15.8575 16.6668C15.5148 15.6971 14.5901 15 13.5 15V17C13.7161 17 13.9027 17.1377 13.9718 17.3332L15.8575 16.6668ZM1.08535 18H14.9146V16H1.08535V18ZM2.5 15C1.40992 15 0.485233 15.6971 0.142513 16.6668L2.02819 17.3332C2.09731 17.1377 2.28386 17 2.5 17V15ZM3 15H2.5V17H3V15ZM13 15H3V17H13V15ZM7.5 22.5C8.15216 22.5 8.69414 22.2066 9.08991 21.8965C9.49017 21.5828 9.82228 21.1894 10.0778 20.8364C10.3374 20.4778 10.5434 20.1252 10.6835 19.8656C10.7542 19.7346 10.8097 19.6245 10.8482 19.5454C10.8675 19.5058 10.8827 19.4737 10.8935 19.4506C10.8989 19.439 10.9032 19.4296 10.9064 19.4225C10.908 19.419 10.9093 19.4161 10.9104 19.4138C10.9109 19.4126 10.9114 19.4116 10.9118 19.4107C10.9119 19.4103 10.9121 19.4099 10.9123 19.4096C10.9124 19.4094 10.9125 19.4092 10.9125 19.4091C10.9126 19.4088 10.9127 19.4086 10 19C9.0873 18.5914 9.08739 18.5912 9.08747 18.591C9.08749 18.5909 9.08757 18.5908 9.08762 18.5907C9.08771 18.5905 9.08778 18.5903 9.08784 18.5902C9.08795 18.5899 9.088 18.5898 9.08798 18.5899C9.08794 18.5899 9.08765 18.5906 9.08709 18.5918C9.08599 18.5942 9.08385 18.5989 9.08072 18.6056C9.07445 18.619 9.06421 18.6407 9.05021 18.6695C9.02216 18.7271 8.97936 18.8122 8.92354 18.9156C8.81066 19.1248 8.65059 19.3972 8.45772 19.6636C8.26085 19.9356 8.05425 20.1672 7.85631 20.3223C7.65389 20.4809 7.53819 20.5 7.5 20.5V22.5ZM5 19C4.0873 19.4086 4.0874 19.4088 4.0875 19.4091C4.08754 19.4092 4.08764 19.4094 4.08772 19.4096C4.08788 19.4099 4.08805 19.4103 4.08825 19.4107C4.08863 19.4116 4.08909 19.4126 4.08961 19.4138C4.09066 19.4161 4.09199 19.419 4.0936 19.4225C4.09681 19.4296 4.10113 19.439 4.10654 19.4506C4.11734 19.4737 4.13249 19.5058 4.1518 19.5454C4.19034 19.6245 4.24578 19.7346 4.31647 19.8656C4.4566 20.1252 4.66265 20.4778 4.92218 20.8364C5.17772 21.1894 5.50983 21.5828 5.91009 21.8965C6.30586 22.2066 6.84784 22.5 7.5 22.5V20.5C7.4618 20.5 7.34611 20.4809 7.14368 20.3223C6.94575 20.1672 6.73915 19.9356 6.54228 19.6636C6.34941 19.3972 6.18934 19.1248 6.07646 18.9156C6.02064 18.8122 5.97784 18.7271 5.94979 18.6695C5.93579 18.6407 5.92555 18.619 5.91928 18.6056C5.91615 18.5989 5.91401 18.5942 5.91291 18.5918C5.91235 18.5906 5.91206 18.5899 5.91202 18.5899C5.912 18.5898 5.91205 18.5899 5.91216 18.5902C5.91222 18.5903 5.91229 18.5905 5.91238 18.5907C5.91243 18.5908 5.91251 18.5909 5.91253 18.591C5.91261 18.5912 5.9127 18.5914 5 19ZM10 18H5V20H10V18Z" fill="#979797" mask="url(#path-1-inside-1_395_208)"/>
</svg>
