<svg width="25" height="20" viewBox="0 0 25 20" fill="none" xmlns="http://www.w3.org/2000/svg">
<g clip-path="url(#clip0_5044_7285)">
<path d="M23.4142 0H1.61692C0.715174 0 0 0.719875 0 1.62754C0 2.53521 0.715174 3.25509 1.61692 3.25509H23.4142C24.2848 3.25509 25.0311 2.53521 25.0311 1.62754C25.0311 0.719875 24.2848 0 23.4142 0Z" fill="#1B3355"/>
<path d="M23.4142 8.38818H1.61692C0.715174 8.38818 0 9.10806 0 10.0157C0 10.9234 0.715174 11.6433 1.61692 11.6433H23.4142C24.2848 11.6433 25.0311 10.9234 25.0311 10.0157C25.0311 9.10806 24.2848 8.38818 23.4142 8.38818Z" fill="#1B3355"/>
<path d="M23.4142 16.7764H1.61692C0.746269 16.7764 0 17.4962 0 18.4039C0 19.3116 0.715174 20.0315 1.61692 20.0315H23.4142C24.2848 20.0315 25.0311 19.3116 25.0311 18.4039C25.0311 17.4962 24.2848 16.7764 23.4142 16.7764Z" fill="#1B3355"/>
</g>
<defs>
<clipPath id="clip0_5044_7285">
<rect width="25" height="20" fill="white"/>
</clipPath>
</defs>
</svg>
