<svg width="137" height="69" viewBox="0 0 137 69" fill="none" xmlns="http://www.w3.org/2000/svg">
<mask id="mask0_388_31" style="mask-type:alpha" maskUnits="userSpaceOnUse" x="0" y="0" width="34" height="69">
<path fill-rule="evenodd" clip-rule="evenodd" d="M0 0H33.7926V68.8894H0V0Z" fill="white"/>
</mask>
<g mask="url(#mask0_388_31)">
<path fill-rule="evenodd" clip-rule="evenodd" d="M33.7926 0C15.1294 0 0 15.4217 0 34.4447C0 53.4681 15.1294 68.8895 33.7926 68.8895V0Z" fill="#1B3355"/>
</g>
<mask id="mask1_388_31" style="mask-type:alpha" maskUnits="userSpaceOnUse" x="35" y="0" width="34" height="69">
<path fill-rule="evenodd" clip-rule="evenodd" d="M35.0869 0H68.8795V68.8894H35.0869V0Z" fill="white"/>
</mask>
<g mask="url(#mask1_388_31)">
<path fill-rule="evenodd" clip-rule="evenodd" d="M68.8795 0C50.2163 0 35.0869 15.4217 35.0869 34.4447C35.0869 53.4681 50.2163 68.8895 68.8795 68.8895V0Z" fill="#A5A0A3"/>
</g>
<mask id="mask2_388_31" style="mask-type:alpha" maskUnits="userSpaceOnUse" x="68" y="0" width="69" height="69">
<path fill-rule="evenodd" clip-rule="evenodd" d="M68.1895 0.101074H136.876V68.7882H68.1895V0.101074Z" fill="white"/>
</mask>
<g mask="url(#mask2_388_31)">
<path fill-rule="evenodd" clip-rule="evenodd" d="M102.533 0.101074C83.5655 0.101074 68.1895 15.4771 68.1895 34.4447C68.1895 53.4122 83.5655 68.7882 102.533 68.7882C121.5 68.7882 136.876 53.4122 136.876 34.4447C136.876 15.4771 121.5 0.101074 102.533 0.101074" fill="#FDCE1E"/>
</g>
</svg>
