<svg width="341" height="371" viewBox="0 0 341 371" fill="none" xmlns="http://www.w3.org/2000/svg">
<path fill-rule="evenodd" clip-rule="evenodd" d="M272.968 304.882H206V238L272.968 304.882Z" fill="#FDCE1E"/>
<path fill-rule="evenodd" clip-rule="evenodd" d="M206.089 238H273.057V304.882L206.089 238Z" fill="#CC912E"/>
<path fill-rule="evenodd" clip-rule="evenodd" d="M272.916 370.345H341V304.916H272.916V370.345Z" fill="#1B3355"/>
<path fill-rule="evenodd" clip-rule="evenodd" d="M182.618 79.7564C180.282 84.3517 177.791 88.8546 175.301 93.3574C173.979 95.763 169.706 105.632 168.599 106.033C167.4 106.434 160.114 102.147 158.023 101.314C154.303 99.8033 150.768 98.4154 146.894 97.4902C142.56 96.4724 138.163 95.7014 133.675 96.0715C131.707 96.2257 128.448 96.7191 130.385 93.9434C131.83 91.9079 133.214 90.0574 135.15 88.577C136.565 87.4976 138.624 85.5545 140.285 84.8452C142.006 84.105 144.589 84.2592 146.464 84.3209C148.493 84.3826 158.085 87.3742 158.638 84.2284C159.622 85.1228 160.175 84.7835 161.313 85.2153C162.573 85.7087 163.373 86.6648 164.633 87.2508C165.463 87.6209 166.939 89.1013 167.861 89.1321C169.06 89.1321 169.398 88.1452 170.259 87.405C172.196 85.7396 174.778 84.6601 176.9 83.2106C178.714 81.8844 180.466 80.5582 182.618 79.7564ZM161.497 43.3635C161.344 45.4607 161.897 47.4037 161.897 49.5935C161.897 50.5496 161.836 51.4748 162.143 52.4C162.389 53.2019 162.235 54.6823 162.358 55.5459C159.96 54.8057 155.502 53.7262 153.043 54.7131C150.706 55.6692 150.399 60.0179 150.338 62.1459C150.276 63.5955 150.922 65.816 150.43 67.2039C150.215 67.8516 150.215 68.0675 150.215 68.1291C150.153 68.0983 149.969 68.0983 149.323 68.5918C148.677 69.0544 147.878 69.332 147.233 69.8563C146.064 70.8124 145.849 71.8918 145.265 73.2797C144.712 74.6367 143.174 75.8087 141.514 75.7778C142.867 73.3105 144.742 71.0282 143.666 68.1291C142.867 65.9394 144.281 63.3796 145.388 61.3132C145.757 60.6347 149.876 55.3608 148.063 54.9907C146.864 54.744 144.158 60.3263 143.636 61.3132C142.191 60.3263 141.545 59.1235 142.652 57.6431C143.513 56.5019 144.558 55.515 145.388 54.343C146.741 52.4309 148.063 50.1486 149.692 48.4523C152.49 45.399 157.409 43.3635 161.497 43.3635ZM150.184 68.0983C150.215 68.0983 150.184 68.0983 150.184 68.0983V68.0983ZM199.527 40.0943C201.341 41.8214 203.616 43.271 205.368 45.0906C206.905 46.6944 208.965 49.3776 209.672 51.5056C205.952 52.215 199.742 54.4356 198.266 58.3524C192.456 53.0169 190.212 62.7627 189.074 66.8647C185.692 65.3843 186.369 60.4805 186.399 57.6122C186.43 55.33 187.814 52.6468 184.524 52.4617C182.065 52.3384 179.667 53.3253 177.453 54.2814C174.686 55.4533 171.796 57.2113 169.552 59.216L167.216 57.3963C171.028 55.2374 173.026 51.1355 175.27 47.3729C175.977 46.1701 176.93 44.8439 177.453 43.5486C177.822 42.6542 178.068 40.8345 178.468 40.0326C179.083 38.7681 185.139 38.4289 186.738 38.1205C190.98 37.2878 196.053 36.7635 199.527 40.0943Z" fill="#FDCE1E"/>
<path fill-rule="evenodd" clip-rule="evenodd" d="M198.542 67.9581C200.11 67.8656 201.677 68.2357 203.215 68.0815C201.862 66.9095 200.509 65.7067 199.126 64.5347C198.572 65.5525 198.511 66.7553 198.542 67.9581ZM161.435 43.5626C157.376 43.5934 152.458 45.629 149.629 48.5897C148.153 50.1626 146.893 52.2907 145.633 54.0487C144.802 55.2515 143.972 56.3926 142.927 57.4412C141.421 58.9524 141.851 59.3225 143.542 60.4637C144.065 59.4459 146.893 54.1103 148.092 54.3262C149.906 54.6963 146.401 60.3711 146.032 61.0497C144.895 63.1469 143.081 66.046 143.911 68.2665C144.987 71.1656 143.419 72.8311 142.066 75.2984C143.48 75.3292 143.634 74.7741 144.126 73.5713C144.772 71.9984 145.448 70.703 146.77 69.6236C147.815 68.7908 149.506 68.4208 149.967 67.4338C150.582 66.1693 150.183 63.702 150.244 62.3142C150.305 60.1861 150.336 55.1898 152.642 54.2646C155.071 53.2776 159.467 54.2029 161.834 54.9431C161.527 53.0926 160.604 51.8589 160.604 49.7925C160.666 47.6028 161.281 45.6598 161.435 43.5626ZM130.322 78.1666C132.444 77.4881 134.442 76.7788 136.625 76.3161C138.9 75.8227 139.053 75.2984 140.345 73.3245C141.328 71.8441 142.497 70.6722 142.22 68.8525C142.036 67.6806 141.421 67.1254 141.605 65.7992C141.728 64.9974 142.097 64.103 142.374 63.3319C142.712 62.3758 143.419 61.2964 141.79 61.2655C140.898 61.2347 140.867 61.6973 140.252 62.4992C139.146 63.9796 137.854 65.3058 136.655 66.6936C134.596 69.1301 132.413 71.7208 130.107 74.003C127.586 76.5012 125.373 79.4928 123.743 82.6695C123.436 83.2555 121.591 86.7097 122.391 87.3882C123.098 88.005 127.125 86.5555 127.863 86.4013C131.029 85.6611 134.596 85.4144 137.578 84.0573C139.084 83.3788 142.435 82.5769 143.634 81.5283C144.741 80.5414 144.71 78.1975 144.065 76.8096C142.251 77.9199 129.154 82.2068 130.322 78.1666ZM169.735 58.7366C171.856 56.8244 174.347 55.2823 176.96 54.1412C179.296 53.1234 182.186 51.9823 184.799 52.1673C188.027 52.3832 186.675 55.0047 186.675 57.2253C186.675 60.1861 185.384 64.4422 188.888 65.9534C190.026 61.8515 192.454 52.1982 198.265 57.5646C199.741 53.6169 205.028 52.2907 208.748 51.5814C208.072 49.6075 206.012 47.7879 204.598 46.3075C202.815 44.457 201.431 42.2673 199.648 40.4168C196.144 36.8083 189.78 37.9495 185.322 38.8747C183.846 39.1831 179.542 39.5532 178.804 40.6327C178.343 41.3112 178.62 43.0074 178.282 43.8402C177.821 44.9813 177.021 46.0607 176.406 47.1402C174.101 51.0262 171.764 54.9431 167.798 57.1945L169.735 58.7366ZM182.647 79.7395C180.557 80.5414 179.02 81.8984 177.175 83.0087C174.931 84.3657 172.287 85.6611 170.289 87.3574C169.551 87.9742 169.151 89.0536 168.106 89.1153C167.214 89.177 165.862 88.1592 165.093 87.7891C163.771 87.1723 162.511 86.2779 161.189 85.7228C160.113 85.291 159.621 85.3835 158.668 84.52C158.145 87.6658 148.553 84.7358 146.524 84.6742C144.649 84.6433 142.097 84.8592 140.375 85.5994C138.715 86.3088 137.424 87.8817 136.01 88.9611C134.073 90.4415 132.228 91.9219 130.784 93.9574C128.816 96.764 131.767 95.9621 133.735 95.7771C138.223 95.407 142.589 96.4556 146.924 97.5042C150.797 98.4294 154.61 99.5397 158.329 101.051C160.42 101.884 162.603 102.686 164.57 103.765C165.616 104.351 167.276 105.77 168.475 105.338C169.551 104.968 170.658 101.822 171.303 100.588C172.594 98.1519 173.916 95.7771 175.269 93.3714C177.821 88.8378 180.28 84.3349 182.647 79.7395ZM156.946 139.788C158.237 139.048 160.328 139.233 161.742 138.924C163.341 138.585 164.97 137.999 166.507 137.413C168.044 136.796 169.52 136.179 170.934 135.439C171.58 135.1 172.441 134.761 173.055 134.267C173.547 133.866 173.701 133.157 174.162 132.818C175.33 131.892 175.669 132.478 175.822 130.72C175.976 128.808 174.931 127.729 173.578 126.279C172.379 124.984 170.842 123.874 169.336 122.979C168.659 122.578 167.952 122.146 167.276 121.746C166.261 121.16 164.878 120.203 164.355 121.437C165.462 121.715 165.708 123.164 164.724 123.658C164.171 123.935 163.341 123.534 162.695 123.812C161.742 124.275 160.789 125.57 159.959 126.279C157.253 128.561 154.64 129.425 151.105 129.61C143.696 129.98 135.918 129.147 128.631 128.037C126.756 127.76 124.881 128.068 123.005 128.006C121.161 127.945 119.255 127.544 117.441 127.235C113.967 126.649 110.278 126.156 106.865 125.261C102.715 124.182 98.5646 122.825 94.6602 121.036C90.9403 119.309 86.6977 116.472 82.5166 116.256C84.2997 118.014 86.9744 118.692 89.1572 119.864C90.9095 120.82 93.6764 121.406 94.7832 122.979C95.521 123.997 95.8592 125.847 96.4126 127.05C97.0274 128.376 97.5808 129.703 98.1342 131.029C98.6876 132.386 99.2717 133.712 99.7328 135.1C100.01 135.963 100.133 137.752 100.809 138.338C101.885 139.263 105.451 139.695 106.865 140.004C109.54 140.59 112.614 140.497 115.35 140.559C116.488 140.59 117.625 140.744 118.701 140.744C120.208 140.775 120.085 140.497 120.054 139.202C120.054 138.4 120.054 136.981 121.099 137.629C121.806 138.061 121.315 140.034 121.192 140.744C127.217 141.361 133.52 141.638 139.515 141.453C145.417 141.237 151.136 140.466 156.946 139.788ZM184.215 125.878C185.291 118.199 186.582 110.396 188.027 102.84C189.503 95.1911 191.255 87.6041 193.254 79.9863C191.932 79.6779 190.641 79.3694 189.319 79.0302C189.257 80.6339 188.735 82.0218 188.489 83.6256C188.181 85.8461 187.566 87.9742 187.197 90.1639C186.49 94.3584 185.23 98.4294 184.092 102.5C182.955 106.664 182.555 110.951 181.51 115.115C180.649 118.569 180.188 122.332 179.696 125.878C178.528 134.452 176.837 143.057 175.546 151.631C174.347 159.68 174.224 167.884 174.285 176.026C174.316 180.992 175.085 185.926 175.054 190.892C175.054 192.126 175.146 193.359 175.208 194.562C175.238 195.426 174.777 197.831 175.177 198.541C175.423 199.003 176.499 199.435 176.868 200.052C177.452 201.07 177.605 202.272 178.559 203.013C179.327 199.867 178.958 195.703 178.804 192.496C178.651 189.412 178.958 186.204 179.02 183.058C179.143 176.89 179.481 170.814 179.788 164.646C180.126 157.861 181.11 150.952 182.063 144.229C182.924 138.184 183.508 131.954 184.215 125.878ZM155.716 29.684C155.286 29.6531 154.886 29.5914 154.456 29.5606C154.517 30.455 154.333 31.9045 154.948 32.3672C155.409 32.7064 156.393 32.6139 156.946 32.7064C158.821 33.0765 161.035 33.3849 162.91 32.7064C163.648 32.4597 163.156 32.0279 164.171 32.213C165.37 32.4288 164.939 32.6139 165.277 33.3541C165.554 33.9401 165.677 34.927 165.985 35.6364C166.384 36.5616 167.214 38.2579 166.876 39.3373C166.538 40.3859 165.247 40.6943 164.693 41.8972C164.294 42.7916 164.386 44.0561 164.171 45.043C163.894 46.3383 163.525 47.6337 163.371 48.9598C163.187 50.6253 163.248 52.5991 165.308 52.8458C167.214 53.0926 168.598 52.4758 169.889 51.057C172.348 48.3738 175.146 44.6112 176.591 41.2495C176.745 40.8485 177.175 40.2009 177.114 39.7691C176.991 38.9364 176.96 39.7691 176.683 39.214C176.437 38.6588 176.038 38.1653 175.822 37.5485C174.992 35.3588 174.408 33.0457 174.07 30.7017C173.916 29.6531 173.855 28.6045 173.886 27.5251C173.886 27.155 174.101 26.0755 173.978 25.8288C173.855 25.5821 173.148 25.4587 172.932 25.212C172.533 24.7493 171.856 23.4232 171.395 23.0839C170.842 22.6521 169.643 22.9914 169.428 22.1587C169.09 20.8016 177.421 18.5811 173.517 16.7614C170.596 15.4044 166.138 22.2512 165.124 16.8539C164.939 15.9287 165.277 14.6642 164.878 13.8006C164.417 12.8446 163.187 12.5053 162.357 12.0427C161.25 11.4567 160.143 10.8399 159.098 10.223C158.36 9.79127 157.315 8.61929 156.546 8.49593C156.854 10.0688 156.27 11.6418 156.27 13.2455C157.961 12.7829 159.098 12.7829 160.758 13.5848C161.558 13.9857 164.54 16.1754 163.002 17.224C161.773 16.5147 160.481 15.867 159.098 15.4352C158.575 15.281 157.899 15.0343 157.315 15.0343C155.993 15.0035 156.177 15.1577 155.686 16.1446C155.194 17.1007 155.317 19.6297 154.241 20.2465C153.165 20.8942 153.995 19.9998 153.072 20.1848C152.55 20.3082 151.966 20.7091 151.474 20.925C152.15 21.6652 153.472 22.3129 153.933 23.1147C154.579 24.2867 154.364 26.7232 154.456 27.9877C155.286 27.6793 156.177 27.6793 157.038 27.4325C157.838 27.2167 158.944 26.2914 159.037 27.6484C159.129 29.283 156.762 29.684 155.716 29.684ZM166.692 69.1918C166.753 67.8964 166.815 66.6011 166.968 65.3058C167.061 64.4422 167.891 61.9132 167.429 61.173C166.938 60.3403 165.247 60.2786 164.417 60.0936C162.849 59.7235 161.373 59.3842 159.774 59.1375C158.329 58.8908 156.946 58.8599 155.47 58.7982C153.872 58.7366 153.472 58.3048 153.134 60.0627C152.857 61.4506 152.488 62.9001 152.427 64.3188C152.365 65.645 152.796 66.817 151.474 67.7114C154.364 67.7114 158.145 65.1207 160.789 67.4338C164.57 70.7339 157.991 71.6899 156.239 72.4301C157.684 73.1395 159.836 73.6946 160.512 75.2984C161.281 77.0872 160.174 77.8582 158.483 78.0124C158.637 78.7218 159.252 79.1535 159.436 79.9863C159.713 81.2199 158.852 80.819 159.928 81.7442C161.373 82.9779 164.355 83.8106 166.138 84.6125C166.569 84.7975 166.968 84.9826 167.399 85.1368C168.075 85.7228 168.567 85.6302 168.874 84.7975C169.797 84.2115 170.596 82.9162 171.395 82.176C173.209 80.5106 175.177 79.0302 177.329 77.8274C176.437 77.4573 175.392 78.29 174.531 77.8891C173.855 77.5498 174.101 76.9638 173.701 76.532C173.855 75.9461 173.701 75.7302 173.178 75.8844C172.932 75.9152 172.687 75.8535 172.471 75.761C172.041 75.2367 171.856 75.0517 171.826 74.2189C171.795 73.3554 172.287 73.047 172.502 72.3376C173.148 71.9058 173.117 71.474 172.471 71.0731C172.195 70.6413 172.041 70.1479 172.041 69.6236C171.918 67.6806 173.67 66.9095 175.023 65.8918C172.625 65.6142 172.717 62.8076 174.377 61.574C176.099 60.2786 179.758 60.8029 181.817 61.1113C182.248 61.173 183.416 61.7282 183.846 61.3889C184.123 61.173 183.939 59.3225 183.939 58.9833C183.969 58.2431 184.154 57.3487 184.031 56.6085C183.785 55.0664 184.308 55.8375 183.201 55.8066C180.557 55.7141 177.206 58.0272 174.869 59.1067C172.256 60.3403 170.596 60.5254 170.565 63.5478C170.535 66.4161 169.735 69.2535 169.397 72.0909C169.243 73.3245 169.12 79.7087 166.876 77.3648C166.015 76.4395 166.569 75.0517 166.63 73.9105C166.692 72.3376 166.63 70.7647 166.692 69.1918ZM21.4606 165.078C22.7518 165.294 24.8423 164.553 26.2258 164.492C28.6852 164.368 31.2062 164.122 33.6041 163.597C35.4795 163.196 37.6315 162.857 38.646 161.007C39.5376 159.372 39.8758 157.336 40.3677 155.548C40.6136 154.592 41.29 153.235 41.29 152.248C41.29 150.983 41.1055 151.23 39.7835 150.521C38.1234 149.626 36.494 148.423 34.6802 147.93C34.1268 147.837 33.5734 147.714 33.0508 147.621C32.3437 147.221 31.944 147.406 31.8518 148.238C31.1754 148.978 30.745 150.305 30.1916 151.168C28.8697 153.111 27.3018 154.437 25.2727 155.548C21.5528 157.614 18.1403 159.156 14.1744 160.482C11.9916 161.222 9.99334 162.24 7.87205 163.042C6.18117 163.69 3.81395 163.875 2.52273 165.324C1.04705 166.928 3.32205 167.514 4.58253 168.624C5.6278 169.519 5.6278 169.735 7.04199 169.303C8.08726 168.995 9.0403 168.347 10.0241 167.946C13.4981 166.466 17.6791 165.509 21.4606 165.078ZM100.594 190.676C99.3024 190.398 98.0112 190.121 96.72 189.843C97.9805 192.218 100.655 195.703 98.7491 198.448C98.042 199.466 96.843 199.774 95.767 200.299C94.4758 200.915 93.2768 201.748 92.0778 202.488C87.0666 205.603 81.9633 208.749 76.6754 211.401C78.3356 211.926 80.8872 212.296 82.5781 211.833C84.5764 211.278 86.3903 210.044 88.4501 209.489C92.1085 208.502 95.9514 207.67 99.6714 207.176C102.715 206.775 110.309 207.7 109.94 203.105C109.601 198.756 106.988 194.593 106.22 190.306C104.344 190.707 102.53 190.645 100.594 190.676ZM177.544 121.036C179.02 113.788 179.88 106.417 181.633 99.2313C182.494 95.6537 183.109 92.0144 183.969 88.406C184.369 86.7405 184.646 85.0443 185.045 83.3788C185.445 81.6825 186.275 80.1405 186.46 78.3825C185.045 78.7218 184.738 81.9601 184.307 83.1629C183.539 85.3835 182.678 87.5424 181.664 89.6705C180.065 93.063 178.374 96.3322 176.56 99.6322C174.654 103.086 172.656 106.448 170.289 109.594C169.52 110.643 168.444 111.444 167.952 112.586C167.153 114.374 166.815 116.533 166.077 118.384C166.599 118.661 167.983 118.723 168.628 118.846C169.827 119.093 170.688 119.309 171.856 119.864C173.916 120.882 175.638 122.085 176.991 123.935C177.329 123.072 177.39 122.023 177.544 121.036ZM120.362 176.304C120.331 169.334 120.239 162.302 120.362 155.363C120.392 153.45 120.546 151.353 120.823 149.472C121.007 148.269 122.022 145.709 121.345 145.154C120.761 144.661 117.718 145 116.98 144.969C115.535 144.938 114.09 144.877 112.645 144.753C112.645 147.344 113.66 150.274 114.121 152.834C114.551 155.208 114.92 157.614 115.289 160.02C116.058 165.201 116.303 170.475 117.134 175.687C117.902 180.406 118.917 185.094 119.47 189.812C119.777 192.403 120.392 194.84 120.884 197.43C121.13 198.787 122.052 204.339 123.19 204.894C123.436 202.889 122.452 200.484 122.268 198.479C122.083 196.413 121.929 194.315 121.591 192.218C121.192 189.751 121.007 187.253 120.853 184.754C120.761 183.243 120.73 181.701 120.608 180.19C120.454 179.049 120.054 177.383 120.362 176.304ZM156.577 83.0087C156.639 82.2377 154.671 82.2685 154.302 81.405C153.564 79.647 155.255 79.9554 156.3 79.7704C155.931 78.7835 149.014 79.1536 150.613 76.4704C151.72 74.6199 155.993 77.4573 157.1 75.6993C157.838 74.5582 155.809 74.3731 155.009 74.2806C153.81 74.0956 150.951 74.6815 151.043 73.0778C151.166 71.1039 156.7 69.7161 158.268 69.1609C158.084 67.8039 151.412 69.7469 150.459 70.2712C148.276 71.5049 146.586 73.7563 146.278 76.2236C145.909 79.1227 147.354 81.3741 150.244 82.0835C151.443 82.3919 152.335 82.4227 153.441 82.8545C154.179 83.1321 156.546 83.8723 157.038 83.1321C156.885 83.1321 156.731 83.0704 156.577 83.0087ZM195.775 65.059C195.898 63.8254 196.912 61.5123 195.713 60.6796C194.053 59.5384 193.346 61.4198 192.977 62.53C192.516 63.8871 190.579 67.2488 192.27 68.1123C192.67 68.2974 194.545 68.0815 194.883 67.9581C195.805 68.2049 196.113 67.8656 195.775 66.9095V65.059ZM155.071 164.646C154.978 161.284 156.485 157.213 157.315 153.913C158.268 150.181 158.791 146.357 159.805 142.656C158.668 142.779 157.53 142.903 156.393 143.149C154.855 143.458 154.825 143.427 154.948 144.938C155.101 147.22 154.886 149.441 154.794 151.692C154.548 156.226 155.132 160.852 154.763 165.355C155.071 165.448 155.194 165.201 155.071 164.646ZM197.589 76.3161C201.278 76.8713 204.813 78.0433 208.164 79.647C210.009 80.5106 212.038 81.4358 214.128 81.8059C216.434 82.2068 218.863 82.0218 221.199 82.1452C222.029 82.2068 224.212 82.6078 225.012 82.1143C225.811 81.6209 225.749 80.819 225.78 79.8321C225.872 77.3339 224.735 74.8666 223.72 72.6152C222.86 70.6722 222.183 69.1918 220.83 67.5572C219.078 65.4291 217.572 63.116 215.942 60.8954C214.713 59.23 213.483 57.5646 212.222 55.8683C211.331 54.6655 211.362 54.2646 210.009 54.3879C208.687 54.5113 207.334 55.3132 206.074 55.7141C204.198 56.3309 201.954 56.6702 200.263 57.6571C199.156 58.3048 199.126 58.4281 199.126 59.5384C199.126 60.587 199.464 61.8515 200.11 62.6843C201.401 64.3805 203.553 65.2749 205.397 66.1076C206.473 66.6011 207.396 67.2796 208.318 67.9581C209.332 68.6983 211.392 69.0993 212.192 69.932C214.467 72.3376 210.316 71.875 209.179 71.7825C206.689 71.6283 204.198 71.6591 201.677 71.6591C198.941 71.6591 196.205 71.5357 193.5 71.6283C191.901 71.6899 190.087 70.8881 189.073 69.531C188.581 68.8834 188.396 68.2665 187.72 67.588C186.859 66.6936 186.121 65.7684 185.076 65.0899C183.385 63.9796 180.311 63.3319 178.282 63.7637C179.02 63.8562 182.401 65.0282 180.895 66.4777C180.711 66.6628 178.528 66.7862 178.067 67.002C177.206 67.403 176.13 67.9581 175.638 68.7908C177.114 68.5441 182.524 68.2665 179.758 71.0731C179.081 71.7516 177.114 72.461 178.774 73.2012C179.143 73.3554 179.911 73.1395 180.403 73.2937C181.141 73.5096 181.725 74.1264 182.401 74.4657C184.338 75.3909 187.013 75.9461 189.042 75.761C191.87 75.4217 194.791 75.946 197.589 76.3161ZM123.313 161.253C123.405 165.294 123.251 169.365 123.344 173.436C123.436 177.784 123.989 182.04 124.266 186.327C124.512 190.183 125.035 193.976 125.434 197.8C125.68 200.021 125.957 202.118 126.326 204.308C126.664 206.374 126.725 208.163 124.297 208.718C119.624 209.767 118.886 203.013 117.994 200.175C116.642 195.919 115.781 191.478 115.104 187.068C113.875 178.864 112.215 170.783 111.569 162.549C111.169 157.46 110.585 152.433 110.278 147.344C110.216 146.357 110.462 144.815 109.601 144.383C109.079 144.106 107.634 144.106 106.958 143.92C105.113 143.396 103.422 142.594 101.608 141.762C102.899 148.454 103.299 155.116 104.252 161.87C104.775 165.448 105.728 169.18 106.589 172.695C107.449 176.366 107.665 180.282 108.648 183.86C109.079 185.433 109.478 186.081 108.833 187.684C108.034 189.658 108.556 190.152 109.571 192.095C111.385 195.672 112.799 199.928 112.461 203.969C112.215 207.269 109.724 208.996 106.65 209.89C102.807 211 98.7491 210.877 94.8754 212.142C91.4937 213.252 88.0504 214.054 84.7916 215.503C83.4697 216.089 82.2092 216.799 80.7335 216.891C78.7045 217.045 77.3518 215.873 75.4457 215.627C74.2467 215.472 72.5251 216.058 71.818 214.794C71.2646 213.807 71.8795 211.648 72.5866 210.846C74.4927 208.595 78.3356 206.652 80.918 205.326C83.9001 203.814 86.7899 201.902 89.5261 199.928C91.1862 198.726 92.9079 197.584 94.568 196.382C95.6747 195.58 96.1051 195.58 95.9822 194.315C95.8899 193.298 95.4288 192.341 95.3673 191.324C95.3058 190.522 95.5825 189.473 95.2136 188.949C94.9369 188.579 93.9224 188.301 93.5227 188.024C92.047 186.975 91.7089 185.68 91.0325 184.076C89.5261 180.468 87.7737 176.952 86.2981 173.312C83.1622 165.479 81.2254 157.244 78.6122 149.256C75.9376 141.083 73.5704 132.54 72.0947 124.059C70.1271 124.645 68.2825 127.328 66.7146 128.623C64.5933 130.412 62.4413 132.108 60.3508 133.928C56.9383 136.919 53.5258 139.819 50.6974 143.396C49.3447 145.123 48.2379 146.974 47.0082 148.793C46.3011 149.842 45.6555 151.014 44.8869 152.032C44.7639 152.186 44.7639 152.525 44.641 152.649C44.3643 152.957 43.7802 152.556 43.5957 152.741C42.4275 153.944 42.4582 157.398 42.0893 159.002C41.5974 161.192 41.044 163.751 39.3224 165.263C36.6785 167.607 31.7903 167.977 28.4393 168.1C24.1352 168.254 19.9541 169.457 15.896 170.752C13.99 171.369 12.1454 172.048 10.2393 172.634C9.13253 172.973 7.87205 173.652 6.70381 173.497C5.28962 173.343 4.18287 172.14 3.13759 171.246C1.47746 169.827 -0.0597022 168.439 0.00178429 166.095C0.0632708 163.628 1.38523 161.778 3.50651 160.544C7.56462 158.169 12.1146 156.658 16.4802 155.023C18.171 154.407 19.5852 153.697 21.1839 152.864C23.4589 151.662 26.0413 150.706 28.0704 149.133C28.6545 148.67 30.8373 147.251 31.0217 146.511C31.0525 146.419 30.4991 145.308 30.4991 145.123C30.4991 144.661 30.7758 144.167 30.9295 143.766C31.9748 141.299 33.7271 138.924 35.0798 136.611C37.5393 132.355 39.9987 128.068 42.8579 124.059C48.5454 116.071 54.9092 108.237 61.7957 101.267C65.1467 97.8743 68.0673 94.0191 71.4491 90.6574C72.8018 89.3312 74.216 88.2518 75.8761 87.3882C77.7207 86.4321 79.8112 86.2471 81.9325 85.9387C87.0666 85.2293 91.3707 86.7405 96.1974 88.0976C100.778 89.3621 105.328 90.4107 109.94 91.7368C114.981 93.1864 119.962 94.5434 125.004 96.1163C127.678 96.949 130.445 97.4733 133.151 98.2752C134.442 98.6762 139.361 101.082 140.437 100.28C137.024 98.6762 133.52 97.1958 129.861 96.2397C128.785 95.9621 128.109 96.2705 128.14 95.0369C128.17 94.3584 128.908 93.464 129.185 92.878C129.83 91.5518 130.568 90.2564 131.214 88.8994C128.908 89.5471 122.667 91.8294 120.915 89.4854C119.101 87.0181 120.608 82.176 121.745 79.7395C124.727 73.4171 129.8 68.1432 134.749 63.3936C135.825 62.3758 138.131 61.0188 138.685 59.7235C138.869 59.3225 138.469 58.7366 138.869 58.2122C139.115 57.9038 140.037 57.6879 140.406 57.3487C141.759 56.1459 142.866 53.586 143.788 52.0131C144.772 50.3477 145.663 48.5589 146.893 47.0785C148.922 44.642 151.013 42.0514 154.302 41.4962C155.901 41.2186 157.622 41.3729 159.16 40.8177C161.035 40.1392 162.787 39.0906 164.663 38.3812C164.201 37.4252 163.802 35.8831 162.91 35.7906C162.049 35.698 160.758 36.4382 159.774 36.4382C158.329 36.4382 157.069 36.1915 155.655 35.9139C154.087 35.6055 153.595 35.6672 153.011 33.9709C152.427 32.1821 152.58 30.1466 152.58 28.2961C152.58 27.4017 152.765 26.2914 152.673 25.397C152.55 24.0708 152.304 24.0091 151.259 23.1764C149.967 22.1278 148.369 20.7091 149.937 18.8895C150.797 17.9026 152.58 18.6736 153.318 17.5941C154.087 16.5147 154.056 13.7698 154.302 12.5053C151.904 13.6773 152.796 9.26696 152.796 8.21836C152.796 6.67629 151.75 3.90056 153.257 2.60522C153.933 2.01924 154.456 2.5127 155.255 2.17344C156.147 1.77251 156.731 0.75474 157.684 0.353802C159.59 -0.448074 161.527 0.508009 163.494 0.353802C165.739 0.168754 167.952 -0.170502 170.196 0.199595C171.272 0.384643 171.703 0.785581 172.625 1.2482C173.486 1.67998 174.377 1.80335 175.33 2.08092C176.161 2.32765 176.898 2.45102 177.482 3.19121C177.944 3.7772 177.759 4.76412 178.19 5.25758C178.651 5.75105 179.512 5.68936 180.065 6.27535C180.588 6.83049 180.895 7.75574 181.141 8.46509C181.51 9.42117 181.541 9.76043 182.186 10.5315C182.74 11.1791 183.539 11.7343 184 12.4745C185.076 14.2324 185.107 16.8231 184.769 18.797C184.646 19.4755 183.662 21.2334 183.816 21.8194C183.969 22.3746 184.892 22.2203 185.291 22.5596C185.66 22.868 185.968 24.1942 186.244 24.2867C186.859 24.4718 187.628 23.2381 188.089 23.0531C188.888 22.7447 189.226 22.4054 189.688 23.6082C190.026 24.5026 189.565 25.7054 189.319 26.5381C189.011 27.6176 188.673 28.9129 187.843 29.7148C186.89 30.6709 186.121 30.1466 185.045 30.6709C183.447 31.4419 183.908 33.8475 181.971 34.5569C180.096 35.2046 178.036 33.1382 176.622 32.1821C176.929 34.4952 178.005 36.7158 177.482 39.0906C181.787 37.3943 186.029 35.0195 190.702 34.4644C193.1 34.1868 195.498 33.8784 197.742 34.8653C200.386 36.0373 201.985 38.5971 203.768 40.7252C207.119 44.7346 210.562 48.6206 213.79 52.7842C216.742 56.5777 219.232 60.988 222.491 64.5347C225.78 68.1432 228.27 74.003 227.901 78.9685C227.871 79.4311 227.532 80.4489 227.563 80.9424C227.594 81.3124 227.932 81.7751 227.932 82.0835C227.901 83.1013 227.594 83.6872 226.61 84.2424C224.95 85.2293 222.46 85.6919 220.585 85.9387C218.094 86.2471 215.02 86.3088 212.53 85.9387C209.947 85.5994 207.672 84.1499 205.305 83.2555C203.215 82.4844 201.124 82.0218 198.941 81.5283C197.742 81.2508 196.39 80.5106 195.652 81.2199C194.975 81.8984 194.822 85.291 194.668 86.2162C192.946 96.0546 190.887 105.554 189.073 115.361C187.013 126.464 185.599 137.536 184.154 148.732C182.863 158.909 182.432 169.18 182.125 179.357C181.971 184.199 181.971 189.011 182.002 193.853C182.032 196.567 183.385 205.634 179.358 205.973C176.991 206.189 175.115 202.797 174.47 200.946C173.517 198.17 173.025 195.179 172.871 192.249C172.564 186.327 172.164 180.406 171.918 174.515C171.672 168.1 171.979 161.593 172.502 155.208C173.025 148.793 174.377 142.44 174.777 135.994C173.547 137.752 173.148 138.091 171.119 138.832C168.997 139.634 166.938 140.59 164.786 141.33C164.048 141.577 162.91 141.731 162.295 142.163C161.189 142.934 161.926 142.07 161.558 143.55C161.189 145.154 161.096 147.066 161.004 148.701C160.543 156.38 158.422 163.998 157.438 171.647C157.192 173.497 157.53 181.331 154.364 178.864C151.935 176.952 151.966 170.999 151.627 168.193C151.166 164.461 151.412 160.637 151.504 156.874C151.597 152.587 151.658 148.115 152.673 143.951C150.859 143.643 148.338 144.476 146.493 144.63C144.895 144.753 143.327 144.846 141.759 144.907C138.008 145.123 134.135 145.277 130.322 145.216C129.615 145.216 125.096 144.568 124.512 145.092C124.327 145.247 124.266 147.56 124.235 147.837C124.112 148.886 123.928 149.935 123.774 151.014C123.559 154.283 123.19 157.892 123.313 161.253Z" fill="black"/>
<path fill-rule="evenodd" clip-rule="evenodd" d="M190.794 193.143C193.653 194.253 196.697 194.685 199.587 195.703C202.169 196.628 204.567 197.862 207.119 198.787C207.273 197.615 207.334 195.61 206.904 194.469C206.289 192.896 204.66 192.834 203.061 192.279C199.157 190.922 195.068 190.614 191.194 189.01C191.87 190.305 191.563 192.002 190.794 193.143ZM240.291 189.01C234.112 189.195 228.178 190.645 222.091 191.539C219.109 191.971 216.158 192.372 213.175 192.773C212.038 192.927 209.947 192.742 209.117 193.729C208.441 194.561 209.179 197.368 208.871 198.571C210.132 198.663 212.345 197.491 213.698 197.306C215.819 196.998 217.91 196.597 220.031 196.443C223.413 196.227 226.733 196.042 230.115 195.672C233.558 195.302 236.879 194.562 240.352 194.315C242.043 194.191 242.72 194.5 242.812 192.711C242.843 192.002 242.935 190.861 242.75 190.151C243.058 189.318 242.781 188.887 241.92 188.918C241.367 188.856 240.814 188.887 240.291 189.01ZM228.301 183.335C229.961 183.181 231.652 182.965 233.343 182.842C233.681 182.811 235.403 182.934 235.68 182.595C236.079 182.132 235.649 180.498 235.557 180.004C235.311 178.277 235.034 177.26 233.159 177.26C231.56 177.26 229.931 177.599 228.363 177.753C221.199 178.462 214.067 178.771 206.965 180.097C207.396 181.947 207.888 183.86 207.365 185.741C210.777 185.926 214.497 185.247 217.818 184.6C221.23 183.89 224.827 183.551 228.301 183.335ZM216.957 165.972C214.405 165.972 211.7 167.113 209.148 166.866C209.117 167.329 209.917 166.958 210.132 167.39C210.624 167.39 210.777 167.544 210.624 167.853C210.624 168.069 210.532 168.192 210.286 168.223C210.163 168.223 210.07 168.254 209.947 168.254C209.456 168.285 209.363 168.593 209.701 169.241C209.548 170.043 209.763 171.06 209.794 171.862C214.344 171.245 218.74 170.598 223.321 170.32C225.473 170.197 227.656 170.197 229.808 170.012C232.175 169.827 234.788 170.228 237.094 169.796C238.323 169.549 238.2 169.58 238.108 167.945C238.047 166.958 238.077 165.787 237.278 165.077C235.956 163.874 232.913 164.584 231.314 164.615C226.58 164.738 221.691 165.201 216.957 165.972ZM219.57 189.072C226.426 188.455 233.251 187.067 240.168 187.067C239.676 186.574 238.631 186.45 238.016 186.173C237.309 185.864 236.663 185.217 235.987 184.97C234.634 184.446 233.251 185.186 231.837 185.494C228.486 186.265 225.012 186.296 221.661 187.067C218.187 187.838 214.651 188.578 211.085 188.979C209.394 189.164 207.58 189.565 205.92 189.103C205.797 189.01 205.643 188.918 205.52 188.825C205.367 188.208 204.967 188.023 204.291 188.332C203.461 188.177 202.385 188.393 201.524 188.393C201.493 188.732 204.629 189.812 205.213 190.059C206.658 190.706 207.642 191.169 209.179 190.891C212.653 190.275 216.065 189.534 219.57 189.072ZM195.406 168.932C195.683 169.981 196.789 169.518 197.773 169.611C199.064 169.765 200.356 170.228 201.616 170.567C203.891 171.184 206.197 171.801 208.472 172.448C208.379 171.523 208.595 169.426 208.103 168.593C207.58 167.73 205.182 167.359 204.045 167.082C201.216 166.434 198.173 166.804 195.283 166.928C195.344 167.606 195.406 168.285 195.406 168.932ZM222.706 175.502C225.411 175.286 228.117 175.101 230.791 175.008C233.896 174.885 231.621 174.391 231.56 172.51C227.502 173.158 223.382 173.281 219.355 173.836C216.004 174.299 212.007 175.502 208.564 174.854C206.935 174.545 205.305 174.422 203.584 174.268C201.954 174.114 200.448 173.343 198.818 173.158C197.035 172.942 195.191 173.959 193.408 174.237C192.639 174.36 192.485 174.854 192.116 173.959C191.747 173.003 192.793 172.232 193.223 171.677C193.715 171.03 193.5 172.078 193.776 171.06C193.838 170.783 193.653 170.043 193.623 169.734C193.531 168.932 193.285 168.1 193.254 167.298C193.223 166.588 193.223 165.478 193.992 165.046C194.484 164.8 194.822 165.17 195.221 165.077C198.48 164.522 202.292 164.46 205.613 165.015C209.179 165.601 212.284 164.029 215.789 163.412C219.939 162.672 224.12 162.548 228.27 162.24C231.837 161.962 238.354 160.574 239.707 165.139C240.107 166.434 240.66 170.012 239.615 171.091C238.262 172.541 235.095 172.078 233.343 172.448C233.62 173.188 234.388 173.713 234.112 174.607C236.571 174.731 237.001 177.044 237.401 179.233C237.801 181.485 237.032 182.379 239.154 183.551C242.136 185.186 245.302 186.851 245.271 190.737C245.241 192.68 245.025 195.641 243.027 196.659C241.06 197.646 237.862 197.491 235.71 197.831C231.529 198.54 227.317 199.342 223.106 199.774C218.617 200.205 214.067 200.576 209.578 200.791C207.119 200.915 205.028 201.285 202.661 200.452C200.325 199.65 198.081 199.034 195.683 198.448C193.315 197.862 186.06 197.06 188.181 192.989C188.519 192.341 189.688 191.817 189.872 191.2C190.179 190.213 189.165 189.442 189.196 188.547C189.288 186.913 191.102 186.697 192.393 186.697C190.21 185.34 193.131 183.705 193.1 182.533C193.069 180.498 190.518 179.172 190.395 177.445C190.057 173.281 203.245 177.63 205.274 178.524C203.707 180.837 196.451 178.832 194.299 178.493C194.607 179.264 194.883 179.974 194.975 180.775C195.037 181.423 194.791 182.163 195.037 182.811C195.406 183.829 195.375 183.644 196.636 183.921C197.558 184.137 198.48 184.384 199.433 184.6C200.878 184.939 203.122 185.833 204.537 185.803C205.766 185.772 205.52 186.142 205.766 184.754C205.889 184.014 205.674 183.212 205.551 182.503C205.305 180.96 204.906 179.542 206.227 178.431C207.488 177.383 210.163 176.889 211.731 176.519C215.205 175.656 219.17 175.471 222.706 175.502Z" fill="black"/>
<path fill-rule="evenodd" clip-rule="evenodd" d="M239.154 149.441C235.403 148.824 231.591 148.67 227.81 148.855C228.025 149.811 228.209 150.736 228.424 151.692C231.96 150.736 235.588 150.212 239.154 149.441ZM208.657 156.719C207.15 156.596 208.195 157.275 208.564 158.261C209.025 159.464 208.933 161.006 209.025 162.271C213.422 160.575 218.556 159.588 223.229 159.032C225.442 158.755 227.687 158.693 229.931 158.57C230.576 158.539 232.974 158.817 233.466 158.354C233.835 158.015 233.559 156.195 233.22 155.794C231.345 153.604 224.12 155.486 221.507 155.702C217.203 156.072 212.991 156.843 208.657 156.719ZM214.897 150.86C218.802 151.23 222.552 151.199 226.457 151.785C226.149 149.287 226.518 148.67 223.69 148.546C221.2 148.423 218.679 148.331 216.189 148.331C210.593 148.331 204.998 148.238 199.372 148.238V150.767C204.598 150.212 209.702 151.168 214.897 150.86ZM196.175 160.143C198.634 160.143 200.971 161.068 203.43 161.315C204.906 161.469 204.445 161.654 205.459 162.394C207.058 163.535 207.519 162.918 207.304 161.376C206.627 156.072 199.925 157.244 196.083 156.966C196.328 158.231 195.744 159.31 194.884 160.174H196.175V160.143ZM222.737 153.327C219.201 153.389 215.666 153.574 212.161 153.512C210.593 153.481 208.564 153.173 207.027 153.45C205.89 153.635 204.967 154.221 203.707 154.437C205.521 155.424 206.443 154.746 208.349 154.53C210.255 154.314 212.192 154.314 214.129 154.19C217.265 154.005 220.646 153.234 223.751 153.45C223.782 153.018 223.444 152.988 222.737 153.327ZM194.699 164.831C193.07 164.831 195.314 162.98 195.591 162.795C193.808 162.795 193.346 161.716 193.869 159.989C194.361 158.354 194.73 158.847 193.5 157.49C192.578 156.473 192.424 155.702 193.531 154.56C194.638 153.389 196.913 153.728 197.896 152.772C199.587 151.137 197.405 147.868 199.741 146.603C201.309 145.74 203.861 145.863 205.582 145.678C207.273 145.493 208.995 145.462 210.686 145.462C214.375 145.401 218.187 146.017 221.876 146.388C223.229 146.511 224.705 147.066 226.026 147.066C227.379 147.066 228.793 146.758 230.177 146.788C231.775 146.819 233.343 146.696 235.004 146.974C236.264 147.189 239.246 147.282 240.23 148.238C243.489 151.415 235.772 152.864 234.45 153.203C235.803 154.684 235.741 156.658 235.526 158.508C236.172 158.508 237.279 158.231 237.617 158.94C238.016 159.834 236.51 160.081 236.141 160.174C234.05 160.79 231.622 160.605 229.5 160.821C225.227 161.253 220.985 161.5 216.742 162.332C214.682 162.733 212.622 163.227 210.563 163.597C210.194 163.659 209.856 163.72 209.487 163.751C208.933 163.689 208.749 164.06 208.964 164.8C208.38 165.077 206.259 164.368 205.582 164.275C201.832 163.659 198.45 163.905 194.699 164.831Z" fill="black"/>
<path fill-rule="evenodd" clip-rule="evenodd" d="M271.004 201.655C268.575 203.568 266.3 205.387 263.656 207.053C265.531 206.991 271.742 203.999 271.004 201.655ZM270.051 198.51C268.729 197.368 267.407 197.492 265.747 197.122C264.24 196.813 262.765 196.258 261.258 195.888C260.059 195.61 258.891 195.209 257.723 194.932C256.062 194.562 255.878 194.963 254.341 195.857C248.899 198.972 242.781 201.131 237.063 203.66C238.754 205.14 242.535 205.202 244.657 205.696C246.194 206.035 247.67 206.528 249.145 207.053C250.529 207.577 252.711 208.749 254.187 208.78C255.417 208.811 256.401 207.608 257.446 206.96C258.829 206.097 260.213 205.264 261.596 204.431C264.517 202.642 267.253 200.483 270.051 198.51ZM245.425 211.124C244.81 210.507 242.904 210.538 242.105 210.353C240.537 209.983 239.031 209.612 237.432 209.335C234.88 208.903 230.853 208.687 230.576 205.356C230.33 202.581 233.681 201.933 235.618 201.008C238.539 199.589 241.521 198.294 244.534 197.06C247.362 195.888 250.191 194.901 253.08 193.914C253.634 193.729 254.095 193.76 254.556 193.297C254.925 192.958 254.802 192.249 255.202 191.879C256.093 191.046 257.292 191.478 258.368 191.694C260.828 192.187 263.379 192.835 265.747 193.76C268.175 194.716 270.389 194.901 270.973 197.677C272.233 197.091 273.156 196.998 273.002 198.725C272.971 199.219 272.602 199.774 272.51 200.298C272.387 201.069 272.602 201.871 272.479 202.642C272.018 205.449 268.237 207.546 265.9 208.656C263.01 210.013 259.291 212.018 256.062 212.296C252.588 212.604 248.838 211.247 245.425 211.124Z" fill="black"/>
<path fill-rule="evenodd" clip-rule="evenodd" d="M201.677 164.46C200.663 164.46 199.618 164.46 198.603 164.491C199.618 164.275 200.663 164.275 201.677 164.46Z" fill="black"/>
<path fill-rule="evenodd" clip-rule="evenodd" d="M141.728 55.6826C141.421 56.2069 141.113 56.7004 140.806 57.2247C140.929 56.577 141.144 55.991 141.728 55.6826Z" fill="black"/>
<path fill-rule="evenodd" clip-rule="evenodd" d="M201.678 179.202C202.293 179.202 202.907 179.202 203.522 179.233C202.907 179.202 202.293 179.202 201.678 179.202Z" fill="black"/>
<path fill-rule="evenodd" clip-rule="evenodd" d="M215.82 145.647C215.112 145.616 214.375 145.554 213.667 145.523C214.375 145.585 215.112 145.616 215.82 145.647Z" fill="black"/>
<path fill-rule="evenodd" clip-rule="evenodd" d="M203.522 164.46C202.907 164.46 202.293 164.46 201.678 164.43C202.293 164.275 202.907 164.306 203.522 164.46Z" fill="black"/>
<path fill-rule="evenodd" clip-rule="evenodd" d="M227.994 76.9628C227.963 76.3459 227.963 75.7291 227.932 75.1123C227.963 75.7291 227.963 76.3459 227.994 76.9628Z" fill="black"/>
<path fill-rule="evenodd" clip-rule="evenodd" d="M123.467 170.104C123.467 169.579 123.436 169.086 123.436 168.562C123.436 169.086 123.436 169.61 123.467 170.104Z" fill="black"/>
<path fill-rule="evenodd" clip-rule="evenodd" d="M195.221 34.1855C194.699 34.2164 194.207 34.2472 193.684 34.3089C194.207 34.2781 194.699 34.2472 195.221 34.1855Z" fill="black"/>
<path fill-rule="evenodd" clip-rule="evenodd" d="M182.186 184.907C182.186 184.507 182.156 184.075 182.156 183.674C182.156 184.106 182.156 184.507 182.186 184.907Z" fill="black"/>
<path fill-rule="evenodd" clip-rule="evenodd" d="M182.801 169.179C182.801 168.778 182.771 168.346 182.771 167.945C182.771 168.377 182.771 168.778 182.801 169.179Z" fill="black"/>
<path fill-rule="evenodd" clip-rule="evenodd" d="M172.287 176.272C172.287 176.673 172.318 177.105 172.318 177.506C172.318 177.105 172.318 176.704 172.287 176.272Z" fill="black"/>
<path fill-rule="evenodd" clip-rule="evenodd" d="M231.806 160.728C232.113 160.728 232.421 160.697 232.728 160.697C232.421 160.697 232.113 160.697 231.806 160.728Z" fill="black"/>
<path fill-rule="evenodd" clip-rule="evenodd" d="M172.902 186.142C172.933 186.543 172.933 186.974 172.963 187.375C172.933 186.974 172.933 186.543 172.902 186.142Z" fill="black"/>
<path fill-rule="evenodd" clip-rule="evenodd" d="M205.859 183.982C205.828 184.383 205.828 184.815 205.797 185.216C205.828 184.815 205.828 184.414 205.859 183.982Z" fill="black"/>
<path fill-rule="evenodd" clip-rule="evenodd" d="M170.443 0.229721C170.012 0.168038 169.582 0.106355 169.151 0.0755138C169.551 0.168038 170.043 -0.2329 170.443 0.229721Z" fill="black"/>
<path fill-rule="evenodd" clip-rule="evenodd" d="M151.75 158.385C151.75 158.786 151.72 159.217 151.72 159.618C151.72 159.217 151.72 158.786 151.75 158.385Z" fill="black"/>
<path fill-rule="evenodd" clip-rule="evenodd" d="M125.311 196.011C125.281 195.61 125.281 195.178 125.25 194.777C125.281 195.209 125.281 195.61 125.311 196.011Z" fill="black"/>
<path fill-rule="evenodd" clip-rule="evenodd" d="M224.735 161.314C225.042 161.314 225.35 161.314 225.657 161.283C225.35 161.314 225.042 161.314 224.735 161.314Z" fill="black"/>
<path fill-rule="evenodd" clip-rule="evenodd" d="M190.548 176.581C190.548 176.982 190.517 177.414 190.517 177.815C190.333 177.383 190.364 176.982 190.548 176.581Z" fill="black"/>
<path fill-rule="evenodd" clip-rule="evenodd" d="M245.333 211.277C245.64 211.277 245.948 211.308 246.255 211.308C245.948 211.277 245.64 211.277 245.333 211.277Z" fill="black"/>
<path fill-rule="evenodd" clip-rule="evenodd" d="M106.865 175.038C106.865 174.73 106.834 174.422 106.834 174.113C106.834 174.422 106.834 174.73 106.865 175.038Z" fill="black"/>
<path fill-rule="evenodd" clip-rule="evenodd" d="M232.728 174.822C232.451 175.1 232.113 174.946 231.806 174.946C232.113 174.884 232.421 174.853 232.728 174.822Z" fill="black"/>
<path fill-rule="evenodd" clip-rule="evenodd" d="M196.144 164.953C195.744 165.138 195.314 165.169 194.914 164.953C195.314 164.953 195.744 164.953 196.144 164.953Z" fill="black"/>
<path fill-rule="evenodd" clip-rule="evenodd" d="M205.674 164.768C205.274 164.737 204.844 164.706 204.444 164.645C204.844 164.706 205.274 164.737 205.674 164.768Z" fill="black"/>
<path fill-rule="evenodd" clip-rule="evenodd" d="M111.753 163.318C111.753 163.627 111.723 163.935 111.723 164.244C111.753 163.935 111.753 163.627 111.753 163.318Z" fill="black"/>
<path fill-rule="evenodd" clip-rule="evenodd" d="M182.432 179.973C182.463 179.665 182.463 179.356 182.494 179.048C182.463 179.356 182.463 179.665 182.432 179.973Z" fill="black"/>
<path fill-rule="evenodd" clip-rule="evenodd" d="M224.735 162.209C224.335 162.24 223.905 162.271 223.505 162.302C223.905 162.271 224.335 162.24 224.735 162.209Z" fill="black"/>
<path fill-rule="evenodd" clip-rule="evenodd" d="M123.467 161.16C123.467 160.851 123.436 160.543 123.436 160.234C123.436 160.543 123.436 160.851 123.467 161.16Z" fill="black"/>
<path fill-rule="evenodd" clip-rule="evenodd" d="M174.808 137.412C174.777 137.721 174.747 138.029 174.747 138.337C174.777 138.029 174.777 137.721 174.808 137.412Z" fill="black"/>
<path fill-rule="evenodd" clip-rule="evenodd" d="M230.884 146.757C230.484 146.973 230.053 146.942 229.654 146.757C230.053 146.757 230.484 146.757 230.884 146.757Z" fill="black"/>
<path fill-rule="evenodd" clip-rule="evenodd" d="M182.186 189.534C182.156 189.225 182.156 188.917 182.125 188.608C182.156 188.917 182.156 189.225 182.186 189.534Z" fill="black"/>
<path fill-rule="evenodd" clip-rule="evenodd" d="M182.186 192.001C182.186 191.693 182.156 191.385 182.156 191.076C182.156 191.385 182.156 191.693 182.186 192.001Z" fill="black"/>
<path fill-rule="evenodd" clip-rule="evenodd" d="M211.516 200.483C211.731 200.483 211.915 200.483 212.13 200.452C211.915 200.483 211.731 200.483 211.516 200.483Z" fill="black"/>
<path fill-rule="evenodd" clip-rule="evenodd" d="M112.399 203.104C112.368 202.796 112.368 202.487 112.337 202.179C112.368 202.487 112.368 202.796 112.399 203.104Z" fill="black"/>
<path fill-rule="evenodd" clip-rule="evenodd" d="M223.505 146.572C223.105 146.541 222.675 146.51 222.275 146.479C222.675 146.51 223.105 146.541 223.505 146.572Z" fill="black"/>
<path fill-rule="evenodd" clip-rule="evenodd" d="M225.657 146.88L224.735 146.757L225.657 146.88Z" fill="black"/>
<path fill-rule="evenodd" clip-rule="evenodd" d="M179.05 179.357C179.081 178.432 179.081 177.506 179.112 176.581C179.081 177.506 179.081 178.432 179.05 179.357Z" fill="black"/>
<path fill-rule="evenodd" clip-rule="evenodd" d="M155.102 145.431C155.102 146.14 155.132 146.88 155.132 147.59C155.102 146.88 155.102 146.171 155.102 145.431Z" fill="black"/>
<path fill-rule="evenodd" clip-rule="evenodd" d="M102.069 190.613C101.547 190.613 101.055 190.613 100.532 190.644C101.055 190.613 101.547 190.613 102.069 190.613Z" fill="black"/>
<path fill-rule="evenodd" clip-rule="evenodd" d="M144.188 129.27C143.665 129.27 143.173 129.239 142.65 129.239C143.173 129.239 143.665 129.239 144.188 129.27Z" fill="black"/>
<path fill-rule="evenodd" clip-rule="evenodd" d="M137.732 128.931C137.332 128.931 136.902 128.931 136.502 128.962C136.932 128.931 137.332 128.931 137.732 128.931Z" fill="black"/>
<path fill-rule="evenodd" clip-rule="evenodd" d="M159.867 33.0759C160.389 33.0451 160.881 33.0142 161.404 32.9834C160.881 33.0142 160.389 33.0451 159.867 33.0759Z" fill="black"/>
<path fill-rule="evenodd" clip-rule="evenodd" d="M166.753 69.253C166.784 68.7287 166.784 68.2352 166.815 67.7109C166.784 68.2352 166.784 68.7596 166.753 69.253Z" fill="black"/>
<path fill-rule="evenodd" clip-rule="evenodd" d="M121.13 140.62C121.53 140.651 121.96 140.682 122.36 140.713C121.96 140.682 121.53 140.651 121.13 140.62Z" fill="black"/>
<path fill-rule="evenodd" clip-rule="evenodd" d="M120.362 156.225C120.362 155.824 120.362 155.392 120.393 154.991C120.362 155.423 120.362 155.824 120.362 156.225Z" fill="black"/>
<path fill-rule="evenodd" clip-rule="evenodd" d="M155.562 139.786C155.962 139.756 156.393 139.694 156.792 139.663C156.393 139.725 155.962 139.756 155.562 139.786Z" fill="black"/>
<path fill-rule="evenodd" clip-rule="evenodd" d="M183.662 132.478C183.693 132.077 183.724 131.645 183.724 131.244C183.693 131.676 183.693 132.077 183.662 132.478Z" fill="black"/>
<path fill-rule="evenodd" clip-rule="evenodd" d="M189.073 75.6365C189.472 75.6056 189.903 75.5748 190.302 75.5439C189.903 75.5748 189.472 75.6056 189.073 75.6365Z" fill="black"/>
<path fill-rule="evenodd" clip-rule="evenodd" d="M120.393 179.356C120.393 179.047 120.362 178.739 120.362 178.431C120.362 178.739 120.362 179.047 120.393 179.356Z" fill="black"/>
<path fill-rule="evenodd" clip-rule="evenodd" d="M154.855 163.627C155.532 165.292 155.163 164.12 155.163 164.491C154.609 164.583 154.486 164.306 154.855 163.627Z" fill="black"/>
<path fill-rule="evenodd" clip-rule="evenodd" d="M126.664 128.037C126.357 128.037 126.049 128.006 125.742 128.006C126.049 128.006 126.357 128.006 126.664 128.037Z" fill="black"/>
<path fill-rule="evenodd" clip-rule="evenodd" d="M189.503 96.7014C189.534 96.3005 189.534 95.8687 189.565 95.4678C189.534 95.8996 189.534 96.3005 189.503 96.7014Z" fill="black"/>
<path fill-rule="evenodd" clip-rule="evenodd" d="M120.331 167.02C120.362 166.712 120.362 166.403 120.393 166.095C120.362 166.403 120.362 166.712 120.331 167.02Z" fill="black"/>
<path fill-rule="evenodd" clip-rule="evenodd" d="M184.277 126.618C184.308 126.309 184.338 126.001 184.369 125.692C184.338 126.001 184.308 126.309 184.277 126.618Z" fill="black"/>
<path fill-rule="evenodd" clip-rule="evenodd" d="M116.334 167.945C116.365 168.254 116.396 168.562 116.427 168.871C116.396 168.562 116.365 168.254 116.334 167.945Z" fill="black"/>
<path fill-rule="evenodd" clip-rule="evenodd" d="M115.72 165.478C115.75 165.786 115.781 166.094 115.812 166.403C115.781 166.094 115.75 165.786 115.72 165.478Z" fill="black"/>
<path fill-rule="evenodd" clip-rule="evenodd" d="M177.206 123.225C177.237 122.917 177.237 122.608 177.268 122.3C177.237 122.608 177.237 122.917 177.206 123.225Z" fill="black"/>
<path fill-rule="evenodd" clip-rule="evenodd" d="M20.2925 165.077C20.6921 165.046 21.1225 165.015 21.5222 164.984C21.1225 165.015 20.6921 165.046 20.2925 165.077Z" fill="black"/>
<path fill-rule="evenodd" clip-rule="evenodd" d="M174.501 172.571C174.501 172.88 174.47 173.188 174.47 173.497C174.47 173.188 174.47 172.88 174.501 172.571Z" fill="black"/>
<path fill-rule="evenodd" clip-rule="evenodd" d="M179.358 173.497C179.389 173.188 179.389 172.88 179.419 172.571C179.389 172.88 179.389 173.188 179.358 173.497Z" fill="black"/>
<path fill-rule="evenodd" clip-rule="evenodd" d="M177.513 121.992C177.544 121.683 177.575 121.375 177.605 121.066C177.575 121.375 177.544 121.683 177.513 121.992Z" fill="black"/>
<path fill-rule="evenodd" clip-rule="evenodd" d="M22.752 164.768C23.1516 164.737 23.582 164.675 23.9817 164.645C23.582 164.706 23.1516 164.737 22.752 164.768Z" fill="black"/>
<path fill-rule="evenodd" clip-rule="evenodd" d="M180.034 163.627C179.911 163.319 179.881 162.98 180.096 162.702C180.065 163.011 180.034 163.319 180.034 163.627Z" fill="black"/>
<path fill-rule="evenodd" clip-rule="evenodd" d="M174.808 157.768C174.808 158.076 174.777 158.384 174.777 158.693C174.777 158.384 174.777 158.076 174.808 157.768Z" fill="black"/>
<path fill-rule="evenodd" clip-rule="evenodd" d="M175.054 188.301C175.084 188.609 175.084 188.918 175.115 189.226C175.084 188.918 175.084 188.609 175.054 188.301Z" fill="black"/>
<path fill-rule="evenodd" clip-rule="evenodd" d="M197.681 76.1299C197.988 76.1607 198.296 76.2224 198.603 76.2533C198.296 76.2224 197.988 76.1607 197.681 76.1299Z" fill="black"/>
<path fill-rule="evenodd" clip-rule="evenodd" d="M196.451 76.1612C196.851 76.192 197.312 75.9761 197.681 76.2845L196.451 76.1612Z" fill="black"/>
<path fill-rule="evenodd" clip-rule="evenodd" d="M153.103 75.8223L154.333 75.9148C153.933 75.9148 153.503 75.8839 153.103 75.8223Z" fill="black"/>
<path fill-rule="evenodd" clip-rule="evenodd" d="M132.812 141.206C133.212 141.206 133.643 141.206 134.042 141.206C133.643 141.391 133.212 141.422 132.812 141.206Z" fill="black"/>
<path fill-rule="evenodd" clip-rule="evenodd" d="M121.622 192.926C121.591 192.618 121.561 192.309 121.561 192.001C121.591 192.309 121.591 192.618 121.622 192.926Z" fill="black"/>
<path fill-rule="evenodd" clip-rule="evenodd" d="M140.499 141.329C140.898 141.298 141.329 141.267 141.728 141.236C141.329 141.267 140.898 141.298 140.499 141.329Z" fill="black"/>
<path fill-rule="evenodd" clip-rule="evenodd" d="M175.392 195.702C175.392 196.011 175.392 196.319 175.423 196.627C175.392 196.319 175.392 196.011 175.392 195.702Z" fill="black"/>
<path fill-rule="evenodd" clip-rule="evenodd" d="M176.468 68.5433C176.867 68.5124 177.298 68.4508 177.698 68.4199C177.298 68.4816 176.867 68.5124 176.468 68.5433Z" fill="black"/>
<path fill-rule="evenodd" clip-rule="evenodd" d="M181.817 147.282C181.848 146.973 181.879 146.665 181.91 146.356C181.879 146.665 181.848 146.973 181.817 147.282Z" fill="black"/>
<path fill-rule="evenodd" clip-rule="evenodd" d="M195.959 64.9351C195.99 64.6266 196.021 64.3182 196.021 64.0098C195.99 64.3182 195.99 64.6266 195.959 64.9351Z" fill="black"/>
<path fill-rule="evenodd" clip-rule="evenodd" d="M166.784 38.4111C166.784 38.7195 166.784 39.028 166.815 39.3364C166.784 39.028 166.784 38.7195 166.784 38.4111Z" fill="black"/>
<path fill-rule="evenodd" clip-rule="evenodd" d="M155.87 32.6748C156.27 32.7056 156.7 32.7365 157.1 32.7673C156.7 32.7365 156.27 32.7056 155.87 32.6748Z" fill="black"/>
<path fill-rule="evenodd" clip-rule="evenodd" d="M94.3838 207.947C94.7835 207.916 95.2139 207.854 95.6135 207.823C95.2139 207.885 94.7835 207.916 94.3838 207.947Z" fill="black"/>
<path fill-rule="evenodd" clip-rule="evenodd" d="M80.8564 211.956C81.2561 211.74 81.6865 211.802 82.0862 211.956C81.6865 211.956 81.2561 211.956 80.8564 211.956Z" fill="black"/>
<path fill-rule="evenodd" clip-rule="evenodd" d="M240.414 194.068C241.121 194.037 241.859 194.006 242.566 193.944C241.859 194.006 241.121 194.037 240.414 194.068Z" fill="black"/>
<path fill-rule="evenodd" clip-rule="evenodd" d="M240.414 188.763C240.014 188.763 239.584 188.794 239.184 188.794C239.584 188.763 240.014 188.763 240.414 188.763Z" fill="black"/>
<path fill-rule="evenodd" clip-rule="evenodd" d="M234.266 182.626C234.788 182.595 235.28 182.534 235.803 182.503C235.342 182.811 234.788 182.595 234.266 182.626Z" fill="black"/>
<path fill-rule="evenodd" clip-rule="evenodd" d="M228.424 183.273C228.947 183.242 229.439 183.211 229.961 183.149C229.439 183.211 228.947 183.242 228.424 183.273Z" fill="black"/>
<path fill-rule="evenodd" clip-rule="evenodd" d="M219.816 188.825C220.216 188.794 220.646 188.763 221.046 188.732C220.646 188.763 220.216 188.794 219.816 188.825Z" fill="black"/>
<path fill-rule="evenodd" clip-rule="evenodd" d="M221.968 188.825C222.367 188.794 222.798 188.763 223.198 188.732C222.798 188.763 222.367 188.794 221.968 188.825Z" fill="black"/>
<path fill-rule="evenodd" clip-rule="evenodd" d="M223.505 188.516C223.905 188.485 224.335 188.454 224.735 188.393C224.335 188.454 223.905 188.485 223.505 188.516Z" fill="black"/>
<path fill-rule="evenodd" clip-rule="evenodd" d="M233.343 194.963C233.742 194.932 234.173 194.901 234.573 194.87C234.204 195.117 233.773 194.963 233.343 194.963Z" fill="black"/>
<path fill-rule="evenodd" clip-rule="evenodd" d="M221.661 170.32C222.06 170.289 222.491 170.227 222.89 170.196C222.491 170.258 222.06 170.289 221.661 170.32Z" fill="black"/>
<path fill-rule="evenodd" clip-rule="evenodd" d="M209.671 166.804C209.579 167.051 209.025 167.02 209.056 166.773C209.271 166.773 209.456 166.804 209.671 166.804Z" fill="black"/>
<path fill-rule="evenodd" clip-rule="evenodd" d="M195.345 167.945C195.345 168.254 195.375 168.562 195.375 168.871C195.375 168.562 195.375 168.254 195.345 167.945Z" fill="black"/>
<path fill-rule="evenodd" clip-rule="evenodd" d="M237.339 169.58C237.647 169.58 237.954 169.58 238.262 169.549C237.954 169.796 237.647 169.765 237.339 169.58Z" fill="black"/>
<path fill-rule="evenodd" clip-rule="evenodd" d="M217.664 184.507C218.064 184.476 218.494 184.445 218.894 184.384C218.494 184.445 218.064 184.476 217.664 184.507Z" fill="black"/>
<path fill-rule="evenodd" clip-rule="evenodd" d="M212.745 185.124L213.975 185.031L212.745 185.124Z" fill="black"/>
<path fill-rule="evenodd" clip-rule="evenodd" d="M236.725 194.376C237.124 194.345 237.555 194.284 237.954 194.253C237.555 194.315 237.124 194.345 236.725 194.376Z" fill="black"/>
<path fill-rule="evenodd" clip-rule="evenodd" d="M221.968 196.227C222.367 196.072 222.798 196.011 223.198 196.227C222.798 196.227 222.367 196.227 221.968 196.227Z" fill="black"/>
<path fill-rule="evenodd" clip-rule="evenodd" d="M221.322 153.728L220.738 153.543C221.445 153.543 222.183 153.512 222.89 153.512C222.89 153.512 221.415 153.728 221.322 153.728Z" fill="black"/>
<path fill-rule="evenodd" clip-rule="evenodd" d="M196.451 160.142C196.974 159.926 197.466 159.987 197.988 160.142C197.466 160.142 196.974 160.142 196.451 160.142Z" fill="black"/>
<path fill-rule="evenodd" clip-rule="evenodd" d="M221.046 151.105C221.569 151.136 222.06 151.167 222.583 151.198C222.06 151.167 221.569 151.136 221.046 151.105Z" fill="black"/>
<path fill-rule="evenodd" clip-rule="evenodd" d="M214.589 154.283C215.112 154.252 215.604 154.221 216.127 154.159C215.604 154.221 215.112 154.252 214.589 154.283Z" fill="black"/>
<path fill-rule="evenodd" clip-rule="evenodd" d="M218.586 153.666C218.986 153.635 219.416 153.604 219.816 153.573C219.416 153.604 218.986 153.635 218.586 153.666Z" fill="black"/>
<path fill-rule="evenodd" clip-rule="evenodd" d="M215.205 150.798C215.604 150.829 216.035 150.86 216.434 150.89C216.035 150.86 215.604 150.829 215.205 150.798Z" fill="black"/>
<path fill-rule="evenodd" clip-rule="evenodd" d="M215.819 153.634C215.604 153.634 215.42 153.604 215.205 153.604C215.42 153.604 215.604 153.604 215.819 153.634Z" fill="black"/>
<path fill-rule="evenodd" clip-rule="evenodd" d="M211.823 153.604C211.608 153.604 211.423 153.604 211.208 153.573C211.423 153.604 211.608 153.604 211.823 153.604Z" fill="black"/>
<path fill-rule="evenodd" clip-rule="evenodd" d="M222.891 153.326C222.891 153.418 223.813 152.986 223.813 153.388L222.891 153.326Z" fill="black"/>
<path fill-rule="evenodd" clip-rule="evenodd" d="M110.37 133.742C110.708 132.385 110.616 131.305 111.784 132.169C112.43 132.662 113.506 135.068 113.414 135.901C113.321 136.918 112.86 137.319 111.907 136.98C110.831 136.641 110.401 134.759 110.37 133.742Z" fill="black"/>
<path fill-rule="evenodd" clip-rule="evenodd" d="M170.258 125.477C173.025 125.477 171.795 128.407 169.52 128.469C168.475 128.499 166.937 128.284 167.276 126.865C167.491 126.125 170.166 125.107 170.258 125.477Z" fill="black"/>
<path fill-rule="evenodd" clip-rule="evenodd" d="M140.745 131.244C142.743 132.2 139.945 136.456 138.131 135.408C135.826 134.051 139.915 131.861 140.745 131.244Z" fill="black"/>
<path fill-rule="evenodd" clip-rule="evenodd" d="M135.918 135.253C136.563 135.962 139.515 138.368 137.885 139.355C135.887 140.558 134.381 136.61 135.918 135.253Z" fill="black"/>
<path fill-rule="evenodd" clip-rule="evenodd" d="M102.592 133.403C101.947 132.139 102.838 128.869 104.806 129.455C106.804 130.072 103.668 133.064 102.592 133.403Z" fill="black"/>
<path fill-rule="evenodd" clip-rule="evenodd" d="M146.432 134.143C147.723 133.619 147.477 135.161 147.662 135.655C147.877 136.21 149.014 137.598 148.738 138.184C148.307 139.078 147.293 138.492 146.77 137.937C145.817 136.919 145.879 135.285 146.432 134.143Z" fill="black"/>
<path fill-rule="evenodd" clip-rule="evenodd" d="M126.787 135.561C125.711 135.561 123.159 132.446 124.666 131.922C126.541 131.275 128.109 135.777 126.787 135.561Z" fill="black"/>
<path fill-rule="evenodd" clip-rule="evenodd" d="M163.925 130.627C164.909 130.874 166.2 133.68 164.724 133.989C163.095 134.359 162.787 131.398 163.925 130.627Z" fill="black"/>
<path fill-rule="evenodd" clip-rule="evenodd" d="M157.96 135.87C157.192 134.39 157.007 131.182 158.883 133.742C159.282 134.297 159.713 134.081 159.498 134.976C159.313 135.808 158.606 135.87 157.96 135.87Z" fill="black"/>
<path fill-rule="evenodd" clip-rule="evenodd" d="M117.318 128.159C118.118 129.362 117.872 133.063 116.242 130.873C115.535 129.948 115.996 128.221 117.318 128.159Z" fill="black"/>
<path fill-rule="evenodd" clip-rule="evenodd" d="M156.854 16.2361C158.391 15.8352 158.76 19.4436 157.868 19.8446C156.608 20.3997 156.762 16.8529 156.854 16.2361Z" fill="black"/>
<path fill-rule="evenodd" clip-rule="evenodd" d="M253.388 199.619C251.974 199.527 249.975 199.157 252.127 198.139C253.48 197.491 255.509 197.46 256.954 197.707C257.938 197.892 259.444 198.725 257.907 199.774C257.016 200.421 254.464 199.65 253.388 199.619Z" fill="black"/>
<path fill-rule="evenodd" clip-rule="evenodd" d="M251.789 202.179C251.389 202.118 250.959 202.087 250.559 202.056C250.897 201.439 251.85 201.316 251.789 202.179Z" fill="black"/>
<path fill-rule="evenodd" clip-rule="evenodd" d="M253.634 199.558C254.033 199.558 254.464 199.588 254.864 199.588C254.464 199.558 254.033 199.558 253.634 199.558Z" fill="black"/>
</svg>
