<svg width="169" height="154" viewBox="0 0 169 154" fill="none" xmlns="http://www.w3.org/2000/svg">
<path fill-rule="evenodd" clip-rule="evenodd" d="M116.505 130.113C108.427 131.763 100.372 133.434 92.2943 135.106C91.1566 135.341 90.0188 135.577 88.8811 135.813C89.2224 125.999 89.5637 116.207 89.9051 106.393C89.9506 104.979 89.9961 103.564 90.0416 102.15C88.1757 103.693 86.2188 105.171 84.4211 106.8C82.1229 108.878 79.9384 111.021 77.5719 113.035C73.5216 116.507 69.2664 119.871 64.5562 122.549C59.4591 125.463 53.5656 127.327 47.6494 127.97C45.4649 128.206 43.4852 128.142 41.3235 127.949C39.4349 127.756 37.569 127.585 35.6803 127.392C34.9294 127.327 34.1557 127.242 33.4048 127.177C33.2228 127.156 32.6312 127.199 32.4719 127.092C32.1988 126.877 32.0623 125.935 31.9713 125.613C31.5389 124.349 31.1066 123.085 30.6743 121.821C29.5138 118.371 28.3533 114.942 27.2383 111.471C26.2826 108.514 25.2814 105.536 24.576 102.514C24.4849 102.15 24.3029 101.7 24.3484 101.336C24.3939 100.8 24.1209 100.907 24.8718 100.907C26.6239 100.886 28.4898 101.293 30.2647 101.4C32.0851 101.529 33.9054 101.593 35.7258 101.614C45.3511 101.7 56.4327 100.714 64.2376 94.8433C66.8544 92.8719 69.4712 90.6006 71.4964 88.0721C74.3635 84.4937 75.9108 79.7582 76.2977 75.3442C76.73 70.3944 75.8426 65.2946 74.5455 60.4948C74.2952 59.5306 74.3408 59.1663 74.5683 58.1592C74.7503 57.3236 74.9324 56.4665 75.1372 55.6308C75.1827 55.3951 75.2509 54.4094 75.4557 54.2809C75.8198 54.0237 77.5492 54.3023 77.9588 54.3023L83.1696 54.3666C86.5373 54.4094 89.8823 54.4523 93.25 54.4951C95.0021 54.5166 96.7315 54.7737 98.4836 54.9451C102.193 55.3094 105.924 55.6736 109.633 56.0379C110.384 56.1022 111.113 56.1879 111.863 56.2522C111.386 60.2377 110.908 64.2232 110.43 68.2088C110.066 71.1872 111.317 74.1228 111.977 77.0369C113.479 83.5724 114.913 90.2149 115.481 96.9003C116.005 103.2 116.005 109.543 116.164 115.864C116.278 120.578 116.414 125.335 116.505 130.113Z" fill="#FDCE1E"/>
<path fill-rule="evenodd" clip-rule="evenodd" d="M64.6178 9.85889C64.6178 9.49462 64.7316 9.23749 64.9591 8.9375C65.4597 9.34462 66.2561 11.4017 67.0981 10.0732C67.2573 9.81603 67.2801 8.83036 67.849 9.13035C68.122 9.28034 68.0538 9.96602 68.031 10.2017C67.9627 11.0374 67.5532 12.1945 66.4154 12.1516C65.2322 12.1088 64.595 10.7803 64.6178 9.85889Z" fill="black"/>
<path fill-rule="evenodd" clip-rule="evenodd" d="M65.3296 8.03473C63.3954 8.37758 64.1691 6.72765 65.5799 6.59909C66.1033 6.55623 67.0134 6.57766 66.8769 7.3062C66.7859 7.94902 65.8302 7.94902 65.3296 8.03473Z" fill="black"/>
<path fill-rule="evenodd" clip-rule="evenodd" d="M59.9538 13.4369C59.3394 13.5011 58.3382 12.6869 59.3622 12.5798C59.8173 12.5369 60.8185 13.3511 59.9538 13.4369Z" fill="black"/>
<path fill-rule="evenodd" clip-rule="evenodd" d="M166.15 23.0168C165.695 23.3597 164.284 22.2669 163.829 22.074C162.054 21.3241 160.006 20.9169 158.095 20.5955C154.318 19.9527 150.427 19.6099 146.604 19.4813C144.26 19.417 142.053 19.4813 139.732 19.717C139.163 19.7813 135.249 20.3813 135.158 19.3742C134.999 17.5957 145.307 17.6814 146.285 17.7028C150.745 17.7242 154.795 18.1742 159.119 19.0956C160.325 19.3742 167.538 22.0312 166.15 23.0168Z" fill="black"/>
<path fill-rule="evenodd" clip-rule="evenodd" d="M42.7766 52.2408C40.4328 52.905 37.7478 52.7979 35.5405 51.7479C35.1537 51.5765 34.2435 51.1908 34.7214 50.7194C35.2447 50.2266 36.7238 51.0622 37.2927 51.1694C40.0688 51.6836 43.5958 50.6551 45.5527 48.7481C46.5311 47.8052 47.0773 46.6053 47.3048 45.3197C47.4413 44.5911 47.5096 43.7983 47.4641 43.0698C47.4186 42.2769 47.0773 41.4413 47.3048 40.6484C48.3288 41.227 48.3515 42.7269 48.4198 43.6912C48.5108 44.9125 48.5108 46.091 48.1467 47.291C47.3731 49.7552 45.3706 51.5122 42.7766 52.2408Z" fill="black"/>
<path fill-rule="evenodd" clip-rule="evenodd" d="M0.770671 117.767C0.838936 117.96 0.9072 118.131 0.998219 118.345C1.31679 117.788 1.31679 117.788 0.770671 117.767ZM3.7288 132.08C4.91205 132.595 6.20907 131.223 6.84621 130.452C7.89293 129.166 8.34803 127.709 8.75761 126.166C9.21271 124.474 9.73607 122.781 10.1684 121.088C10.3504 120.317 10.5325 119.567 10.7373 118.817C10.9193 118.195 11.5565 117.081 11.2834 116.417C10.8283 115.324 8.53006 115.024 8.68935 113.546C8.82588 112.196 11.3517 113.631 11.9433 113.931C13.3086 114.595 12.6032 113.76 11.9433 113.288C11.4427 112.924 9.09894 111.36 10.3277 110.546C11.1241 110.031 12.8535 111.596 13.5134 111.896C14.196 112.196 14.4691 112.11 15.0152 111.574C15.4248 111.188 16.0164 110.717 16.3122 110.267C17.0859 109.196 16.0619 107.074 15.9026 105.832C15.8571 105.553 16.0847 104.053 15.8799 103.86C15.6068 103.625 14.4691 103.796 14.0367 103.732C12.5122 103.517 11.0331 103.346 9.50852 103.175C8.50731 103.046 5.52643 102.339 4.9348 103.325C4.45695 104.096 4.61624 105.596 4.61624 106.432C4.61624 108.189 4.61624 109.881 4.4342 111.638C4.04737 115.474 3.75155 119.288 3.38748 123.124C3.20544 124.988 2.84136 126.809 2.65932 128.673C2.5683 129.83 2.38626 131.502 3.7288 132.08ZM26.5519 103.817C27.6669 106.432 28.5771 109.131 29.5555 111.81C30.0106 113.053 30.4202 114.295 30.8525 115.517C31.2849 116.695 31.9903 117.767 32.3316 118.967C33.0142 121.238 33.5831 123.509 34.3795 125.759C34.4933 126.081 34.425 126.788 34.6298 127.023C34.8801 127.302 35.9951 127.259 36.4047 127.302C38.0203 127.495 39.6814 127.645 41.3198 127.581C39.7952 125.759 38.0658 124.088 36.2909 122.459C34.7436 121.024 32.6502 119.417 32.3999 117.231C32.0585 114.338 35.267 114.917 37.2694 115.088C40.0455 115.324 43.1856 116.395 45.9845 115.795C44.0503 113.331 41.1377 111.51 38.7257 109.517C37.7928 108.746 36.7915 107.889 36.3137 106.753C36.0634 106.174 35.9496 105.532 36.1089 104.91C36.3137 104.182 36.7688 104.032 37.4059 103.689C33.5376 103.689 29.6465 103.56 25.9603 102.317C25.8237 102.939 26.3471 103.325 26.5519 103.817ZM43.8228 126.981C44.5054 127.838 45.7114 127.602 46.7126 127.559C48.169 127.473 49.648 127.302 51.0816 127.045C52.5379 126.766 53.9942 126.381 55.3822 125.888C55.678 125.781 56.5882 125.545 56.6793 125.202C56.7703 124.902 56.2242 124.281 56.0876 124.066C55.7008 123.338 55.496 122.031 56.3834 121.517C57.1116 121.088 58.1811 121.517 58.9092 121.731C60.0015 122.031 61.2757 122.631 62.3907 122.181C63.8015 121.581 65.1896 120.745 66.5093 119.995C64.1201 117.96 61.7763 115.881 59.3416 113.888C57.0888 112.067 54.4038 109.989 52.993 107.503C52.4696 106.56 52.1283 105.232 52.7654 104.246C53.3343 103.367 54.5176 103.346 55.496 103.41C58.4314 103.646 61.3212 104.332 64.1884 104.846C65.1668 105.017 71.4016 106.389 71.4244 104.889C71.4244 104.567 70.7872 103.839 70.6052 103.582C70.2411 103.003 69.8543 102.425 69.4447 101.868C68.5118 100.56 67.465 99.3176 66.4638 98.0748C65.9405 97.4534 65.3033 96.1249 64.3021 96.2749C63.847 96.3392 63.4147 96.8106 63.0506 97.0463C62.4362 97.4748 61.7763 97.8605 61.1164 98.2034C58.4314 99.6605 55.4733 100.389 52.4924 101.096C51.8097 101.246 48.5785 101.568 48.26 102.189C48.1007 102.51 48.4648 103.239 48.4648 103.582C48.4875 104.096 48.351 104.632 48.0552 105.06C47.1905 106.324 45.3018 106.26 43.9138 106.217C42.1389 106.174 40.3413 106.089 38.5664 106.282C40.3185 107.803 42.1389 109.26 43.9593 110.717C45.2563 111.724 46.6899 112.688 47.6911 113.974C48.5558 115.067 49.2157 116.931 48.1007 118.11C46.9174 119.374 44.2324 118.817 42.7306 118.602C40.9784 118.345 39.2491 118.045 37.4969 117.724C36.9053 117.617 36.2909 117.488 35.6993 117.445C34.9712 117.402 34.7209 117.381 35.2215 118.002C36.4502 119.567 38.3161 120.681 39.6359 122.224C40.2503 122.952 40.9784 123.509 41.6156 124.195C42.4575 125.052 43.0946 126.059 43.8228 126.981ZM67.9429 118.431C68.7848 119.245 69.7405 118.088 70.4232 117.552C71.4471 116.76 72.4483 115.945 73.4951 115.174C75.4747 113.696 77.5227 112.346 79.3886 110.739C79.9802 110.224 80.9359 109.667 81.1179 108.896C81.3455 107.91 80.7994 107.032 81.3682 106.024C82.415 104.139 84.6222 105.682 86.033 104.589C86.7611 104.032 87.2845 103.217 87.8534 102.532C88.536 101.718 89.4234 100.903 89.8103 99.9176C90.2199 98.8891 90.2654 98.3962 89.5145 97.5177C88.6953 96.5749 87.6941 95.7178 87.0342 94.6678C86.5791 93.9393 86.215 92.8679 86.9204 92.1608C87.4893 91.6037 88.4905 91.7537 89.2414 91.7965C90.3336 91.8608 91.4259 91.9465 92.4953 92.1608C93.3373 92.3322 94.9529 92.7393 95.772 92.3108C97.6834 91.2823 94.2475 88.6253 93.4738 87.8324C91.7672 86.0754 89.9696 84.3826 88.1947 82.6684C86.5563 81.1042 84.8952 79.5185 83.3479 77.8472C82.2102 76.6044 80.8449 74.8688 81.482 73.1117C81.9826 71.6975 83.6665 71.6546 84.9863 71.7403C86.9432 71.8903 88.9001 72.1903 90.8342 72.4046C92.2906 72.576 95.0894 73.0903 96.3181 71.9975C97.5924 70.8832 94.8618 67.5405 94.1564 66.5334C92.6546 64.4121 90.948 62.4622 89.1504 60.5551C88.2857 59.6337 87.3983 58.7338 86.5108 57.8124C85.7372 57.0196 85.0318 56.0339 84.1671 55.3482C83.2114 54.5983 81.7551 54.684 80.5946 54.5768C79.3431 54.4697 78.0233 54.2769 76.7945 54.2983C75.6568 54.2983 75.9298 55.3268 75.8843 56.2268C75.8616 56.441 75.5658 58.3481 75.9071 58.3695C75.9526 57.941 75.9753 57.5338 76.0209 57.1053C76.9993 57.491 77.7047 58.2838 78.4556 58.9481C79.2065 59.6123 80.2305 60.2766 80.5491 61.2408C81.4365 63.9621 77.864 62.9979 76.3849 62.7193C76.7262 65.8049 77.5682 68.8047 78.0233 71.8689C78.2281 73.1545 78.137 74.3116 77.9778 75.5973C77.8867 76.3258 77.9095 77.0544 77.8185 77.7829C77.7502 78.3615 77.4544 79.0257 77.5682 79.6042C77.773 80.6756 79.2065 81.7899 79.8437 82.6898C80.6856 83.8898 81.4137 85.1754 81.8233 86.5682C82.5287 89.0752 81.3227 90.8966 78.5466 91.1323C77.2951 91.2394 75.8843 91.068 74.6556 90.8966C73.5861 90.7466 72.2208 89.9966 71.2423 90.6823C70.8328 90.9609 70.5597 91.4537 70.2184 91.7965C69.7178 92.2894 69.1261 92.7179 68.58 93.1679C68.0567 93.575 66.6004 94.3036 66.7369 94.9464C66.8507 95.4178 67.7153 96.1035 68.0112 96.4463C68.398 96.8963 68.7848 97.3677 69.1489 97.8391C70.1046 99.0391 71.0148 100.26 71.834 101.546C72.8352 103.089 74.2232 105.853 72.5394 107.46C71.5609 108.381 69.9453 108.231 68.7166 108.039C67.0327 107.782 65.3488 107.46 63.6877 107.074C62.0266 106.689 60.3428 106.41 58.6589 106.132C57.2254 105.874 55.5415 105.403 54.108 105.896C58.3176 110.503 63.4374 114.124 67.9429 118.431ZM92.4498 97.132C92.9959 96.532 93.5421 95.8678 94.0199 95.225C94.4523 94.625 94.4295 94.3678 93.6786 94.1964C93.2235 94.0893 92.7001 94.1964 92.2223 94.1321C91.7217 94.0679 91.2438 93.9393 90.766 93.8322C90.2199 93.725 89.6282 93.5536 89.0594 93.5536C88.4222 93.5536 88.3767 93.5107 88.6953 94.025C89.1276 94.7535 89.9696 95.3964 90.5612 95.9963C90.9253 96.382 91.8354 97.7963 92.4498 97.132ZM91.7444 105.489C92.0175 106.067 94.0654 105.639 94.4067 105.232C95.1349 104.353 93.2918 102.275 92.7912 101.546C92.063 101.996 91.8127 102.596 91.7672 103.41C91.7444 103.946 91.5169 104.974 91.7444 105.489ZM90.9708 134.716C92.1995 134.823 93.7924 134.159 94.9074 133.795C96.4547 133.28 98.0703 132.937 99.6631 132.595C102.872 131.909 106.194 131.823 109.425 131.18C107.377 128.673 104.897 126.509 102.826 124.024C102.075 123.124 100.96 121.838 101.301 120.595C101.643 119.374 102.963 119.652 103.964 119.931C105.284 120.295 106.558 120.831 107.855 121.281C108.469 121.495 111.2 122.738 111.7 121.924C112.042 121.388 110.108 119.374 109.812 119.01C108.765 117.702 107.605 116.481 106.444 115.26C104.282 112.967 101.848 110.631 100.164 108.017C98.9122 106.046 98.5026 102.917 101.87 103.046C103.258 103.089 104.692 103.496 106.034 103.775C107.286 104.032 109.152 104.567 110.426 104.267C111.769 103.946 110.221 102.039 109.789 101.418C108.902 100.089 107.832 98.8676 106.854 97.6034C105.784 96.2535 104.646 94.925 103.668 93.5107C103.054 92.6322 102.052 91.1109 102.598 90.018C103.236 88.7538 105.466 89.5252 106.535 89.7181C108.583 90.0823 110.608 90.6823 112.724 90.6823C112.702 89.6752 111.609 88.7967 110.995 88.0896C110.062 87.0182 109.084 85.9897 108.06 85.004C107.331 84.3183 106.558 83.1826 105.716 82.647C104.851 82.0898 104.351 83.8255 104.009 84.4683C101.529 89.1609 98.8212 93.7893 95.499 97.9891C94.8163 98.8462 93.8379 99.5319 94.4067 100.603C94.9984 101.739 95.772 102.725 95.9996 103.989C96.1589 104.932 96.0678 106.239 95.3169 106.946C94.566 107.632 93.4738 107.482 92.5636 107.76C91.5851 108.039 91.8582 108.853 91.8582 109.689C91.8355 111.124 91.8355 112.538 91.8355 113.974C91.8355 115.238 91.8582 116.503 91.881 117.788C91.9037 119.138 92.245 120.081 92.6319 121.345C92.8367 122.009 92.9049 122.674 92.6774 123.338C92.4953 123.916 92.1768 124.024 91.7899 124.409C91.0618 125.202 91.2893 126.681 91.2211 127.666C91.1983 128.416 90.1288 134.652 90.9708 134.716ZM93.9972 149.972C94.3157 150.337 95.408 150.23 95.8403 150.251C96.6595 150.294 97.4786 150.294 98.2978 150.337C100.05 150.422 101.757 150.658 103.509 150.68C104.942 150.701 106.444 150.765 107.832 150.872C108.515 150.915 109.288 150.637 109.948 150.765C110.608 150.894 110.858 151.065 111.564 151.022C113.316 150.894 115.136 151.065 116.889 151.108C118.527 151.151 120.165 151.022 121.804 151.001C123.647 150.98 125.49 151.044 127.333 151.065C129.313 151.087 131.315 150.98 133.249 151.322C133.067 150.551 133.09 149.63 132.407 149.051C131.725 148.451 130.587 148.322 129.699 148.215C128.425 148.065 127.151 148.044 125.877 147.98C125.08 147.958 124.307 147.701 123.51 147.615C122.372 147.487 121.144 147.573 120.006 147.551C119.619 147.551 119.346 147.401 118.982 147.358C118.55 147.294 118.14 147.401 117.685 147.294C116.729 147.08 115.751 146.844 114.818 146.544C114.249 146.373 114.272 146.201 113.817 146.63C113.521 146.887 113.339 147.38 113.088 147.701C112.679 148.215 111.951 148.815 111.336 148.215C110.676 147.573 111.382 146.844 111.245 146.158C111.132 145.644 110.085 145.173 109.561 145.387C108.833 145.665 108.629 147.058 107.855 147.23C106.876 147.423 107.149 146.03 107.286 145.515C107.627 144.166 107.514 144.123 106.353 143.223C105.488 142.537 105.238 142.258 104.146 142.773C103.054 143.287 101.848 143.523 100.642 143.63C99.208 143.78 97.8655 143.63 96.4547 143.351C95.7948 143.223 94.4978 142.751 94.0654 143.394C93.5876 144.144 94.0882 145.944 94.0882 146.801C94.1109 147.444 94.1337 148.087 94.0882 148.73C93.9972 149.051 93.7469 149.694 93.9972 149.972ZM111.655 130.666C112.679 130.58 113.657 130.323 114.659 130.216C115.023 130.173 115.819 130.195 116.115 129.938C116.479 129.638 116.32 129.659 116.229 129.231C115.865 127.152 115.728 125.138 115.774 123.038C115.819 121.452 116.138 119.01 115.136 117.638C113.953 116.031 112.178 114.831 110.972 113.203C110.335 112.324 109.425 109.967 111.473 110.031C112.292 110.053 113.157 110.546 113.953 110.717C115.068 110.974 115.136 110.717 115.045 109.753C114.818 107.524 114.886 105.274 114.636 103.025C114.385 100.732 114.112 98.4177 113.839 96.1249C113.703 95.0107 113.635 93.8322 113.407 92.7179C113.179 91.6465 112.087 92.2251 111.109 92.1822C108.56 92.0751 106.08 90.5966 103.509 90.8323C105.648 94.625 109.311 97.4963 111.382 101.31C112.11 102.639 112.77 104.696 110.995 105.596C109.015 106.582 106.012 105.339 103.987 105.017C103.281 104.91 100.46 104.139 100.323 105.167C100.255 105.724 101.392 107.032 101.688 107.439C102.348 108.36 103.099 109.217 103.804 110.096C105.215 111.853 106.899 113.374 108.355 115.11C109.63 116.61 111.2 118.088 112.224 119.738C113.202 121.302 113.384 124.109 110.654 123.809C107.878 123.488 105.443 121.452 102.621 121.388C104.078 123.188 105.716 124.816 107.331 126.488C108.105 127.302 108.856 128.116 109.607 128.952C110.13 129.509 110.79 130.73 111.655 130.666ZM115.455 114.36C115.387 113.61 115.591 113.203 114.863 112.774C114.408 112.517 113.293 112.088 112.793 112.281C112.975 112.496 115.182 114.981 115.432 114.767C115.478 114.638 115.5 114.488 115.455 114.36ZM111.609 79.9257C111.473 78.49 111.177 77.0544 111.109 75.6187C111.063 74.633 111.223 73.3474 110.517 72.5331C109.675 74.0331 109.106 75.6616 108.242 77.1615C107.878 77.8043 107.468 78.4257 107.104 79.0471C106.854 79.4757 106.103 80.4185 106.148 80.9328C106.239 81.8113 108.105 83.0755 108.72 83.7183C110.017 85.0683 111.268 86.4396 112.588 87.7467C112.406 85.1111 111.86 82.5398 111.609 79.9257ZM111.655 56.5267C111.291 56.0553 108.833 56.2696 108.287 56.2268C106.603 56.0768 104.783 55.9696 103.145 55.5411C105.739 58.5624 108.06 61.8194 109.561 65.4192C110.13 63.9407 110.517 62.3979 110.858 60.8765C111.041 60.1051 111.2 59.3123 111.314 58.5195C111.405 58.1552 111.882 56.8267 111.655 56.5267ZM103.759 78.5543C104.442 78.8757 106.558 74.0117 106.649 73.476C105.648 73.6902 101.688 73.8617 101.461 75.0402C101.347 75.5973 102.03 76.2615 102.325 76.6687C102.689 77.1615 103.19 78.2972 103.759 78.5543ZM97.4786 73.6045C96.0223 75.3402 93.269 74.9759 91.2211 74.7402C89.833 74.5688 88.4677 74.3545 87.0797 74.1616C85.7144 73.9688 84.0533 73.626 82.7335 74.1402C84.8725 76.9687 87.6486 79.3257 90.2426 81.7684C91.5852 83.0327 92.8594 84.3183 94.1564 85.6254C95.408 86.911 96.4319 88.5181 97.7517 89.6966C98.8895 87.7467 99.9589 85.754 101.051 83.7826C101.506 82.947 102.098 82.2184 102.576 81.3827C103.099 80.4828 103.167 80.0757 102.507 79.24C101.529 78.0186 100.141 76.3687 100.323 74.7402C100.551 72.8331 102.963 72.6189 104.533 72.2117C105.329 71.9975 106.239 71.8475 106.967 71.4618C107.878 70.9904 107.923 70.1975 108.242 69.3404C108.606 68.3119 108.947 67.6262 108.56 66.5334C108.242 65.6335 107.741 64.7335 107.309 63.855C106.376 62.0551 105.193 60.3837 103.941 58.7552C103.122 57.6838 102.166 55.5625 100.687 55.2625C99.6404 55.0697 98.3433 55.1339 97.2738 55.0911C96.0223 55.0268 94.7936 54.984 93.5421 54.9411C90.9708 54.834 88.1947 54.5983 85.6234 54.9197C88.6498 58.0052 91.6989 61.0051 94.384 64.3478C96.1361 66.5763 99.8451 70.8189 97.4786 73.6045ZM109.038 50.3342C107.627 47.8914 106.33 45.4701 104.442 43.3274C102.803 41.4846 101.301 39.5561 99.6176 37.7348C96.0451 33.9421 91.4031 31.1565 87.0797 28.1995C86.1012 27.5352 84.8497 27.171 83.7802 26.5924C82.4605 25.8639 81.0269 25.2639 79.5934 24.7711C76.9766 23.8711 73.9957 23.4211 71.2196 23.5926C68.1477 23.7854 65.8267 24.8139 63.938 27.0638C62.0722 29.2709 61.7763 31.7136 61.7308 34.4992C61.7081 35.8277 61.6853 37.1562 61.7081 38.4633C61.7308 39.7704 61.9129 40.6061 62.7548 41.5917C63.4602 42.4274 64.9165 42.8345 65.9405 43.2202C67.3058 43.7345 68.58 44.313 69.8543 45.0201C70.4004 45.3201 71.7202 46.4558 72.4028 46.3486C73.404 46.1772 73.6544 44.4844 73.7454 43.7559C74.1095 40.9703 74.0867 38.1205 73.9047 35.3349C73.8136 33.8992 73.1082 31.7565 73.4951 30.2994C73.6544 29.6994 74.0412 29.4851 74.519 30.0208C75.1107 30.6851 75.2472 32.2279 75.3837 33.0207C75.9071 35.8063 75.8843 38.6133 75.8843 41.4417C75.8843 42.556 76.567 43.1559 76.9993 44.1416C77.5682 45.4273 78.0233 46.7558 78.2963 48.1057C78.4556 48.8985 78.5694 49.6913 78.5466 50.5056C78.5466 50.9556 78.3191 51.6413 78.4784 52.0698C78.8197 52.8841 81.0042 52.4341 81.7323 52.4127C84.9862 52.3484 88.2174 52.1769 91.4714 52.1341C98.0475 52.0484 104.669 52.9698 111.109 54.1483C110.403 52.8841 109.766 51.577 109.038 50.3342ZM106.216 37.2634C106.74 37.3491 108.469 38.2276 108.765 37.6705C109.015 37.1776 107.764 35.4634 107.559 34.992C107.127 33.9207 107.013 32.7207 106.763 31.6065C106.603 30.8994 106.581 29.5066 106.171 28.8852C105.716 28.1781 104.669 28.5423 103.918 28.5638C102.644 28.6066 101.347 28.6066 100.073 28.5852C98.7757 28.5852 97.4787 28.5423 96.1816 28.5423C94.8618 28.5423 93.5421 28.3281 92.2223 28.3281C92.3588 28.778 92.9959 28.9923 93.3828 29.2066C93.9744 29.528 94.475 29.9137 94.9984 30.3422C96.2271 31.3279 97.4559 32.1422 98.4799 33.3207C99.4128 34.3921 100.71 35.5491 101.87 36.4062C102.485 36.8777 102.917 36.8348 103.668 36.8348C104.555 36.8562 105.329 37.1134 106.216 37.2634ZM109.402 34.8635C109.721 35.7848 109.743 36.0634 110.79 35.9991C112.133 35.9134 113.475 35.8277 114.818 35.742C117.89 35.5277 120.962 35.0992 124.034 34.9492C126.65 34.8206 129.472 34.5206 132.089 34.7778C133.295 34.9063 134.592 34.6706 135.843 34.7135C137.345 34.7778 138.847 34.7563 140.28 35.2063C141.464 35.5706 142.465 35.7634 143.33 36.7062C144.194 37.649 144.763 38.8276 145.355 39.9418C146.47 42.0846 147.334 44.8916 149.269 46.5201C149.769 46.9272 150.588 47.6343 151.317 47.5486C152.5 47.42 152.136 45.9629 152.022 45.213C151.681 42.706 150.634 40.5418 149.837 38.1419C149.61 37.4348 149.132 35.5277 150.361 35.2706C151.226 35.0777 152.591 36.8777 153.091 37.3705C154.184 38.4419 155.276 39.4704 156.505 40.4132C157.529 41.1846 158.53 42.0417 159.941 41.8703C159.281 40.1561 158.53 38.5061 157.438 37.0062C156.505 35.7206 154.912 34.542 154.32 33.0635C153.865 31.9493 154.275 30.428 155.64 31.4136C156.846 32.2707 157.87 33.3207 159.099 34.1564C160.714 35.2492 162.535 36.1705 164.446 36.7062C165.083 36.8777 166.198 37.2419 166.813 36.8134C167.723 36.1705 166.79 34.842 166.289 34.2421C161.533 28.7137 153.638 26.7424 146.424 26.3139C144.536 26.2067 142.601 26.3781 140.713 26.3996C138.915 26.421 137.254 26.6353 135.502 26.871C131.838 27.3852 128.152 27.7924 124.489 28.3066C123.51 28.4352 122.35 28.7137 121.371 28.6709C120.962 28.6495 120.757 28.5638 120.37 28.6495C120.029 28.7352 119.778 28.9066 119.392 28.9709C117.23 29.2923 115.023 29.4209 112.815 29.4637C111.769 29.4851 110.699 29.4637 109.652 29.3351C109.038 29.2494 108.401 29.0137 108.219 29.6994C108.082 30.2137 108.515 31.1993 108.674 31.7136C108.947 32.7421 109.038 33.8778 109.402 34.8635ZM70.1273 16.9929C70.4914 17.0143 71.1058 17.0571 71.2196 16.6286C71.4471 15.8143 70.2866 16.3072 70.0591 15.7929C69.8088 15.2144 70.628 15.0644 70.992 14.9787C71.7202 14.7858 71.5382 14.8287 71.5609 14.1001C71.5837 13.4359 71.8112 12.8359 72.0843 12.2359C72.4711 11.4003 72.4939 11.4431 71.6064 11.3574C70.1046 11.186 69.786 9.94319 69.2172 8.80753C68.8758 8.10042 68.489 7.41474 68.2842 6.66477C68.1477 6.21479 68.1704 5.48625 67.6926 5.22912C67.0555 4.88628 65.5536 5.25055 64.8937 5.31483C63.7788 5.46483 62.5728 5.61482 61.5033 5.97909C60.5703 6.27907 60.229 6.98618 59.3871 7.11475C58.841 7.20046 55.6098 7.00761 56.0421 7.929C56.3152 8.50754 57.5667 8.18613 58.0218 8.1647C58.6134 8.14327 59.3188 8.05756 59.9104 8.1647C60.5021 8.27184 60.5476 8.48611 60.7751 9.0218C60.229 9.00038 58.1811 8.70039 57.726 9.08609C57.3391 9.42893 57.6122 9.7932 58.0218 9.92176C58.7955 10.1575 59.8422 9.68606 60.6613 9.90034C61.253 10.0503 61.2075 10.0718 61.435 10.6074C61.5488 10.886 61.7081 11.186 61.7536 11.486C62.0494 13.2216 60.3655 11.8717 59.6601 11.486C58.3631 10.7789 56.9751 10.9074 57.2254 12.6002C57.3164 13.1573 57.635 13.6502 58.0445 14.0573C58.6362 14.6358 58.7727 14.743 58.7955 15.6001C58.8182 16.35 58.7272 17.1429 59.023 17.85C59.3188 18.6428 59.9787 19.307 60.5021 19.9713C61.1164 20.7855 61.7536 21.5784 62.3452 22.3926C62.5955 22.7355 62.9596 23.6354 63.4602 23.7426C63.9153 23.8497 64.6434 23.164 65.0303 22.9497C65.9632 22.4569 66.9872 22.1569 67.9429 21.7069C67.1465 21.0427 66.4411 20.2713 65.6447 19.607C65.0303 19.0713 64.7117 18.9856 64.9165 18.0857C65.3944 16.1358 68.58 16.95 70.1273 16.9929ZM58.0901 58.8409C55.5643 61.1551 51.8097 62.5907 48.3737 63.1693C44.8012 63.7693 40.7054 64.2192 37.2239 63.0622C33.6514 61.8622 30.3064 60.1266 27.28 57.9624C26.916 57.7053 22.7291 53.8697 22.3877 54.1697C23.6165 55.9268 24.9363 57.6196 26.2333 59.3123C26.8704 60.148 29.1004 63.0193 27.8261 64.0693C26.9842 64.7549 25.5279 63.6407 24.8225 63.2122C23.1387 62.1408 21.2728 61.5622 19.2248 61.5622C20.1578 63.1907 21.6141 64.6478 22.365 66.362C22.7291 67.1762 22.547 67.112 21.7279 66.8977C20.7039 66.6191 19.5434 66.2977 18.4739 66.2549C17.9733 66.2334 16.9721 66.4477 16.8811 67.0477C16.7901 67.6262 18.1098 68.7405 18.4967 69.1476C19.8392 70.6904 21.2273 72.1475 22.8884 73.3903C26.0968 75.7687 29.8968 77.3115 33.7652 78.4472C37.7245 79.6042 41.9341 79.9685 45.9845 79.0257C47.9869 78.5543 49.8301 77.9329 51.6277 76.9901C52.4469 76.5615 53.2888 76.3687 54.0852 75.8758C54.9044 75.3616 55.7236 74.8473 56.5427 74.3545C58.2493 73.326 59.2961 72.3189 60.5021 70.7761C60.9799 70.1547 61.6398 69.7047 62.0949 69.1047C62.5955 68.4405 63.1189 67.7548 63.574 67.0477C65.7357 63.8121 67.8519 60.3194 69.1034 56.6767C69.7633 54.7911 70.1956 52.8626 70.7417 50.9556C70.9238 50.2913 71.6292 49.0271 71.4699 48.3628C71.3334 47.72 70.2411 47.4629 69.7178 47.1843C68.1477 46.3915 66.5776 45.6844 65.053 44.8273C62.9368 43.6488 63.3237 46.0487 63.1871 47.4415C62.7775 51.5341 61.3212 55.8839 58.0901 58.8409ZM75.9298 60.4051C76.3849 60.7694 77.4999 60.9837 78.0688 60.8337C77.4999 60.0409 76.6352 59.5266 75.9071 58.9052C75.8161 59.3338 75.4747 60.0623 75.9298 60.4051ZM73.1992 88.411C74.2232 88.4753 75.2927 88.7752 76.3167 88.7752C77.2269 88.7752 78.3646 88.861 79.252 88.6681C81.6868 88.1538 80.2533 86.0968 79.3886 84.7469C78.9107 83.9969 78.3419 83.3326 77.8412 82.6041C77.7275 82.4327 77.3861 81.7041 77.1358 81.6827C76.749 81.6399 76.6352 82.2398 76.4532 82.6041C75.9526 83.5898 75.4975 84.5969 74.9286 85.5397C74.3597 86.5039 73.5633 87.361 73.1992 88.411ZM46.9402 102.939C46.7354 101.846 43.3222 102.96 42.5485 103.089C42.321 103.132 39.6587 103.432 39.6814 103.646C40.5688 103.71 47.2133 104.31 46.9402 102.939ZM0.565879 127.452C0.0425185 127.666 0.0652726 126.102 0.0425178 125.888C-0.00299186 125.459 -0.0712563 124.709 0.156292 124.345C0.315576 124.066 0.361086 124.216 0.452105 124.131C1.18026 123.552 0.292823 123.295 0.133539 122.845C0.0880295 122.695 0.0880274 122.309 0.156292 122.181C0.361085 121.838 0.42935 122.095 0.679653 121.945C0.861692 121.859 1.20301 122.095 1.08924 121.645C0.998222 121.281 0.702408 121.495 0.565879 121.388C-0.00299117 120.959 0.0652726 120.402 0.156292 119.717C0.247311 119.074 0.315577 118.367 0.52037 117.745C0.634144 117.424 0.770673 117.574 0.747918 117.188C0.747918 116.995 0.429351 116.803 0.406596 116.545C0.383841 116.245 0.70241 115.753 0.70241 115.431C0.725164 115.003 0.725163 114.638 0.679653 114.253C0.656898 114.017 0.588634 113.91 0.565879 113.631C0.543124 113.353 0.61139 113.031 0.634144 112.731C0.656899 111.896 0.770674 111.06 0.929958 110.267C1.02098 110.139 1.08924 110.01 1.13475 109.86C1.08924 109.71 1.04373 109.581 0.952711 109.431C0.929956 109.046 0.929956 108.681 0.952711 108.296C0.952711 107.589 0.816181 106.903 0.770671 106.196C0.747916 105.982 0.679655 105.639 0.816184 105.446C0.929958 105.296 1.33954 105.339 1.38505 105.189C1.52158 104.782 1.13475 105.017 1.04373 104.825C0.975467 104.653 1.02097 104.439 0.998219 104.267C0.975465 103.817 1.65811 100.775 2.24973 101.182C2.02219 101.032 2.47729 99.9819 2.63657 99.8105C3.20544 99.1462 3.52401 99.8962 3.9791 100.368C4.61624 101.01 5.16235 100.603 5.98153 100.453C7.00549 100.282 8.12048 100.346 9.14444 100.368C10.2139 100.389 11.2834 100.453 12.3301 100.539C13.4679 100.625 14.5601 100.946 15.7206 100.946C17.4272 100.925 19.1338 100.968 20.8404 100.903C21.1817 100.882 22.0009 100.925 22.1374 100.518C22.183 100.368 21.8871 100.046 21.8416 99.8747C21.7506 99.5533 21.7506 99.1248 21.8871 98.8034C22.3422 97.8391 23.2979 98.6319 23.9806 98.9748C24.9818 99.489 26.0513 99.939 27.1663 100.218C31.6262 101.353 36.8826 101.289 41.4335 100.753C46.0528 100.218 50.6265 98.9105 55.1319 97.8391C59.2506 96.8534 63.0506 94.6893 66.1908 92.0322C69.3992 89.3324 71.9477 85.5611 73.5406 81.7899C75.3155 77.59 74.0184 73.3474 73.9729 69.0619C73.9502 66.9191 73.4496 64.8192 73.313 62.6979C73.1765 60.6194 73.3585 58.6695 74.0184 56.6553C74.1777 56.141 74.428 55.6268 74.5418 55.0911C74.6556 54.5983 74.4508 54.2126 74.519 53.7412C74.6556 52.7555 75.8161 52.8626 76.3394 52.1127C76.7945 51.4484 76.3167 50.4199 76.1574 49.6913C75.8843 48.4486 75.5202 47.2272 75.2017 46.0058C74.8604 46.7343 74.5645 47.4629 74.3597 48.2343C74.3142 48.4271 74.3142 48.7914 74.155 48.9628C74.0412 49.0914 73.7909 49.07 73.6999 49.1985C73.4268 49.6056 73.4496 49.9913 73.4041 50.5056C73.313 51.4913 73.131 52.4769 72.9717 53.4626C72.3801 56.7624 71.9477 59.998 70.5825 63.105C68.0567 68.8262 64.6207 74.1616 59.5691 78.2329C57.2709 80.0757 54.3583 81.2113 51.5822 82.197C48.2827 83.3541 45.1198 83.9755 41.5701 83.6755C38.2251 83.3969 34.8574 82.4113 31.7855 81.147C28.7591 79.9042 25.9147 78.79 23.3435 76.7758C20.5901 74.6116 17.8368 72.0189 15.9254 69.1262C15.2427 68.0762 13.9912 65.912 14.3098 64.5835C14.6966 62.8907 17.45 64.005 18.4512 64.3478C17.6092 63.0622 15.3793 60.748 16.4943 59.1409C18.1326 56.7839 22.3877 59.1623 24.1171 60.0409C23.2069 58.3267 21.8416 56.8696 20.8632 55.1982C20.3853 54.3626 19.0428 50.977 20.9997 50.8056C21.5913 50.7413 22.2285 51.3841 22.6381 51.7055C23.4572 52.3269 24.2536 52.9483 25.0728 53.5912C26.8477 54.9625 28.6908 56.141 30.7388 57.1267C34.8119 59.1195 38.7257 60.1694 43.3449 59.7623C47.2815 59.398 51.6049 58.2838 54.6768 55.8411C56.52 54.384 57.9763 52.7555 58.9092 50.6556C59.956 48.32 60.6158 45.7701 61.344 43.3488C60.2063 43.0702 59.4326 43.2416 59.6374 41.9774C59.8877 40.4561 59.8422 38.9347 59.8422 37.3919C59.8649 34.1992 59.9332 30.9636 60.9799 27.8995C61.162 27.3638 61.344 26.7853 61.6626 26.2924C62.0722 25.6925 62.4362 25.6068 61.9129 24.9425C60.9117 23.6783 59.8877 22.5855 59.1595 21.1284C58.7727 20.3784 58.4314 19.6285 57.9535 18.9213C57.1799 17.7643 56.1559 16.9072 55.1774 15.9001C54.0397 14.743 53.1523 13.6502 52.5606 12.1717C52.2876 11.486 51.9235 10.7789 51.7642 10.0503C51.6049 9.1718 51.7642 8.27184 51.8552 7.41474C52.1283 4.52201 53.1523 2.16498 56.1787 1.05075C58.6362 0.12936 61.4578 -0.256337 64.0518 0.450773C67.1692 1.30788 68.6483 3.90061 70.1501 6.38621C70.5597 7.09332 70.8328 7.84329 71.1968 8.5504C71.5837 9.27894 71.9932 9.27894 72.6987 9.57892C74.1322 10.1575 73.9957 11.8717 73.3813 12.9859C72.5849 14.4001 72.7442 16.0501 72.0843 17.5286C71.4016 19.0499 70.3094 19.457 68.671 19.7999C69.2854 20.2713 69.8771 20.8713 70.6735 21.0855C71.6519 21.3212 72.8124 21.107 73.8136 21.107C75.8843 21.1284 78.0005 21.4069 79.9802 22.0283C81.9144 22.6497 83.6665 23.6354 85.4641 24.5139C86.2833 24.9211 87.0569 25.4996 87.9899 25.6067C88.9001 25.7139 89.833 25.4996 90.7432 25.6282C92.7684 25.8639 94.9756 25.5639 97.0236 25.521C99.2308 25.4782 101.461 25.4996 103.668 25.3496C104.624 25.2853 105.557 25.1996 106.512 25.2639C107.377 25.3282 107.9 25.1353 108.651 25.6925C109.152 26.0567 109.561 26.9781 110.13 27.1067C110.767 27.2352 111.996 26.871 112.611 26.7853C114.704 26.4853 116.797 26.0996 118.868 25.7353C119.847 25.5639 120.757 25.2639 121.735 25.0925C122.736 24.9211 123.806 24.8782 124.807 24.6639C126.423 24.3211 128.175 24.1925 129.859 23.9783C131.838 23.7211 133.864 23.1854 135.843 23.1212C144.172 22.8426 153.501 22.3712 160.896 26.721C162.626 27.7495 164.423 29.0566 165.743 30.5137C166.972 31.8636 168.474 33.6207 168.792 35.4206C169.065 37.0062 168.861 39.8132 166.608 39.8347C164.401 39.8561 162.125 38.6133 160.214 37.6919C161.033 39.5347 163.49 43.4559 161.351 45.2344C159.144 47.0772 155.071 43.0917 153.615 41.806C153.911 43.7559 155.959 50.8913 152.067 50.9984C148.267 51.1056 146.06 46.6915 144.695 44.0559C143.989 42.6631 143.443 41.0346 142.283 39.9204C141.122 38.7847 139.484 38.8276 137.914 38.6776C134.068 38.3347 130.246 38.3133 126.377 38.2276C121.485 38.1205 116.684 38.8704 111.769 38.4419C111.837 39.3418 111.473 40.9489 110.517 41.2917C109.106 41.7846 107.377 41.0775 105.943 41.0775C106.034 41.6131 106.854 42.1917 107.218 42.5988C107.832 43.3274 108.378 44.1202 108.879 44.9344C109.857 46.5201 110.904 48.1057 111.587 49.8413C111.928 50.6984 112.224 51.5984 112.474 52.4984C112.611 53.0126 112.611 53.784 112.906 54.234C113.27 54.7911 113.839 54.4697 114.294 54.9197C114.954 55.5625 114.272 55.9053 114.067 56.4625C113.839 57.0624 114.135 58.1124 114.044 58.7766C113.908 59.7837 113.771 60.7908 113.589 61.7979C113.27 63.6193 112.588 65.312 112.11 67.112C111.678 68.8047 112.861 70.6047 113.248 72.2332C113.703 74.1402 113.953 76.0473 114.431 77.9543C114.932 79.9471 115.159 82.0256 115.478 84.0398C115.819 86.0325 116.274 87.9824 116.615 89.9538C117.23 93.725 117.617 97.582 118.117 101.375C118.368 103.367 118.572 105.382 118.595 107.396C118.618 109.281 118.891 111.103 118.936 112.988C118.982 114.981 119.005 116.953 119.096 118.945C119.187 120.917 118.936 122.867 118.823 124.816C118.777 125.759 118.754 126.681 118.754 127.623C118.777 128.416 119.005 129.338 118.777 130.109C118.368 131.63 116.092 132.552 114.659 133.002C112.906 133.537 111.063 133.923 109.266 134.33C108.401 134.523 107.514 134.695 106.626 134.823C106.285 134.866 105.875 134.845 105.557 134.995C105.079 135.209 105.17 135.102 105.147 135.616C105.102 136.452 105.375 137.373 105.511 138.209C105.648 138.959 105.466 140.223 105.784 140.887C106.148 141.659 108.629 142.301 109.243 141.766C109.675 141.401 109.789 140.694 110.312 140.394C111.041 139.944 111.382 140.566 111.382 141.251C111.382 141.766 110.972 142.366 111.473 142.751C111.905 143.073 112.793 142.901 113.202 142.644C113.885 142.194 115.318 139.451 115.66 141.787C115.751 142.344 115.5 142.966 115.978 143.394C116.433 143.78 117.548 143.758 118.14 143.844C119.073 143.951 119.892 143.994 120.825 143.973C121.872 143.951 122.873 144.187 123.897 144.23C125.513 144.294 127.128 144.508 128.767 144.53C130.45 144.551 132.271 144.98 133.568 146.051C135.047 147.294 134.751 148.815 134.455 150.465C134.273 151.558 135.752 152.737 134.25 153.701C133.659 154.087 132.658 154.001 131.975 154.001C130.792 154.001 129.631 153.872 128.448 153.937C119.869 154.386 111.245 154.044 102.667 153.787C100.664 153.722 98.5709 153.808 96.5912 153.572C95.7038 153.465 94.8163 153.315 93.9289 153.229C93.178 153.144 92.2678 153.272 91.5396 153.037C89.742 152.458 91.6762 150.722 91.8127 149.715C92.0858 147.765 91.972 145.73 91.9947 143.758C92.0175 141.68 91.9947 139.601 91.9947 137.523C91.039 137.587 88.354 138.252 87.6031 137.48C86.9887 136.837 88.0354 135.509 88.0809 134.737C88.2857 131.609 88.2174 128.481 88.4677 125.374C88.718 122.159 88.6953 118.967 88.8091 115.731C88.9228 112.281 89.1731 108.853 89.1731 105.403C86.5108 108.06 83.9623 110.996 80.9814 113.353C79.7071 114.36 78.3191 115.238 76.9993 116.203C75.4975 117.274 74.1094 118.452 72.6304 119.545C69.8543 121.559 66.5776 122.717 63.6422 124.516C60.6841 126.316 57.5212 127.795 54.1307 128.695C50.3989 129.68 46.4623 130.002 42.6168 129.809C40.7736 129.723 38.9305 129.488 37.1101 129.188C36.3592 129.059 35.6083 128.888 34.8346 128.759C33.7652 128.588 33.2418 128.738 32.2406 128.931C30.9208 129.166 30.6022 127.366 30.1926 126.488C29.4645 124.881 29.1687 123.124 28.5088 121.474C27.3938 118.602 26.3698 115.753 25.3686 112.817C25.1411 112.153 25.0046 110.996 24.1626 110.91C23.5938 110.846 22.6153 111.446 22.0692 111.617C21.0907 111.896 20.1805 112.024 19.1793 112.046C18.3374 112.067 18.2236 112.367 17.7003 112.924C17.2224 113.438 16.335 113.738 16.4943 114.51C16.5853 114.96 17.1086 115.303 17.1996 115.817C17.541 117.638 15.6068 116.074 14.9242 115.667C14.5146 116.524 17.632 117.467 16.4943 118.688C15.9481 119.288 14.7876 118.388 14.2188 118.152C12.9217 117.617 12.7397 119.074 12.3756 120.038C11.7385 121.774 11.3289 123.616 10.8283 125.395C10.3732 127.109 9.98637 128.866 9.25822 130.516C8.59833 131.973 7.46059 132.937 6.64141 134.245C6.23183 134.887 5.79949 135.359 4.9348 135.402C4.34318 135.423 3.2737 135.209 2.70483 134.995C2.18147 134.802 1.6126 134.18 1.24852 133.816C0.747918 133.28 0.838936 132.787 0.429349 132.123C0.452104 132.445 0.520368 132.745 0.543123 133.066C-0.207786 132.509 0.543125 131.63 0.406596 130.923C0.361087 130.709 0.110783 130.516 0.110783 130.28C0.110783 130.195 0.315576 129.959 0.338331 129.83C0.361086 129.68 0.361085 129.209 0.315575 129.102C0.270065 129.016 -0.00299116 128.588 -0.00299116 128.673C-0.00299116 128.609 -0.116765 128.523 -0.0485001 128.331C0.133538 127.881 0.611389 127.838 0.565879 127.452Z" fill="black"/>
</svg>
