<svg width="34" height="31" viewBox="0 0 34 31" fill="none" xmlns="http://www.w3.org/2000/svg">
<path d="M27.0455 2.325C29.5955 2.325 31.6818 4.4175 31.6818 6.975V19.375C31.6818 21.9325 29.5955 24.025 27.0455 24.025H12.9818L7.72727 28.675V24.025H6.95455C4.40455 24.025 2.31818 21.9325 2.31818 19.375V6.975C2.31818 4.4175 4.40455 2.325 6.95455 2.325H27.0455ZM27.0455 0H6.95455C3.09091 0 0 3.1 0 6.975V19.375C0 22.7075 2.31818 25.4975 5.40909 26.195V28.675C5.40909 29.605 5.95 30.4575 6.8 30.7675C7.10909 30.9225 7.41818 31 7.72727 31C8.26818 31 8.80909 30.7675 9.27273 30.38L13.8318 26.35H27.0455C30.9091 26.35 34 23.25 34 19.375V6.975C34 3.1 30.9091 0 27.0455 0Z" fill="#1B3355"/>
<path d="M17 15C17.5523 15 18 14.3284 18 13.5C18 12.6716 17.5523 12 17 12C16.4477 12 16 12.6716 16 13.5C16 14.3284 16.4477 15 17 15Z" fill="#1B3355"/>
<path d="M25 15C25.5523 15 26 14.3284 26 13.5C26 12.6716 25.5523 12 25 12C24.4477 12 24 12.6716 24 13.5C24 14.3284 24.4477 15 25 15Z" fill="#1B3355"/>
<path d="M9 15C9.55228 15 10 14.3284 10 13.5C10 12.6716 9.55228 12 9 12C8.44772 12 8 12.6716 8 13.5C8 14.3284 8.44772 15 9 15Z" fill="#1B3355"/>
</svg>
