<svg width="12" height="17" viewBox="0 0 12 17" fill="none" xmlns="http://www.w3.org/2000/svg">
<path d="M0.19742 9.22396L10.3445 16.9048C10.4157 16.958 10.5004 16.9903 10.5889 16.9981C10.6774 17.006 10.7664 16.989 10.846 16.9492C10.9252 16.9101 10.9919 16.8494 11.0385 16.7742C11.0851 16.699 11.1096 16.6123 11.1094 16.5239L11.1094 1.16202C11.1093 1.0736 11.0845 0.987028 11.038 0.911964C10.9915 0.836786 10.9249 0.776115 10.846 0.736628C10.7797 0.704277 10.707 0.686893 10.6333 0.685856C10.529 0.687008 10.4277 0.721544 10.3445 0.784286L0.187693 8.46539C0.072336 8.55162 0.0031469 8.68632 0.000496625 8.83034C-0.00272681 8.98588 0.0708387 9.13311 0.197249 9.22395L0.19742 9.22396ZM10.1573 2.12052L10.1573 15.5685L1.27022 8.83021L10.1573 2.12052Z" fill="white"/>
</svg>
