<svg width="15" height="17" viewBox="0 0 15 17" fill="none" xmlns="http://www.w3.org/2000/svg">
<path d="M3.61929 8.64681L13.7663 16.3276C13.8376 16.3808 13.9222 16.4132 14.0108 16.421C14.0993 16.4288 14.1883 16.4119 14.2678 16.3721C14.347 16.3329 14.4138 16.2722 14.4603 16.1971C14.507 16.1219 14.5315 16.0352 14.5312 15.9468L14.5312 0.584873C14.5311 0.496455 14.5064 0.40988 14.4599 0.334816C14.4134 0.259638 14.3468 0.198967 14.2678 0.159479C14.2015 0.127129 14.1289 0.109745 14.0552 0.108707C13.9509 0.109859 13.8496 0.144396 13.7663 0.207138L3.60957 7.88824C3.49421 7.97447 3.42502 8.10917 3.42237 8.2532C3.41915 8.40873 3.49271 8.55596 3.61912 8.6468L3.61929 8.64681ZM13.5792 1.54337L13.5792 14.9913L4.69209 8.25306L13.5792 1.54337Z" fill="white"/>
<path d="M0.476956 16.5049C0.603251 16.5049 0.72436 16.4547 0.813705 16.3655C0.902927 16.2761 0.953125 16.155 0.953125 16.0288L0.953126 0.476242C0.953126 0.3062 0.862407 0.149038 0.715045 0.0639801C0.567799 -0.0210972 0.386253 -0.0210972 0.239009 0.06398C0.0916477 0.149057 0.000928209 0.306209 0.000928194 0.476242L0.000926834 16.0288C0.000926823 16.155 0.051122 16.2761 0.140346 16.3655C0.229683 16.4547 0.350796 16.5049 0.476979 16.5049L0.476956 16.5049Z" fill="white"/>
</svg>
