<svg width="12" height="17" viewBox="0 0 12 17" fill="none" xmlns="http://www.w3.org/2000/svg">
<path d="M10.912 7.77604L0.764902 0.0952337C0.693637 0.0420449 0.609019 0.00969594 0.520487 0.00186512C0.431955 -0.0059657 0.342963 0.01096 0.263408 0.0507952C0.184201 0.0899375 0.117428 0.150609 0.070918 0.225788C0.0242927 0.300966 -0.000231189 0.387656 1.64258e-06 0.476073L1.64258e-06 15.838C0.000116762 15.9264 0.0248689 16.013 0.0713808 16.088C0.117891 16.1632 0.184434 16.2239 0.263411 16.2634C0.329724 16.2957 0.402368 16.3131 0.476049 16.3141C0.580355 16.313 0.681666 16.2785 0.764902 16.2157L10.9217 8.53461C11.037 8.44838 11.1062 8.31368 11.1089 8.16965C11.1121 8.01412 11.0385 7.86689 10.9121 7.77605L10.912 7.77604ZM0.952052 14.8795L0.952052 1.43151L9.83916 8.16979L0.952052 14.8795Z" fill="white"/>
</svg>
