<svg width="15" height="17" viewBox="0 0 15 17" fill="none" xmlns="http://www.w3.org/2000/svg">
<path d="M10.912 7.85807L0.764902 0.177265C0.693637 0.124076 0.609019 0.0917272 0.520487 0.0838964C0.431955 0.0760655 0.342963 0.0929913 0.263408 0.132826C0.184201 0.171969 0.117428 0.232641 0.070918 0.307819C0.0242927 0.382997 -0.000231189 0.469687 1.64258e-06 0.558105V15.92C0.000116762 16.0084 0.0248689 16.095 0.0713808 16.1701C0.117891 16.2452 0.184434 16.3059 0.263411 16.3454C0.329724 16.3778 0.402368 16.3951 0.476049 16.3962C0.580355 16.395 0.681666 16.3605 0.764902 16.2977L10.9217 8.61664C11.037 8.53041 11.1062 8.39571 11.1089 8.25169C11.1121 8.09615 11.0385 7.94892 10.9121 7.85808L10.912 7.85807ZM0.952052 14.9615V1.51354L9.83916 8.25182L0.952052 14.9615Z" fill="white"/>
<path d="M14.0543 0C13.928 0 13.8069 0.0501945 13.7175 0.139419C13.6283 0.228756 13.5781 0.34987 13.5781 0.476053V16.0286C13.5781 16.1987 13.6688 16.3558 13.8162 16.4409C13.9635 16.526 14.145 16.526 14.2922 16.4409C14.4396 16.3558 14.5303 16.1987 14.5303 16.0286V0.476053C14.5303 0.349876 14.4801 0.228762 14.3909 0.139419C14.3016 0.0501974 14.1805 0 14.0543 0L14.0543 0Z" fill="white"/>
</svg>
