<svg width="86" height="53" viewBox="0 0 86 53" fill="none" xmlns="http://www.w3.org/2000/svg">
<path fill-rule="evenodd" clip-rule="evenodd" d="M0 26.5C0 26.5 16.125 0 43 0C69.875 0 86 26.5 86 26.5C86 26.5 69.875 53 43 53C16.125 53 0 26.5 0 26.5ZM43 43.3636C47.9894 43.3636 52.7744 41.5869 56.3024 38.4244C59.8305 35.2618 61.8125 30.9725 61.8125 26.5C61.8125 22.0275 59.8305 17.7382 56.3024 14.5756C52.7744 11.4131 47.9894 9.63636 43 9.63636C38.0106 9.63636 33.2256 11.4131 29.6976 14.5756C26.1695 17.7382 24.1875 22.0275 24.1875 26.5C24.1875 30.9725 26.1695 35.2618 29.6976 38.4244C33.2256 41.5869 38.0106 43.3636 43 43.3636V43.3636Z" fill="#A5A5A5"/>
</svg>
