<svg width="115" height="109" viewBox="0 0 115 109" fill="none" xmlns="http://www.w3.org/2000/svg">
<path d="M2 106.618H113" stroke="#929292" stroke-width="2.763" stroke-linecap="round" stroke-linejoin="round"/>
<path fill-rule="evenodd" clip-rule="evenodd" d="M66.2636 46.7354H54.5769C49.7404 46.7354 45.8174 50.6584 45.8174 55.5012V87.6309C45.8174 92.4705 49.7404 96.3936 54.5769 96.3936H66.2636C71.1032 96.3936 75.0262 92.4705 75.0262 87.6309V55.5012C75.0262 50.6584 71.1032 46.7354 66.2636 46.7354V46.7354ZM54.5775 87.6299H66.2642V55.5001H54.5775V87.6299Z" fill="#929292"/>
<path fill-rule="evenodd" clip-rule="evenodd" d="M101.317 26.2881H89.6303C84.7939 26.2881 80.8677 30.2111 80.8677 35.0507V87.6299C80.8677 92.4695 84.7939 96.3925 89.6303 96.3925H101.317C106.157 96.3925 110.08 92.4695 110.08 87.6299V35.0507C110.08 30.2111 106.157 26.2881 101.317 26.2881V26.2881ZM89.6308 87.629H101.318V35.0499H89.6308V87.629Z" fill="#929292"/>
<mask id="mask0_418_15" style="mask-type:alpha" maskUnits="userSpaceOnUse" x="10" y="0" width="30" height="97">
<path fill-rule="evenodd" clip-rule="evenodd" d="M10.7651 0H39.974V96.3968H10.7651V0Z" fill="white"/>
</mask>
<g mask="url(#mask0_418_15)">
<path fill-rule="evenodd" clip-rule="evenodd" d="M31.2113 -0.00292969H19.5278C14.6882 -0.00292969 10.7651 3.92013 10.7651 8.7629V87.63C10.7651 92.4696 14.6882 96.3958 19.5278 96.3958H31.2113C36.0509 96.3958 39.974 92.4696 39.974 87.63V8.7629C39.974 3.92013 36.0509 -0.00292969 31.2113 -0.00292969V-0.00292969ZM19.5284 87.6289H31.2119V8.76186H19.5284V87.6289Z" fill="#929292"/>
</g>
</svg>
