<svg width="36" height="35" viewBox="0 0 36 35" fill="none" xmlns="http://www.w3.org/2000/svg">
<path fill-rule="evenodd" clip-rule="evenodd" d="M17.5312 11C13.9473 11 11.0312 13.9161 11.0312 17.5C11.0312 21.0839 13.9473 24 17.5312 24C21.1152 24 24.0312 21.0839 24.0312 17.5C24.0312 13.9161 21.1152 11 17.5312 11M17.5312 13.4375C19.7746 13.4375 21.5938 15.2567 21.5938 17.5C21.5938 19.7433 19.7746 21.5625 17.5312 21.5625C15.2879 21.5625 13.4688 19.7433 13.4688 17.5C13.4688 15.2567 15.2879 13.4375 17.5312 13.4375" fill="#929292"/>
<path fill-rule="evenodd" clip-rule="evenodd" d="M19.9176 0H15.1449C13.8268 0 12.7585 1.0683 12.7585 2.38636V4.85227C12.4905 4.9533 12.2248 5.06386 11.9631 5.18239L10.2194 3.43795C9.7533 2.97261 9.14239 2.73955 8.53227 2.73955C7.92057 2.73875 7.31045 2.97182 6.84432 3.43795L3.4692 6.81307C2.53773 7.74455 2.53773 9.25591 3.4692 10.1882L5.21364 11.9318C5.09511 12.1935 4.98455 12.4592 4.88352 12.7273H2.41761C1.09955 12.7273 0.03125 13.7956 0.03125 15.1136V19.8864C0.03125 21.2044 1.09955 22.2727 2.41761 22.2727H4.88352C4.98455 22.5408 5.09511 22.8065 5.21364 23.0682L3.4692 24.8118C2.53773 25.7441 2.53773 27.2555 3.4692 28.1869L6.84432 31.562C7.31045 32.0282 7.92057 32.2605 8.53227 32.2605C9.14239 32.2605 9.7533 32.0282 10.2194 31.562L11.9631 29.8176C12.2248 29.9361 12.4905 30.0467 12.7585 30.1477V32.6136C12.7585 33.9317 13.8268 35 15.1449 35H19.9176C21.2357 35 22.304 33.9317 22.304 32.6136V30.1477C22.572 30.0467 22.8377 29.9361 23.0994 29.8176L24.8431 31.562C25.3092 32.0282 25.9201 32.2605 26.5302 32.2605C27.1419 32.2605 27.752 32.0282 28.2182 31.562L31.5933 28.1869C32.5248 27.2555 32.5248 25.7441 31.5933 24.8118L29.8489 23.0682C29.9674 22.8065 30.078 22.5408 30.179 22.2727H32.6449C33.963 22.2727 35.0312 21.2044 35.0312 19.8864V15.1136C35.0312 13.7956 33.963 12.7273 32.6449 12.7273H30.179C30.078 12.4592 29.9674 12.1935 29.8489 11.9318L31.5933 10.1882C32.5248 9.25591 32.5248 7.74455 31.5933 6.81307L28.2182 3.43795C27.752 2.97182 27.1419 2.73955 26.5302 2.73955C25.9201 2.73955 25.3092 2.97182 24.8431 3.43795L23.0994 5.18239C22.8377 5.06386 22.572 4.9533 22.304 4.85227V2.38636C22.304 1.0683 21.2357 0 19.9176 0M19.9176 2.38636V6.62614C21.223 6.9117 22.4392 7.42795 23.5298 8.12716L26.5302 5.12591L29.9053 8.50102L26.9041 11.5015C27.6033 12.592 28.1195 13.8083 28.4051 15.1136H32.6449V19.8864H28.4051C28.1195 21.1917 27.6033 22.408 26.9041 23.4985L29.9053 26.499L26.5302 29.8741L23.5298 26.8728C22.4392 27.572 21.223 28.0883 19.9176 28.3739V32.6136H15.1449V28.3739C13.8395 28.0883 12.6233 27.572 11.5327 26.8728L8.53227 29.8741L5.15716 26.499L8.15841 23.4985C7.4592 22.408 6.94295 21.1917 6.65739 19.8864H2.41761V15.1136H6.65739C6.94295 13.8083 7.4592 12.592 8.15841 11.5015L5.15716 8.50102L8.53227 5.12591L11.5327 8.12716C12.6233 7.42795 13.8395 6.9117 15.1449 6.62614V2.38636H19.9176" fill="#929292"/>
</svg>
