<svg width="35" height="33" viewBox="0 0 35 33" fill="none" xmlns="http://www.w3.org/2000/svg">
<path d="M34.2324 13.4L19.1324 0.6C18.7324 0.2 18.1324 0 17.5324 0C16.9324 0 16.4324 0.2 15.9324 0.6L0.832415 13.4C0.0324147 14.1 -0.167585 15.1 0.132415 16.1C0.432415 17 1.33241 17.6 2.23241 17.7V30.5C2.23241 31.8 3.33241 32.9 4.63241 32.9H15.0324H16.6324H19.8324H30.2324C31.5324 32.9 32.6324 31.8 32.6324 30.5V17.6C33.6324 17.6 34.4324 16.9 34.7324 16C35.2324 15.1 34.9324 14 34.2324 13.4ZM16.7324 30.4H15.1324V23.2H19.9324V30.4H16.7324ZM30.3324 15.2V30.4H22.3324V23.2C22.3324 21.9 21.2324 20.8 19.9324 20.8H15.1324C13.8324 20.8 12.7324 21.9 12.7324 23.2V30.4H4.73241V15.2H2.43241L17.5324 2.4L32.6324 15.2H30.3324V15.2Z" fill="#929292"/>
</svg>
