<svg width="36" height="35" viewBox="0 0 36 35" fill="none" xmlns="http://www.w3.org/2000/svg">
<path d="M17.1214 2.44186L22.0051 13.0233H32.5865L25.2609 20.3488L26.8888 31.7442L17.1214 25.0698L7.35394 31.7442L9.7958 20.3488L2.47021 13.0233H12.2377L17.1214 2.44186ZM17.1214 0C16.1446 0 15.3307 0.569768 14.9237 1.38372L10.6911 10.5814H2.47021C1.49347 10.5814 0.598122 11.1512 0.191145 12.1279C-0.134436 13.0233 0.0283544 14.0814 0.760913 14.7326L7.10975 21.1628L4.99347 31.2558C4.74928 32.2326 5.15626 33.2093 6.05161 33.7791C6.37719 34.0233 6.86556 34.186 7.35394 34.186C7.84231 34.186 8.33068 34.0233 8.73766 33.7791L17.1214 28.0814L25.5051 33.7791C25.9121 34.0233 26.4004 34.186 26.8888 34.186C27.2958 34.186 27.7842 34.0233 28.1911 33.7791C29.0051 33.2907 29.4935 32.314 29.3307 31.3372L27.8656 21.1628L34.2958 14.7326C35.0284 14 35.1911 13.0233 34.8656 12.0465C34.4586 11.1512 33.5632 10.5814 32.5865 10.5814H23.5516L19.3191 1.38372C18.9121 0.569768 18.0981 0 17.1214 0Z" fill="#929292"/>
</svg>
