<svg width="39" height="35" viewBox="0 0 39 35" fill="none" xmlns="http://www.w3.org/2000/svg">
<path d="M2.03125 33.6187H37.0312" stroke="#929292" stroke-width="2.763" stroke-linecap="round" stroke-linejoin="round"/>
<path fill-rule="evenodd" clip-rule="evenodd" d="M22.2945 14.7368H18.6095C17.0845 14.7368 15.8475 15.9738 15.8475 17.5008V27.6318C15.8475 29.1578 17.0845 30.3948 18.6095 30.3948H22.2945C23.8205 30.3948 25.0575 29.1578 25.0575 27.6318V17.5008C25.0575 15.9738 23.8205 14.7368 22.2945 14.7368V14.7368ZM18.6095 27.6318H22.2945V17.5008H18.6095V27.6318Z" fill="#929292"/>
<path fill-rule="evenodd" clip-rule="evenodd" d="M33.3472 8.28955H29.6622C28.1372 8.28955 26.8992 9.52655 26.8992 11.0526V27.6315C26.8992 29.1575 28.1372 30.3946 29.6622 30.3946H33.3472C34.8732 30.3946 36.1102 29.1575 36.1102 27.6315V11.0526C36.1102 9.52655 34.8732 8.28955 33.3472 8.28955V8.28955ZM29.6622 27.6316H33.3472V11.0526H29.6622V27.6316Z" fill="#929292"/>
<mask id="mask0_405_50" style="mask-type:alpha" maskUnits="userSpaceOnUse" x="4" y="0" width="11" height="31">
<path fill-rule="evenodd" clip-rule="evenodd" d="M4.79474 0H14.0047V30.3954H4.79474V0Z" fill="white"/>
</mask>
<g mask="url(#mask0_405_50)">
<path fill-rule="evenodd" clip-rule="evenodd" d="M11.2417 -0.000488281H7.55774C6.03174 -0.000488281 4.79474 1.23651 4.79474 2.76351V27.6315C4.79474 29.1575 6.03174 30.3955 7.55774 30.3955H11.2417C12.7677 30.3955 14.0047 29.1575 14.0047 27.6315V2.76351C14.0047 1.23651 12.7677 -0.000488281 11.2417 -0.000488281V-0.000488281ZM7.55774 27.6315H11.2417V2.76351H7.55774V27.6315Z" fill="#929292"/>
</g>
</svg>
