<svg width="34" height="33" viewBox="0 0 34 33" fill="none" xmlns="http://www.w3.org/2000/svg">
<path d="M11.7822 22.2775C14.6295 22.279 17.361 21.1653 19.3774 19.1801L21.4204 21.1934L20.3538 22.2502C20.1487 22.4572 20.0339 22.7352 20.0339 23.0244C20.0339 23.3139 20.1487 23.5919 20.3538 23.7989L27.737 31.1083C28.5157 31.8774 29.6508 32.1777 30.7148 31.8962C31.7788 31.6148 32.6098 30.7942 32.8949 29.7437C33.1799 28.6931 32.8758 27.5723 32.0969 26.8032L24.7137 19.5132C24.5042 19.3109 24.2227 19.1976 23.9295 19.1976C23.6364 19.1976 23.3548 19.3109 23.1454 19.5132L22.2514 20.3727L20.1655 18.3132C21.6984 16.4343 22.539 14.0967 22.5496 11.6839C22.5599 9.27111 21.7394 6.92666 20.2227 5.03524C18.7059 3.1436 16.583 1.81702 14.202 1.27356C11.8214 0.7299 9.32405 1.00162 7.12053 2.0437C4.91679 3.086 3.13721 4.83686 2.07367 7.00907C1.01036 9.18133 0.726376 11.6461 1.26849 13.9989C1.81056 16.3514 3.1464 18.4522 5.05679 19.9564C6.96735 21.4606 9.33858 22.2792 11.7822 22.2775ZM23.9371 20.3726L31.2653 27.6238C31.7473 28.0997 31.9355 28.7931 31.7591 29.443C31.5828 30.0931 31.0686 30.6006 30.4103 30.7748C29.7519 30.9491 29.0497 30.7633 28.5676 30.2874L21.2237 23.0517L23.9371 20.3726ZM11.7822 2.14566C14.33 2.14566 16.7734 3.14493 18.5748 4.92365C20.3765 6.70236 21.3885 9.11499 21.3885 11.6305C21.3885 14.1459 20.3765 16.5586 18.5748 18.3378C16.7733 20.1165 14.3299 21.1158 11.7822 21.1158C9.23448 21.1158 6.79106 20.1165 4.98965 18.3378C3.18819 16.5589 2.17592 14.1463 2.17592 11.6305C2.17921 9.11598 3.19212 6.70508 4.99319 4.92697C6.79397 3.14892 9.23532 2.14871 11.7822 2.14566Z" fill="white" stroke="white" stroke-width="0.5"/>
</svg>
