<svg width="33" height="43" viewBox="0 0 33 43" fill="none" xmlns="http://www.w3.org/2000/svg">
<path d="M32.1321 41.2585L32.1462 41.2592V41.1017V15.0338C32.1516 14.9797 32.1513 14.9254 32.1452 14.8714L32.1458 14.8713L32.1433 14.8589C32.1305 14.7945 32.1102 14.7312 32.0821 14.6709V14.6667V14.6271L32.0625 14.5927C32.0238 14.5245 31.9766 14.4613 31.9218 14.4047L31.9202 14.4031L18.6362 1.11911L18.5923 1.07517H18.5834C18.5266 1.0316 18.4649 0.994709 18.3998 0.965376L18.3704 0.952121H18.3458C18.2903 0.915866 18.2309 0.886017 18.1687 0.863098L18.1516 0.856798L18.1335 0.854774C18.0795 0.848735 18.0251 0.848425 17.9711 0.853845H1.73803C1.24758 0.853845 0.85 1.25142 0.85 1.74188V41.1016C0.85 41.5921 1.24758 41.9897 1.73803 41.9897H31.2579C31.6948 41.9897 32.058 41.6742 32.1321 41.2585ZM18.8622 14.1372V3.88475L29.1146 14.1372H18.8622ZM2.62633 40.213V2.62912H17.0862V15.0252C17.0862 15.5156 17.4838 15.9132 17.9743 15.9132H30.3703V40.213L2.62633 40.213Z" fill="white" stroke="white" stroke-width="0.3"/>
<path fill-rule="evenodd" clip-rule="evenodd" d="M16.5333 35.6327C16.5333 35.9088 16.7571 36.1327 17.0333 36.1327C17.3094 36.1327 17.5333 35.9088 17.5333 35.6327V29.9327H23.2333C23.5094 29.9327 23.7333 29.7088 23.7333 29.4327C23.7333 29.1565 23.5094 28.9327 23.2333 28.9327H17.5333L17.5333 22.166C17.5333 21.8899 17.3094 21.666 17.0333 21.666C16.7571 21.666 16.5333 21.8899 16.5333 22.166L16.5333 28.9327H9.7666C9.49046 28.9327 9.2666 29.1565 9.2666 29.4327C9.2666 29.7088 9.49046 29.9327 9.7666 29.9327H16.5333V35.6327Z" fill="white"/>
</svg>
