<svg width="31" height="36" viewBox="0 0 31 36" fill="none" xmlns="http://www.w3.org/2000/svg">
<path d="M10.7255 8.40575V27.7063C10.7255 28.1611 11.094 28.5296 11.5488 28.5296C12.0034 28.5296 12.3719 28.161 12.3719 27.7063V8.40575C12.3719 7.95123 12.0035 7.58242 11.5488 7.58242C11.0939 7.58242 10.7255 7.9512 10.7255 8.40575Z" fill="white" stroke="white" stroke-width="0.3"/>
<path d="M19.7011 8.40575V27.7063C19.7011 28.1611 20.0699 28.5296 20.5244 28.5296C20.9789 28.5296 21.3477 28.1611 21.3477 27.7063V8.40575C21.3477 7.95116 20.979 7.58242 20.5244 7.58242C20.0698 7.58242 19.7011 7.95117 19.7011 8.40575Z" fill="white" stroke="white" stroke-width="0.3"/>
<path d="M10.7291 6.23613H1.67332C1.2185 6.23613 0.85 6.60463 0.85 7.05945C0.85 7.51407 1.21854 7.88253 1.67332 7.88253H3.99197V31.0724C3.99197 32.3026 4.48053 33.4823 5.35052 34.3523C6.22028 35.222 7.40018 35.7108 8.63041 35.7108H23.4423C24.6725 35.7108 25.8522 35.222 26.7222 34.3523L26.7222 34.3522C27.5919 33.4823 28.0807 32.3026 28.0807 31.0724V7.88253H29.5016C29.9564 7.88253 30.3249 7.51406 30.3249 7.05945C30.3249 6.60462 29.9564 6.23613 29.5016 6.23613H21.3436C21.346 6.21252 21.3475 6.18879 21.348 6.16499L21.3481 6.16499V6.16168C21.3481 4.26408 20.3357 2.51038 18.6921 1.56167C17.0488 0.612772 15.0239 0.612782 13.3803 1.56167C11.737 2.51039 10.7246 4.26408 10.7246 6.16168H10.7246L10.7246 6.16499C10.7252 6.1888 10.7267 6.21253 10.7291 6.23613ZM19.7016 6.16499C19.7022 6.1888 19.7036 6.21252 19.7061 6.23613H12.3712V6.16168C12.3712 4.85223 13.07 3.64236 14.2039 2.98761C15.338 2.33287 16.735 2.33287 17.8692 2.98761C19.0031 3.64234 19.7016 4.8522 19.7016 6.16168H19.7016L19.7016 6.16499ZM11.5482 7.88255H26.4347V31.0724C26.4347 31.8657 26.1193 32.6268 25.5582 33.1879C24.9971 33.749 24.2361 34.0644 23.4427 34.0644H8.63084C7.83723 34.0644 7.07621 33.7489 6.51512 33.1879C5.95406 32.6268 5.63887 31.8658 5.63887 31.0724V7.88255H11.5482Z" fill="white" stroke="white" stroke-width="0.3"/>
</svg>
