<svg width="47" height="47" viewBox="0 0 47 47" fill="none" xmlns="http://www.w3.org/2000/svg">
<path d="M45.0784 4.43051V4.42129H44.9284H2.07156C1.63509 4.42129 1.23196 4.65398 1.0137 5.03205L45.0784 4.43051ZM45.0784 4.43051C45.4558 4.47711 45.7933 4.69775 45.9863 5.03206L45.0784 4.43051Z" fill="white" stroke="white" stroke-width="0.3"/>
<path d="M1.0137 22.8892L1.01368 22.8893C0.795439 23.2673 0.795445 23.7327 1.01367 24.1108L1.0137 24.1109C1.23195 24.4887 1.63505 24.7214 2.07156 24.7214H44.9284C45.3649 24.7214 45.768 24.4887 45.9863 24.1109L45.9863 24.1109C46.2046 23.7328 46.2046 23.2674 45.9863 22.8893L45.9863 22.8892C45.768 22.5114 45.3649 22.2787 44.9284 22.2787H2.07156C1.63508 22.2787 1.23195 22.5114 1.0137 22.8892Z" fill="white" stroke="white" stroke-width="0.3"/>
<path d="M45.9863 40.7469L45.9863 40.7469C46.2046 41.1248 46.2046 41.5904 45.9863 41.9683C45.7681 42.3464 45.3649 42.5791 44.9284 42.5791H2.07156C1.63505 42.5791 1.23195 42.3464 1.0137 41.9683L45.9863 40.7469ZM45.9863 40.7469C45.7681 40.3692 45.365 40.1361 44.9284 40.1361H2.07156M45.9863 40.7469L2.07156 40.1361M2.07156 40.1361C1.63501 40.1361 1.23192 40.3692 1.0137 40.7469M2.07156 40.1361L1.0137 40.7469M1.0137 40.7469C0.795438 41.1247 0.795436 41.5904 1.01368 41.9683L1.0137 40.7469Z" fill="white" stroke="white" stroke-width="0.3"/>
<path d="M42.5695 45.0784L42.5787 45.0784L42.5787 44.9284L42.5787 2.07156C42.5787 1.63509 42.346 1.23196 41.9679 1.0137L42.5695 45.0784ZM42.5695 45.0784C42.5229 45.4558 42.3022 45.7933 41.9679 45.9863L42.5695 45.0784Z" fill="white" stroke="white" stroke-width="0.3"/>
<path d="M24.1108 1.0137L24.1107 1.01368C23.7327 0.795439 23.2673 0.795445 22.8892 1.01367L22.8891 1.0137C22.5113 1.23195 22.2786 1.63505 22.2786 2.07156L22.2786 44.9284C22.2786 45.3649 22.5113 45.768 22.8891 45.9863L22.8891 45.9863C23.2672 46.2046 23.7326 46.2046 24.1107 45.9863L24.1108 45.9863C24.4886 45.768 24.7213 45.3649 24.7213 44.9284L24.7213 2.07156C24.7213 1.63508 24.4886 1.23195 24.1108 1.0137Z" fill="white" stroke="white" stroke-width="0.3"/>
<path d="M6.25456 45.9863L6.25455 45.9863C5.8767 46.2046 5.41102 46.2046 5.03319 45.9863C4.65509 45.7681 4.42238 45.3649 4.42238 44.9284L4.42238 2.07156C4.42238 1.63505 4.65508 1.23195 5.03315 1.0137L6.25456 45.9863ZM6.25456 45.9863C6.6323 45.7681 6.86533 45.365 6.86533 44.9284L6.86533 2.07156M6.25456 45.9863L6.86533 2.07156M6.86533 2.07156C6.86533 1.63501 6.63231 1.23192 6.25456 1.0137M6.86533 2.07156L6.25456 1.0137M6.25456 1.0137C5.87674 0.795438 5.41105 0.795436 5.03319 1.01368L6.25456 1.0137Z" fill="white" stroke="white" stroke-width="0.3"/>
</svg>
