<svg width="34" height="29" viewBox="0 0 34 29" fill="none" xmlns="http://www.w3.org/2000/svg">
<path d="M33.1359 16.5656H33.1359C33.1359 16.7852 33.0485 16.9958 32.8933 17.151C32.738 17.3063 32.5275 17.3935 32.3079 17.3935H20.5157H20.5155V17.2435C20.2406 17.2452 19.992 17.0806 19.886 16.827L33.1359 16.5656ZM33.1359 16.5656V4.75549V4.75528M33.1359 16.5656V4.75528M33.1359 4.75528C33.1354 4.42067 32.9337 4.11913 32.6246 3.99106L32.6245 3.99103M33.1359 4.75528L32.6245 3.99103M32.6245 3.99103C32.3154 3.86315 31.9596 3.93376 31.7227 4.1702L31.7226 4.17029M32.6245 3.99103L31.7226 4.17029M31.7226 4.17029L28.6623 7.23066M31.7226 4.17029L28.6623 7.23066M28.6623 7.23066C26.8651 5.52884 23.7355 3.00217 19.9085 1.69837L28.6623 7.23066ZM19.9256 15.9805C19.6885 16.2181 19.6181 16.5753 19.7476 16.8849L19.9083 1.69831C14.9548 0.00444174 10.4118 0.850687 6.42582 4.20667C6.15585 4.4326 6.05844 4.80466 6.1826 5.13393L6.18264 5.13401C6.30681 5.46269 6.62482 5.67739 6.97607 5.66928C11.663 5.66955 15.0272 6.72462 17.5595 8.12344C20.0821 9.51689 21.7864 11.2549 23.1592 12.6549L23.1789 12.6751L23.18 12.6761L23.205 12.7011L19.9257 15.9804L19.9256 15.9805ZM31.4759 6.75747L31.4799 15.7377H22.5006L24.9564 13.282L25.2124 13.0259H25.129C25.2589 12.7237 25.2016 12.3604 24.9569 12.1123L24.9554 12.1107L24.3518 11.5162C24.3515 11.5159 24.3511 11.5155 24.3508 11.5152C21.8488 8.95536 17.7838 4.79864 9.40243 4.11117C13.3448 1.79242 17.315 2.32555 20.6416 3.76819C24.0744 5.25689 26.8062 7.7088 28.0755 8.96547L28.0837 8.97382C28.2385 9.13038 28.4494 9.2186 28.6696 9.2186C28.8896 9.2186 29.1003 9.13056 29.255 8.9743C29.2551 8.97414 29.2553 8.97398 29.2554 8.97382L31.4759 6.75747Z" fill="white" stroke="white" stroke-width="0.3"/>
<path d="M14.4065 11.9663C14.255 11.7455 14.0029 11.6082 13.7278 11.6068H13.7271H1.92119C1.46396 11.6068 1.09316 11.9774 1.09316 12.4347L1.09316 24.245L1.09316 24.2454C1.09408 24.5808 1.29626 24.8829 1.60593 25.0118L1.60684 25.0121C1.91594 25.1384 2.27079 25.0667 2.50657 24.83L2.50643 24.8302L2.40048 24.7242L2.50663 24.83L14.4065 11.9663ZM14.4065 11.9663L14.4232 11.956L14.4901 12.1202C14.6166 12.4305 14.5425 12.7864 14.3029 13.0204C14.3027 13.0206 14.3024 13.0209 14.3022 13.0211L11.0225 16.3008L11.0504 16.3296L11.0511 16.3304L11.0618 16.3413C12.436 17.7427 14.1432 19.4839 16.6715 20.8791C19.2045 22.2768 22.5687 23.3308 27.2532 23.331C27.6045 23.3229 27.9225 23.5376 28.0467 23.8663L28.0467 23.8664C28.1709 24.1957 28.0734 24.5679 27.8033 24.7938M14.4065 11.9663L5.56678 21.7698C7.36344 23.4718 10.4926 26.0157 14.3017 27.3063M27.8033 24.7938L27.7071 24.6787L27.8034 24.7937C27.8034 24.7937 27.8033 24.7938 27.8033 24.7938ZM27.8033 24.7938C25.1355 27.0283 22.232 28.1508 19.1192 28.1508H19.118C17.4768 28.1374 15.8493 27.8521 14.3017 27.3063M14.3017 27.3063C14.302 27.3064 14.3023 27.3065 14.3026 27.3066L14.3508 27.1645L14.3009 27.306C14.3011 27.3061 14.3014 27.3062 14.3017 27.3063ZM9.27346 15.7092L9.27246 15.7102C8.95294 16.0343 8.95289 16.5548 9.27232 16.879C9.27236 16.8791 9.27241 16.8791 9.27245 16.8791L9.86871 17.4889L9.86925 17.4895L9.91826 17.5391C12.4494 20.1017 16.5036 24.2064 24.8236 24.8892C20.8892 27.2104 16.9146 26.6784 13.5834 25.2356C10.1374 23.7431 7.39592 21.2814 6.14029 20.0259L6.14022 20.0258C5.81685 19.7029 5.2933 19.7029 4.96993 20.0258L4.96986 20.0259L2.74917 22.2466V13.2672H11.7273L9.27346 15.7092Z" fill="white" stroke="white" stroke-width="0.3"/>
</svg>
