<svg width="47" height="54" viewBox="0 0 47 54" fill="none" xmlns="http://www.w3.org/2000/svg">
<path d="M5.18746 23.6856C4.7534 23.6848 4.35915 23.9265 4.1604 24.3056M5.18746 23.6856L5.18719 23.8355V23.6856H5.18746ZM5.18746 23.6856H13.6142M4.1604 24.3056L4.25351 24.4604C4.40919 24.0819 4.77791 23.8348 5.18719 23.8356H13.6142V23.6856M4.1604 24.3056L4.15424 24.3053L4.11406 24.4037C3.93777 24.8357 4.038 25.3318 4.36883 25.6611L4.36881 25.661L4.47476 25.5549M4.1604 24.3056L4.36897 25.6612M13.6142 23.6856H13.7642V2.00753C13.7642 1.45106 14.215 1.0002 14.7714 1V0.85C14.1322 0.850197 13.6142 1.36821 13.6142 2.00753V23.6856ZM14.7718 0.85V1H32.2344C32.791 1 33.2419 1.45099 33.2419 2.00753V23.6856H33.3919M14.7718 0.85L4.25294 24.4604H4.25294C4.09946 24.8364 4.1868 25.2684 4.47476 25.5549M14.7718 0.85H32.2344C32.8738 0.85 33.3919 1.36815 33.3919 2.00753V23.6856M14.7718 0.85L33.3919 23.6856M33.3919 23.6856V23.8356H41.819C42.2261 23.8359 42.5929 24.0815 42.749 24.4575C42.9047 24.8339 42.8188 25.2669 42.5308 25.5549L24.2147 43.8308M24.2147 43.8308C23.8215 44.2236 23.1841 44.2236 22.7909 43.8308M24.2147 43.8308L24.3207 43.9369C24.3207 43.9369 24.3206 43.9369 24.3206 43.937M24.2147 43.8308L24.3206 43.937M22.7909 43.8308L4.47476 25.5549M22.7909 43.8308L22.6849 43.9369L4.36897 25.6612M22.7909 43.8308L22.685 43.937C23.1367 44.3882 23.8689 44.3882 24.3206 43.937M4.47476 25.5549L4.36897 25.6612M4.36897 25.6612L24.3206 43.937M14.7708 26.0005C15.4098 26.0005 15.9283 25.4824 15.9283 24.8429V3.16492H31.0753V24.8429C31.0753 25.4824 31.5938 26.0005 32.2328 26.0005H39.023L23.5019 41.4822L7.98081 26.0005H14.7708Z" fill="white" stroke="white" stroke-width="0.3"/>
<path d="M44.9919 51.3363H2.00753C1.36815 51.3363 0.85 51.8544 0.85 52.4939C0.85 53.1333 1.3681 53.6514 2.00753 53.6514H44.9925C44.9926 53.6514 44.9927 53.6514 44.9928 53.6514C45.632 53.6512 46.15 53.1332 46.15 52.4939C46.15 51.8544 45.6319 51.3363 44.9925 51.3363H44.9919Z" fill="white" stroke="white" stroke-width="0.3"/>
</svg>
