<svg width="32" height="37" viewBox="0 0 32 37" fill="none" xmlns="http://www.w3.org/2000/svg">
<path d="M25.3709 0.850003L25.2525 0.850315H1.71436C1.23604 0.850315 0.85 1.24045 0.85 1.71956V35.2808C0.85 35.7598 1.23602 36.15 1.71436 36.15H30.2856C30.764 36.15 31.15 35.7599 31.15 35.2808L31.15 6.4658L31.15 6.46469C31.1483 6.22878 31.0537 6.00292 30.8866 5.83675L30.8866 5.83673L30.885 5.83516L25.9714 1.09405C25.9713 1.09395 25.9712 1.09384 25.9711 1.09373C25.8103 0.937031 25.5953 0.849412 25.3709 0.850003ZM13.5316 2.67474C13.5309 2.64602 13.5289 2.61735 13.5257 2.58881H23.2319V13.7957H8.77041V2.58881H11.809C11.8057 2.61731 11.8037 2.64598 11.803 2.67474L11.8029 2.67474V2.67831V7.95249C11.8029 8.43165 12.189 8.82149 12.6673 8.82149C13.1456 8.82149 13.5316 8.43166 13.5316 7.95249V2.67831H13.5317L13.5316 2.67474ZM29.4218 34.4119H2.57884V2.58881H7.04068V14.6644C7.04068 15.1435 7.4267 15.5337 7.90504 15.5337H24.0955C24.5738 15.5337 24.9598 15.1435 24.9598 14.6644V2.58881H25.0256L29.4217 6.81759L29.4218 34.4119Z" fill="white" stroke="white" stroke-width="0.3"/>
</svg>
