<svg width="283" height="217" viewBox="0 0 283 217" fill="none" xmlns="http://www.w3.org/2000/svg">
<path fill-rule="evenodd" clip-rule="evenodd" d="M278.995 99.7765C274.882 115.367 266.608 132.367 249.94 137.336C245.888 138.544 241.945 139.456 237.736 138.996C237.336 138.952 237.001 139.009 236.62 139.016C235.937 139.029 236.527 139.274 235.761 139.038C235.164 138.854 234.605 138.393 233.983 138.19C232.329 137.65 230.566 137.545 228.885 137.109C224.755 136.036 220.498 134.712 216.496 133.233C214.612 132.536 212.88 131.566 211.107 130.633C209.305 129.685 207.396 129.096 205.574 128.227C204.134 127.539 201.667 126.643 200.654 125.354C199.575 123.979 201.068 121.051 201.495 119.589C202.947 114.615 204.676 109.713 205.767 104.64C209.535 108.999 214.764 111.698 220.177 113.439C223.114 114.384 226.136 115.067 229.191 115.494C231.965 115.882 234.957 116.352 237.738 115.801C239.837 115.385 242.471 114.422 243.97 112.823C244.505 112.252 245.147 111.205 244.847 110.376C244.467 109.323 243.358 109.819 242.758 109.033C242.235 108.348 242.317 106.748 242.151 105.914C241.856 104.44 241.451 103.005 240.957 101.585C239.998 98.8287 238.803 96.0659 238.517 93.1326C238.268 90.5876 238.849 88.1811 240.12 85.9728C240.721 84.9288 242.23 82.0889 243.703 82.2068C245.321 82.3362 243.139 89.1415 243.068 90.5297C242.785 96.0327 243.525 101.896 246.354 106.72C247.437 108.567 249.003 110.717 251.315 110.946C253.765 111.188 255.74 109.264 256.906 107.317C259.751 102.568 258.317 96.0519 256.876 91.0743C255.109 84.9675 250.496 80.7582 247.579 75.2738C251.934 75.7108 254.266 78.4722 256.501 81.9759C258.961 85.8331 260.876 90.4643 261.821 94.9524C262.298 97.2199 261.969 99.497 261.972 101.787C261.973 102.547 261.972 105.354 263.215 105.243C264.543 105.125 264.998 101.96 265.193 100.994C265.641 98.7797 266.125 96.5646 266.514 94.3389C267.202 90.4009 267.508 86.3677 268.331 82.4571C268.471 81.7961 268.748 79.9619 269.739 80.4572C270.503 80.8384 270.381 83.6752 270.409 84.3345C270.477 85.9594 270.574 87.584 270.587 89.2107C270.607 91.6213 270.125 94.1166 270.361 96.5126C270.515 98.0782 271.357 99.808 272.401 97.6967C273.435 95.6028 273.646 92.9914 274.223 90.7397C274.829 88.3756 275.455 85.9766 276.741 83.8769C277.098 83.2943 277.481 82.3695 278.274 82.6435C278.851 82.8428 279.276 84.2061 279.454 84.6873C280.258 86.8616 280.121 89.2792 280.071 91.5556C280.009 94.3447 279.709 97.0723 278.995 99.7765ZM198.781 103.822C198.561 103.751 197.627 103.663 197.396 103.643C197.124 103.619 197.432 103.12 196.775 103.262C196.902 103.576 197.127 103.785 197.451 103.89C196.463 104.224 195.735 103.4 195.059 103.294C194.413 103.192 194.386 103.294 193.748 103.975C193.057 103.134 193.187 103.659 192.618 103.659C192.412 103.659 192.403 103.971 192.066 103.934C191.773 103.901 191.742 103.456 191.568 103.404C190.625 103.119 189.655 104.552 188.586 103.309C188.327 104.602 185.359 102.982 184.217 103.21C183.02 103.447 183.536 103.876 182.569 103.143C181.647 102.446 181.904 102.909 180.832 103.48C180.857 103.467 180.226 103.892 180.285 103.899C179.543 103.812 179.585 103.046 178.645 103.087C177.65 103.13 177.225 103.908 176.315 102.95C176.116 103.668 176.076 103.359 175.609 103.539C175.352 103.6 175.128 103.533 174.935 103.338C174.877 103.535 174.749 103.656 174.55 103.7C174.042 103.746 173.088 103.817 172.626 103.572C171.934 103.205 172.491 103.065 172.01 102.652C171.795 103.789 171.323 103.548 170.328 103.654C169.569 103.735 169.402 103.502 168.677 103.389C167.962 103.278 167.039 103.555 166.343 103.673C166.055 103.722 165.67 103.922 165.377 103.851C165.113 103.788 165 103.584 164.843 103.53C164.652 103.466 164.692 103.299 164.362 103.218C164.134 103.162 163.726 103.376 163.498 103.413C161.874 103.676 160.314 103.678 158.764 103.041C159.528 104.379 156.981 103.657 156.527 103.102C155.959 103.99 155.273 103.363 154.129 103.433C153.028 103.499 151.371 103.836 150.924 102.467C150.837 102.745 150.212 103.553 149.963 103.676C149.241 104.033 149.155 103.505 148.484 103.29C147.57 102.997 147.761 103.553 147.194 103.666C146.238 103.857 145.721 103.185 144.876 102.827C144.84 103.383 144.821 103.725 144.34 104.071C143.914 102.521 142.393 104.197 142.654 102.127C142.075 102.503 141.261 102.792 141.096 103.553C142.064 103.287 141.199 103.919 141.159 103.939C141.031 104.006 140.599 103.401 140.499 103.315C140.471 103.601 140.444 103.887 140.417 104.172C140.031 103.98 139.669 103.635 139.356 103.463C139.074 103.307 139.478 102.984 139.002 102.961C138.751 102.949 138.489 103.492 138.225 103.538C137.822 103.609 138.016 103.032 137.847 103.051C137.59 103.081 137.172 103.456 136.978 103.449C136.341 103.425 136.772 103.129 136.286 102.993C135.417 102.751 135.473 103.318 134.849 103.522C133.42 103.991 133.563 101.836 132.11 103.273C131.762 103.617 131.538 104.148 131.062 104.118C130.075 104.056 130.422 102.889 130.622 102.317C130.83 102.419 127.018 104.374 127.048 104.297C127.072 103.829 127.672 103.467 127.136 103.051C126.698 103.989 126.237 104.006 125.227 104.18C124.736 104.265 124.639 104.379 124.114 104.175C123.779 104.045 123.554 103.512 123.222 103.483C123.266 103.487 122.655 103.951 122.562 103.993C122.011 104.241 121.662 103.96 121.126 104.062C120.669 104.149 120.49 104.537 120.035 104.43C119.429 104.289 119.785 103.566 118.95 103.768C118.665 103.836 118.494 104.385 118.044 104.498C117.344 104.676 116.485 104.345 115.745 104.518C115.157 104.655 114.721 104.713 114.207 104.741C113.792 104.764 113.962 104.442 113.198 104.823L112.874 104.007C112.491 104.351 112.109 104.694 111.726 105.037C111.653 104.729 111.608 104.418 111.588 104.102C111.017 104.672 110.299 104.77 109.532 104.821C108.701 104.877 108.082 105.057 107.274 105.209C107.018 105.257 106.36 105.333 106.15 105.244C106.181 105.257 105.757 105.081 105.885 105.115C105.83 105.003 105.779 104.889 105.732 104.773C105.66 104.451 105.428 104.437 105.037 104.731C104.834 104.7 104.441 104.434 104.238 104.5C103.717 104.668 103.788 105.072 103.269 105.013C102.932 104.974 102.76 104.477 102.409 104.443C101.872 104.392 101.406 104.992 100.923 105.123C102.394 104.724 99.0144 105.033 100.065 105.061C99.3763 105.043 98.6611 105.008 98.0244 105.317C97.6728 105.077 98.0997 104.594 97.7444 104.395C97.4219 104.215 97.3972 104.691 97.3595 104.702C97.5627 104.644 97.4613 105.049 97.2577 105.121C96.6237 105.345 96.1166 104.775 96.0837 104.209C95.5449 105.018 95.3938 104.693 94.6015 104.743C93.8201 104.792 93.1464 105.201 92.3647 105.194C90.8188 105.179 89.7698 104.643 89.2537 103.265C90.9011 103.465 92.559 102.408 94.1697 102.657C94.6992 102.739 95.0299 103.136 95.4935 103.065C96.0652 102.978 96.4641 102.356 97.1967 102.289C98.8129 102.141 100.406 102.285 102.033 102.038C103.977 101.742 106.005 101.567 107.968 101.711C109.484 101.822 110.712 101.243 112.25 101.132C114.238 100.988 116.243 100.962 118.235 100.858C120.281 100.751 122.483 100.425 124.524 100.529C125.161 100.562 125.709 100.624 126.341 100.586C126.609 100.57 126.862 100.389 127.143 100.416C127.508 100.451 127.665 100.824 128.044 100.811C128.688 100.789 129.377 100.259 130.142 100.245C131.401 100.221 132.655 100.224 133.917 100.153C135.028 100.09 136.219 99.8306 137.325 99.8446C138.106 99.8542 138.298 100.518 138.753 100.587C139.571 100.71 143.707 98.3598 144.064 100.469C146.218 98.9976 149.106 100.243 151.503 99.9669C154.582 99.6117 157.718 99.9282 160.818 99.8018C163.972 99.673 167.218 99.7922 170.36 100.089C171.661 100.212 172.919 100.328 174.224 100.253C174.806 100.22 175.478 100.071 176.06 100.205C176.201 100.238 177.28 100.99 177.146 101.011C177.736 100.483 177.337 100.406 178.374 100.379C179.173 100.358 179.929 100.53 180.724 100.577C182.15 100.661 183.588 100.464 185.011 100.507C186.2 100.544 187.362 100.719 188.556 100.727C189.844 100.737 191.365 100.773 192.297 101.809C192.199 101.484 192.101 101.159 192.002 100.833C193.439 100.945 194.86 101.458 196.313 101.218C195.946 101.57 195.572 101.857 195.432 102.372C196.216 102.273 196.746 101.727 197.571 101.723C198.264 101.719 198.409 102.066 199.14 101.617C199.23 102.167 199.32 102.716 199.41 103.265C200.424 103.027 199.759 102.273 199.833 101.593C200.656 101.84 201.354 101.556 201.029 102.739C200.779 103.651 199.639 104.1 198.781 103.822ZM197.357 113.979C197.004 114.97 193.947 114.404 193.225 114.299C192.291 114.164 191.223 113.95 190.363 113.844C190.26 113.707 190.136 113.59 189.992 113.494C189.884 113.645 189.747 113.751 189.581 113.814C189.187 113.9 189.185 114.307 188.666 114.217C188.642 114.819 189.061 114.477 189.382 114.696C188.573 115.237 188.943 114.614 188.49 114.624C188.377 114.465 188.221 114.402 188.02 114.436C187.764 114.503 187.528 114.612 187.313 114.764C187.111 114.977 186.937 114.988 186.793 114.797C186.655 114.659 186.486 114.573 186.287 114.541C185.491 114.67 185.268 115.023 184.371 114.965C183.089 114.883 181.702 115.22 180.44 115.042C179.658 114.932 178.351 113.706 177.996 114.902C177.455 114.015 176.594 113.412 176.077 112.506C178.488 112.367 180.898 112.201 183.312 112.114C185.425 112.038 187.737 112.276 189.711 112.176C191.561 112.083 193.52 111.879 195.409 111.711C197.411 111.532 198.073 111.971 197.357 113.979ZM134.448 114.125C135.324 114.367 136.157 113.819 137.007 113.992C137.287 114.049 137.868 114.56 137.996 114.57C138.23 114.589 138.917 114.087 139.212 114.02C141.077 113.597 143.337 113.642 145.201 113.902C146.19 114.04 146.341 113.588 147.204 113.369C148.1 113.141 149.374 113.317 150.319 113.254C152.539 113.105 154.759 113.211 156.965 113.049C159.229 112.882 161.483 112.792 163.748 112.676C165.291 112.597 169 111.718 170.279 112.862C171.334 113.804 169.975 115.442 168.92 115.815C168.131 116.094 167.753 115.506 167.167 115.563C166.5 115.626 166.733 116.413 166.137 115.684C165.769 116.409 163.45 116.1 162.786 116.148C161.338 116.252 160.113 116.542 159.127 115.194C159.194 115.583 159.261 115.972 159.327 116.36C158.02 115.663 156.618 115.886 155.483 116.13C154.921 116.25 153.197 117.081 152.588 116.723C152.169 116.476 152.908 116.054 152.201 115.844C151.831 115.733 151.191 116.347 150.739 116.316C149.487 116.23 149.842 115.39 148.612 116.459C148.196 116.1 148.057 115.488 148.112 114.964C147.219 115.725 147.293 116.993 145.696 116.76C145.101 116.674 144.991 116.068 144.681 115.956C144.02 115.718 143.945 116.146 143.372 116.485C143.156 116.613 142.892 116.819 142.638 116.845C142.115 116.897 142.032 116.657 141.96 116.665C141.612 116.703 141.174 116.88 140.761 116.754C140.391 116.64 140.282 115.988 139.63 116.14C139.005 116.286 139 116.71 139.113 117.344C138.497 117.28 138.124 116.938 137.663 116.567C137.198 117.65 136.219 116.753 135.677 117.667C134.971 116.826 134.518 117.057 133.643 116.236C133.686 116.579 133.729 116.921 133.771 117.264C133.088 117.133 132.784 116.652 132.201 117.288C131.635 116.236 129.92 117.735 129.039 116.719C128.646 118.006 126.047 117.698 124.95 117.721C123.977 117.74 123.257 117.661 122.307 117.886C121.467 118.086 120.303 118.292 119.513 118.201C118.997 118.142 118.433 118.047 117.79 118.117C116.863 118.217 116.063 118.696 115.102 118.47C113.656 118.128 112.77 116.233 114.381 115.4C115.483 114.83 117.468 115.041 118.681 114.936C120.691 114.761 122.943 114.396 124.956 114.562C126.526 114.692 127.957 114.318 129.558 114.16C130.764 114.041 132.741 113.827 133.527 115.02C133.829 114.672 133.798 113.946 134.448 114.125ZM112.445 130.457C112.229 129.384 121.418 128.793 122.33 128.723C124.245 128.575 126.165 128.47 128.085 128.422C129.662 128.382 131.135 128.682 132.713 128.44C134.187 128.215 135.966 127.752 137.249 128.794C137.438 127.369 142.969 128.063 144.021 128.067C148.602 128.084 152.985 128.094 157.417 127.811C159.949 127.649 162.638 127.431 165.17 127.558C166.313 127.615 167.233 127.919 168.369 127.655C169.11 127.483 169.908 127.125 170.617 127.631C171.446 128.224 171.801 130.235 171.229 131.074C170.813 131.686 170.445 131.618 169.78 131.513C168.758 131.35 167.999 131.114 166.956 131.529C167.125 131.462 166.258 131.655 166.33 131.649C165.15 131.737 163.531 132.56 162.514 131.612C162.921 131.683 163.513 130.957 163 130.897C162.614 130.852 162.369 131.265 162.068 131.403C161.038 131.876 160.511 131.728 159.896 130.736C158.656 131.808 158.522 131.511 157.978 130.191C157.558 130.514 157.468 131.276 157.138 131.526C157.089 131.564 157.292 132.027 157.054 132.008C156.833 131.99 156.761 131.628 156.591 131.6C156.482 131.581 156.425 131.264 156.322 131.245C156.209 131.224 156.093 131.426 155.966 131.42C155.625 131.404 154.65 132.128 154.999 131.112C154.483 131.768 154.261 131.35 154.075 130.753C153.478 131.206 152.882 131.658 152.286 132.11C152.008 131.341 151.531 131.551 150.931 131.819C151.112 131.285 150.998 130.779 150.545 131.151C150.282 131.366 150.105 132.049 149.836 132.339C148.748 131.239 148.352 131.54 146.848 131.683C146.274 131.738 145.561 131.844 145.048 131.497C144.597 131.193 144.342 130.077 143.571 130.979C143.743 130.778 143.474 132.319 143.426 132.564C143.086 132.335 142.797 132.054 142.559 131.72C142.115 132.597 140.951 131.81 139.996 131.989C138.493 132.272 136.943 132.747 135.616 131.63C135.522 131.991 134.435 132.45 134.434 132.464C134.498 131.826 134.901 132.05 134.077 131.929C133.926 131.906 133.754 132.179 133.611 132.209C133.12 132.31 132.546 132.214 132.051 132.2C129.992 132.14 128.107 132.596 126.074 132.761C125.389 132.817 124.576 132.926 123.932 132.668C123.269 132.402 123.288 132.1 122.617 132.271C122.829 132.217 122.198 132.879 122.232 132.854C122.142 132.92 121.766 132.597 121.632 132.621C121.593 132.762 121.554 132.903 121.515 133.044C121.353 133.024 121.192 133.005 121.03 132.985C120.588 133.044 120.189 132.597 119.774 132.582C119.85 132.585 118.653 133.03 118.707 133.057C117.872 132.641 118.112 132.761 117.051 133.015C116.049 133.254 115.051 133.198 114.022 133.348C111.031 133.781 112.813 132.285 112.445 130.457ZM109.803 145.387C109.241 144.59 110.737 144.315 111.215 144.245C112.002 144.129 113.044 144.359 113.568 144.235C114.366 144.045 115.136 143.593 116.034 143.47C117.168 143.316 118.31 143.291 119.448 143.194C119.827 143.161 120.297 143.031 120.666 143.053C121.215 143.086 121.443 143.376 121.887 143.378C122.642 143.382 123.574 142.906 124.348 142.818C125.34 142.706 126.341 142.653 127.337 142.604C129.436 142.5 131.514 142.543 133.612 142.541C134.569 142.539 137.117 141.548 137.594 142.66C138.257 141.817 139.959 141.932 140.907 141.908C142.578 141.865 144.232 141.704 145.901 141.627C147.33 141.56 148.928 141.866 150.331 141.652C151.105 141.534 151.361 141.286 152.238 141.398C152.89 141.481 153.884 141.137 154.443 141.289C154.414 141.281 155.141 141.731 154.914 141.745C155.164 141.729 155.15 141.903 155.425 141.826C155.787 141.724 155.621 141.27 156.371 141.108C157.54 140.857 159.1 141.148 160.315 141.083C161.494 141.021 162.671 140.994 163.851 140.999C164.394 141.001 165.066 140.872 165.594 140.978C165.853 141.03 166.404 141.367 166.623 141.333C167.245 141.236 167.562 140.805 168.402 140.832C169.355 140.862 170.213 140.849 171.161 140.776C172.078 140.706 172.225 140.575 172.68 141.337C173.131 142.093 173.255 143.078 172.426 143.592C172.965 143.556 173.627 144.277 172.992 144.675C172.6 144.922 171.813 144.366 171.343 144.406C170.765 144.455 170.31 144.761 169.68 144.78C169.018 144.8 168.345 144.967 167.692 144.979C167.012 144.993 166.498 144.689 165.852 144.818C165.284 144.932 165.225 145.397 164.541 144.989C164.201 144.786 164.144 144.034 163.68 144.027C163.059 144.018 163.307 144.819 162.95 145.19C162.854 144.044 161.968 145.94 161.616 144.549C161.291 145.011 160.089 145.657 159.507 145.286C158.976 144.948 159.152 144.183 158.931 143.632C158.563 144.622 157.575 145.65 157.665 143.846C157.185 144.436 155.888 144.343 156.213 145.374C155.823 145.367 155.73 144.81 155.401 144.768C155.117 144.732 154.892 144.949 154.848 144.946C155.004 144.959 154.383 145.165 154.374 145.167C154.794 145.082 153.162 144.937 153.439 144.939C153.061 144.936 152.597 145.246 152.154 145.245C151.751 145.244 151.35 145.085 150.952 145.04C149.919 144.922 150.134 145.148 149.486 145.472C149.246 145.592 149.185 145.795 148.844 145.77C148.593 145.751 148.499 145.423 148.47 145.42C148.116 145.385 148.378 145.266 147.828 145.321C147.765 145.429 147.702 145.537 147.639 145.645C147.441 145.899 147.184 145.962 146.868 145.836C146.055 146.01 143.358 146.764 143.623 145.367C143.209 145.569 142.796 145.77 142.383 145.972C142.206 144.846 139.961 146.339 139.46 146.415C138.817 146.511 138.757 146.265 138.149 146.133C138.039 146.11 137.82 146.471 137.563 146.419C136.895 146.285 136.777 146.219 136.662 145.495C136.186 146.383 135.791 145.986 134.928 146.132C134.737 146.165 134.615 146.54 134.341 146.475C134.144 146.428 134.138 146.068 134.002 146.021C133.879 145.979 133.898 145.695 133.717 145.655C133.51 145.608 132.804 146.186 132.602 146.275C132.145 146.476 131.395 146.809 130.949 146.709C130.398 146.586 130.643 146.178 129.864 146.224C128.635 146.296 128.122 147.34 127.358 145.695C127.013 146.354 127.057 146.533 126.502 146.75C126.093 146.911 125.056 146.743 124.517 146.723C122.214 146.638 119.949 147.421 117.666 147.216C116.662 147.126 115.815 146.926 114.802 147.089C113.738 147.262 112.697 147.516 111.617 147.618C111.068 147.669 109.921 147.827 109.651 147.126C109.414 146.509 110.299 146.089 109.803 145.387ZM114.32 170.68C111.333 172.675 108.859 175.399 106.116 177.706C103.366 180.018 101.184 182.589 98.7115 185.15C96.425 187.517 94.3246 189.757 91.5604 191.546C89.8113 192.678 88.251 194.071 86.4542 195.139C85.1084 195.938 83.0697 196.99 83.7263 194.545C84.3994 192.038 85.6417 189.505 86.7205 187.165C88.2541 183.838 89.7996 180.542 91.459 177.278C92.0827 176.052 92.4315 174.831 93.4206 173.854C94.4966 172.791 95.2502 171.403 96.4288 170.398C101.386 166.173 108.857 169.438 114.32 170.68ZM123.69 172.112C122.335 172.821 120.818 172.997 119.382 173.466C118.159 173.865 117.021 174.576 115.705 174.629C116.903 173.731 117.932 172.51 119.283 171.829C120.802 171.062 122.181 171.62 123.69 172.112ZM183.161 178.021C178.177 176.343 173.537 173.869 168.682 171.878C167.844 171.534 161.291 169.38 161.424 168.354C166.016 167.514 170.746 166.073 175.35 167.645C179.537 169.074 182.944 172.503 186.186 175.373C187.031 176.122 192.263 179.532 191.794 180.618C191.47 181.371 188.95 181.166 188.355 181.012C187.585 180.812 187.143 180.346 186.54 179.834C185.531 178.979 184.416 178.444 183.161 178.021ZM173.96 149.974C174.717 149.279 175.17 148.224 175.893 147.582C176.822 146.757 178.322 147.159 179.337 147.587C182.385 148.873 184.99 151.034 188.018 152.376C191.375 153.862 194.28 155.849 197.308 157.896C200.075 159.767 203.067 161.316 205.892 163.102C208.77 164.923 211.992 166.106 214.91 167.861C217.879 169.648 220.837 171.442 223.691 173.411C228.779 176.922 234.077 180.528 237.842 185.52C239.777 188.085 241.588 190.996 243.007 193.877C244.298 196.496 245.698 200.132 244.026 202.857C242.419 205.473 239.682 207.535 237.364 209.487C236.487 210.226 235.652 211.124 234.514 211.445C233.131 211.834 231.517 211.727 230.094 211.842C222.486 212.458 215.398 211.877 207.901 210.518C200.671 209.209 193.412 208.475 186.127 207.565C182.018 207.051 177.909 206.453 173.855 205.598C172.122 205.233 170.359 204.811 168.663 204.313C167.182 203.878 165.937 202.92 164.414 202.541C157.952 200.93 150.559 200.314 144.161 197.604C149.823 195.256 155.839 193.837 161.641 191.885C167.748 189.831 173.712 188.108 180.149 187.524C183.461 187.224 186.426 186.379 189.612 185.495C192.648 184.653 195.818 184.395 198.937 184.018C200.324 183.85 204.282 184.101 204.742 182.291C205.426 179.597 201.537 179.286 199.879 179.527C197.527 179.869 195.588 180.455 193.788 178.529C191.95 176.562 190.164 174.548 188.293 172.606C184.824 169.005 181.248 164.841 176.343 163.225C170.36 161.254 163.422 163.125 157.452 164.246C151.147 165.43 144.851 166.563 138.664 168.284C136.101 168.996 132.797 170.566 130.138 170.314C127.517 170.065 124.548 169.637 122.016 168.882C120.87 168.541 119.928 167.908 118.902 167.319C117.569 166.551 116.108 166.06 114.693 165.463C111.832 164.258 109.042 163.147 105.955 162.673C103.355 162.274 100.595 162.038 98.0751 162.947C95.6035 163.84 93.4134 165.657 91.6889 167.599C89.8157 169.708 88.2674 172.072 86.7321 174.428C85.995 175.559 85.0954 176.546 84.3319 177.652C83.6911 178.581 83.3168 179.612 82.6386 180.515C81.1208 182.534 80.0903 185.117 79.1705 187.466C78.1486 190.075 77.0133 193.178 77.2573 196.016C77.3494 197.089 77.4457 198.51 77.8614 199.504C78.3902 200.77 79.1441 200.737 80.2308 201.215C82.0978 202.034 82.6215 204.3 85.0341 203.858C87.2972 203.444 89.2599 201.583 90.911 200.099C93.0631 198.165 95.1227 196.126 97.182 194.095C99.2951 192.01 101.378 189.697 103.059 187.244C103.72 186.279 104.236 185.188 105.018 184.309C106.014 183.189 107.132 183.054 108.485 182.608C120.311 178.708 132.194 174.945 144.39 172.37C147.311 171.752 150.257 170.956 153.127 170.135C156.171 169.264 157.748 170.185 160.26 171.843C165.509 175.307 171.712 177.747 177.557 180.008C179.397 180.719 182.327 180.765 183.766 182.168C175.238 183.466 167.112 185.963 158.887 188.449C154.832 189.675 150.73 190.737 146.66 191.91C142.588 193.082 138.671 194.602 134.655 195.924C130.658 197.24 126.434 197.776 122.398 198.99C118.279 200.229 114.176 201.081 109.948 201.834C105.678 202.595 101.438 203.472 97.1536 204.153C95.192 204.465 93.2307 204.788 91.2907 205.217C89.3925 205.637 87.5587 206.642 85.6509 206.875C77.1315 207.915 68.7793 210.234 60.2931 211.544C53.9566 212.523 42.9331 213.888 38.8241 207.542C34.6922 201.159 39.7614 193.715 44.2843 189.151C47.0951 186.315 50.2538 183.819 53.5676 181.599C57.1142 179.222 60.5264 176.656 64.0737 174.283C72.1014 168.913 80.8062 164.533 89.4309 160.218C93.5707 158.147 97.5703 155.926 101.597 153.653C103.596 152.524 104.702 154.345 106.282 155.582C107.525 156.555 109.807 158.954 111.545 157.845C111.612 158.245 111.679 158.644 111.746 159.044C112.255 158.812 112.765 158.58 113.274 158.349C113.616 159.244 113.576 159.8 114.532 160.271C115.118 160.56 116.371 160.908 116.93 160.399C117.044 160.752 117.159 161.106 117.273 161.459C117.762 161.422 117.856 160.025 117.948 159.698C118.787 160.92 119.946 161.942 121.419 162.287C121.426 162.207 121.18 161.203 121.19 161.197C121.656 160.912 122.244 162.132 122.492 162.393C123.311 163.259 123.8 163.125 124.705 162.426C124.77 162.497 125.077 163.295 125.121 163.281C125.317 163.219 125.689 162.512 125.73 162.447C125.674 163.377 127.472 163.565 128.108 163.365C127.965 163.092 127.823 162.82 127.68 162.548C129.893 162.253 130.762 164.6 132.886 164.48C134.456 164.392 133.197 164.049 134.085 163.378C134.862 162.791 135 164.074 135.076 164.034C135.224 163.879 135.339 163.701 135.42 163.5C135.708 164.599 137.995 165.585 137.759 163.778C138.659 164.137 139.297 164.733 140.293 164.86C141.504 165.013 142.797 164.756 144.004 164.656C146.606 164.44 149.059 163.91 151.404 162.72C152.795 162.015 154.275 161.374 155.582 160.523C156.676 159.811 158.751 157.648 160.208 158.579C159.835 157.481 161.591 158.499 161.647 157.084C161.929 157.296 162.211 157.508 162.493 157.721C162.662 157.35 162.615 156.767 162.841 156.444C163.153 156.001 163.304 156.262 163.57 156.013C163.866 155.734 164.125 154.987 164.481 154.774C164.848 154.555 165.279 154.816 165.674 154.625C166.275 154.334 168.858 151.49 168.421 153.927C169.532 153.55 168.675 153.205 168.814 152.466C169.093 150.985 169.771 152.051 170.447 152.18C171.554 152.392 171.532 151.479 172.149 150.815C172.712 150.208 173.771 149.937 173.406 148.884C173.823 149.109 173.912 149.548 173.96 149.974ZM107.254 118.339C106.382 119.309 105.729 118.894 104.76 118.752C104.656 118.405 104.479 118.357 104.229 118.608C103.941 118.773 103.633 118.881 103.302 118.933C102.507 119.129 101.682 119.045 100.904 119.342C100.926 119.082 101.2 118.62 101.025 118.356C100.207 118.92 99.7001 119.279 98.696 119.29C97.8825 119.299 96.4545 118.678 95.779 119.42C95.7581 119.131 95.7372 118.843 95.7166 118.554C95.3859 118.718 95.0981 118.939 94.853 119.215C94.8068 118.787 94.7811 118.463 94.4977 118.118C93.9603 119.221 93.3716 119.247 92.3274 118.826C92.4737 118.884 91.2821 118.187 91.3277 118.381C90.9511 116.796 96.8976 116.927 97.522 116.864C99.0809 116.707 100.64 116.616 102.201 116.472C103.682 116.336 104.787 116.106 105.812 117.339C105.355 115.558 109.676 115.646 107.254 118.339ZM39.0743 90.712C39.2381 93.4052 39.8385 96.268 38.7895 98.8602C37.9461 100.944 36.2638 103.297 34.4516 104.657C30.7409 107.441 27.5956 104.034 27.0792 100.29C26.5408 96.3848 27.608 91.6131 30.9764 89.2052C32.989 87.7666 34.9379 87.8663 37.2552 88.3393C37.7995 88.4506 38.6829 88.4078 38.9941 88.9476C39.0671 89.074 39.0016 90.7095 39.0743 90.712ZM88.3582 126.596C87.7174 126.919 87.0467 127.108 86.4816 127.547C86.2853 127.7 86.2184 128.048 86.0101 128.176C85.6311 128.41 85.0893 128.255 84.6941 128.448C84.0403 128.767 83.5714 129.223 82.7942 129.517C81.64 129.954 80.628 130.553 79.5372 131.121C77.7196 132.067 75.7689 132.879 73.8687 133.649C72.9095 134.038 70.2566 134.796 70.3485 136.198C70.1339 136.255 69.9146 135.787 69.4667 135.824C68.8516 135.875 68.039 136.585 67.4006 136.76C66.2063 137.086 65.2817 137.115 65.2817 138.635C64.9016 138.377 64.805 137.746 64.2992 137.663C63.73 137.569 63.4904 138.182 63.035 138.373C62.4987 138.597 61.8318 138.382 61.3006 138.621C61.0682 138.866 60.8102 139.08 60.5261 139.263C60.2372 139.296 59.9497 139.287 59.6635 139.236C58.5361 139.475 57.4984 139.898 56.3682 140.118C55.2667 140.333 54.5124 140.411 54.9754 141.711C53.7972 141.941 53.5094 140.693 52.18 141.15C50.5505 141.709 49.0276 142.112 47.3264 142.453C46.4591 142.627 45.5526 143.016 44.6788 143.107C44.0554 143.172 43.4735 142.949 42.8597 143.019C42.1198 143.101 41.5253 143.444 40.7597 143.456C40.0335 143.469 39.271 143.339 38.5578 143.211C38.6586 143.498 38.7847 143.773 38.9362 144.036C38.443 143.933 38.2155 143.341 37.7974 143.254C37.3587 143.162 36.9657 143.614 36.6004 143.514C36.4448 143.471 36.5483 142.992 36.27 142.9C36.0164 142.818 35.9095 142.915 35.6579 142.876C35.574 142.863 34.5219 142.806 34.3543 142.895C34.0613 143.05 34.3577 143.34 34.2995 143.383C33.3101 144.114 33.2981 143.72 32.8571 142.956C32.2094 141.836 31.4284 142.543 30.2512 142.347C28.9394 142.128 27.9058 142.706 26.6145 142.624C25.2218 142.535 23.5851 141.495 22.3538 140.887C19.6948 139.575 17.1019 138.334 14.8689 136.347C10.5036 132.462 6.95226 127.686 4.85838 122.217C2.60858 116.342 2.18226 110.215 2.36286 103.982C2.4715 100.233 2.77204 96.4869 3.36388 92.7822C3.77135 90.2338 3.85668 85.7053 6.73465 84.5448C7.2295 90.5116 5.66818 96.5917 6.65274 102.52C6.94918 104.305 7.67227 106.684 9.04066 108.007C11.0667 109.964 11.5406 107.135 11.724 105.572C12.065 102.669 12.6986 99.7816 13.1472 96.8924C13.5954 94.0043 13.9121 91.0839 14.5355 88.2263C14.7627 87.1843 16.5954 79.5539 17.9405 79.9153C17.6684 85.4662 16.9457 90.9216 16.9172 96.493C16.9059 98.7277 16.7054 101.088 17.0286 103.308C17.1948 104.45 18.2369 107.802 20.0292 107.523C21.6879 107.264 19.8644 104.903 19.7095 103.993C19.2993 101.582 19.8223 98.5835 20.2047 96.1909C20.9285 91.6635 22.5433 87.0264 25.1827 83.2429C27.5466 79.855 31.1864 76.6298 35.5712 77.2272C37.4448 77.4827 38.9064 77.9472 39.8478 79.655C40.5863 80.9953 43.4958 82.5181 41.8097 84.1961C40.2748 85.7238 37.7923 84.501 36.086 84.1369C33.9969 83.6909 31.758 84.2273 30.011 85.4494C27.0134 87.5457 25.3051 91.2936 24.7475 94.8085C23.996 99.548 26.0049 111.953 33.404 109.173C38.3193 107.326 42.0215 100.682 41.6089 95.5949C41.4434 93.5587 40.6459 89.6929 43.468 89.1432C47.0835 88.439 47.5941 92.4177 47.2281 95.0031C46.6959 98.764 44.7048 102.261 42.4269 105.235C40.4417 107.826 38.1326 109.447 35.7436 111.587C35.0363 112.221 33.2323 113.645 33.5353 114.824C33.8673 116.115 36.7025 116.483 37.8378 116.695C43.454 117.745 49.7873 116.779 55.3939 116.046C66.9171 114.54 78.2888 110.83 87.7376 104.008C88.1194 108.229 88.6005 112.435 88.7777 116.671C88.8637 118.728 88.8857 120.814 89.1211 122.858C89.266 124.116 89.79 125.874 88.3582 126.596ZM56.4065 141.302C55.9542 141.538 56.4432 140.11 56.3174 140.582C56.9932 140.824 57.0231 141.064 56.4065 141.302ZM104.208 90.2249C104.926 89.4347 106.888 87.5549 107.511 89.3388C107.743 88.5784 107.773 87.4522 108.667 88.479C109.023 87.2175 112.952 87.3357 113.924 87.2799C117.04 87.1021 120.168 87.0069 123.273 86.6979C129.652 86.0632 136.143 86.3907 142.545 86.3698C143.932 86.3653 145.314 86.2903 146.691 86.491C148.019 86.6849 149.415 87.2285 150.769 87.0298C151.972 86.8531 152.761 86.5219 154 86.6637C155.483 86.8332 156.922 86.9538 158.417 86.9483C165.032 86.9243 171.644 87.1918 178.26 87.2021C179.55 87.2042 181.095 86.9528 182.305 87.4994C182.753 87.7022 183.243 88.3766 183.585 88.4506C183.977 88.5352 183.744 87.9242 184.269 88.2002C184.973 88.5695 184.428 89.7053 183.964 89.8854C184.242 89.7775 183.461 89.6714 183.539 89.6673C183.169 89.6871 182.853 89.9707 182.455 89.9529C181.849 89.9265 181.342 89.5577 180.854 89.2329C180.845 89.3655 181.114 90.2495 180.807 90.2941C180.544 90.3328 180.297 89.4611 180.27 89.2583C178.79 90.5616 177.222 89.8351 175.385 90.0002C174.083 90.1173 171.366 90.9849 170.457 89.6272C170.419 89.9159 170.303 90.1687 170.109 90.3855C169.85 90.7804 169.625 90.7469 169.435 90.2838C169.371 90.2869 168.738 90.4242 168.726 90.4232C168.28 90.3879 167.703 90.2283 167.25 90.1896C166.549 90.13 166.678 90.6393 166.119 90.6476C165.814 90.652 165.036 90.2122 164.505 90.1848C163.583 90.1369 162.642 90.527 161.733 90.4088C161.108 90.3276 160.542 89.8193 159.928 89.7995C159.164 89.7741 158.915 90.3564 158.31 89.5385C158.185 89.5049 158.108 89.9861 158.059 89.9944C158.071 89.9923 157.482 90.0793 157.413 90.1064C157.292 90.1526 156.821 90.3677 156.678 90.3701C156.369 90.3759 156.201 90.1547 155.873 90.1495C155.33 90.1403 153.598 90.6171 153.646 89.6152C151.711 90.3314 150.058 90.0523 148.071 90.2215C147.159 90.2996 146.587 90.1776 145.719 90.0105C144.633 89.8012 143.911 90.0642 142.828 90.1173C141.787 90.1684 141.458 89.7286 140.58 89.3316C140.233 89.175 140.004 88.9685 139.579 89.0555C139.336 89.1052 139.509 89.5128 139.437 89.5405C139.064 89.6844 138.803 89.532 138.291 89.5669C137.345 89.6313 136.969 90.4201 135.997 89.6796C136.32 89.6405 136.643 89.6008 136.966 89.5618C136.037 89.1685 134.811 88.9678 135.036 90.3999C134.243 90.2889 134.929 89.7501 134.539 89.5573C134.15 89.3648 133.714 89.6871 133.223 89.8464C131.927 90.266 130.847 90.0577 129.495 89.9824C127.96 89.8967 124.368 91.1473 123.269 89.5237C123.236 89.8659 122.868 90.8192 122.378 90.7743C122.218 90.7596 122.664 89.7477 122.714 89.6405C122.462 90.1766 121.311 90.2783 120.744 90.5564C120.808 90.2684 120.871 89.9803 120.934 89.6926C120.408 90.2523 120.152 89.9108 119.532 90.0978C119.262 90.1797 118.87 90.7373 118.638 90.7709C118.368 90.4585 118.029 90.3242 117.62 90.3677C117.349 90.2999 117.077 90.2865 116.806 90.328C115.718 90.4068 114.727 91.0099 113.645 90.5993C112.709 90.243 112.347 89.3275 111.788 90.7842C111.641 90.5253 111.495 90.2663 111.348 90.0074C111.167 90.2886 110.985 90.5695 110.804 90.8503C110.096 90.3872 110.052 90.119 109.237 90.2893C109.046 90.3653 108.849 90.3547 108.649 90.2571C108.601 90.3999 108.553 90.5424 108.505 90.6849C108.486 91.0435 108.379 91.162 108.185 91.0401C108.022 90.9815 107.874 90.8928 107.743 90.7736C107.204 90.8147 106.515 90.9565 105.936 90.8781C105.713 90.8483 104.312 90.1101 104.208 90.2249ZM120.712 80.5825C120.776 80.6798 120.839 80.7771 120.903 80.8744C120.027 81.3361 119.821 81.071 119.731 80.1441C120.158 80.1523 120.231 80.9035 120.712 80.5825ZM121.255 80.0386C121.676 80.2242 122.16 80.589 122.557 80.1003C122.824 80.8761 120.839 81.9348 121.255 80.0386ZM123.978 80.3811C124.863 80.9785 122.74 80.4983 122.743 80.4993C123.125 80.1475 123.536 80.1081 123.978 80.3811ZM131.592 77.0508C131.895 78.5798 132.732 78.5363 134.084 77.8256C136.055 76.7887 136.388 75.0909 136.525 73.0635C136.657 71.1197 136.895 70.3671 138.903 70.773C140.305 71.0563 141.49 70.8182 142.903 70.7792C144.411 70.7377 144.942 70.9676 145.063 72.5165C145.185 74.0674 145.461 75.245 146.589 76.4253C147.735 77.6252 149.263 78.3417 150.753 79.0131C151.519 79.358 152.238 79.7293 153.085 79.804C153.414 79.8331 155.123 79.6173 155.159 80.1571C155.185 80.563 152.819 81.7077 152.567 81.844C151.47 82.44 150.375 82.9747 149.176 83.3357C146.418 84.1667 143.493 84.2157 140.636 84.1653C136.029 84.0845 129.662 82.1393 126.908 78.0592C128.469 77.7231 130.03 77.3868 131.592 77.0508ZM131.178 63.8085C130.449 63.1978 129.977 62.2754 129.372 61.5523C129.067 61.1875 128.843 61.0714 128.552 60.8888C128.246 60.6967 128.074 60.9687 127.818 60.5169C127.159 59.3492 129.194 57.7061 127.035 57.2567C126.305 57.1043 124.547 57.6821 124.334 56.6374C124.032 55.1601 126.857 55.0636 127.521 54.3138C128.843 52.8231 127.946 50.296 128.751 48.5762C129.512 46.9471 131.479 46.6577 133.031 46.1682C135.194 45.4866 137.383 45.0914 139.579 44.5457C141.114 44.1645 143.665 42.6324 145.089 43.986C142.892 44.4731 144.169 45.2376 145.634 45.6692C147.293 46.1583 149.051 46.3491 150.77 46.4854C152.54 46.6255 154.343 46.6522 156.092 46.3001C157.708 45.9744 159.514 44.5714 161.21 44.9307C160.269 46.5635 157.467 47.4554 155.764 47.8833C154.896 48.1011 154.341 48.0329 154.457 49.1129C154.57 50.1597 155.482 51.2092 155.688 52.2994C155.96 53.7425 155.722 55.0684 155.207 56.4254C154.701 57.7606 154.583 57.9349 155.026 59.2108C155.715 61.1975 154.233 63.393 152.864 64.8357C147.327 70.6689 136.731 68.4593 131.178 63.8085ZM145.248 28.9459C145.27 29.0055 145.251 28.9829 145.248 28.9459V28.9459ZM146.972 43.6668C146.743 43.8381 145.421 44.197 145.476 43.6812C145.55 42.99 146.741 43.2397 146.972 43.6668ZM149.986 29.7039C149.676 29.473 148.807 29.5679 149.442 28.6927C149.649 29.0777 149.818 29.3908 149.986 29.7039ZM129.132 24.1718C129.527 23.1459 129.965 22.1917 130.143 21.0997C130.253 20.427 130.035 19.6587 130.977 19.5532C129.776 19.0305 129.764 16.9675 129.693 15.8981C129.596 14.4253 129.13 12.4534 129.778 11.0826C130.443 9.67451 131.341 9.6978 131.612 11.3748C131.719 12.0314 131.313 12.2438 131.236 12.701C131.085 13.6056 131.386 13.4073 131.97 12.7182C132.211 13.4186 132.304 14.4712 133.286 14.4267C133.221 14.2373 132.844 13.8194 132.97 13.5841C133.163 13.2227 134.107 13.7748 134.226 13.8584C135.088 14.4599 135.275 15.009 134.66 15.7676C135.511 15.8591 134.797 16.6024 135.346 16.7962C136.183 17.0918 135.622 15.6913 135.531 15.445C136.041 15.6437 136.212 15.8704 136.535 16.2725C136.724 16.55 136.897 16.838 137.052 17.136C137.226 17.6799 137.583 17.8163 138.124 17.545C139.209 17.8848 140.707 17.8317 141.68 18.4256C142.124 18.6969 142.284 19.2905 142.655 19.5159C143.073 19.7697 143.632 19.6546 144.08 19.8139C143.916 20.1858 144.049 20.3872 144.478 20.4188C144.812 20.4492 145.135 20.5243 145.447 20.6435C145.68 20.4677 145.934 20.329 146.209 20.228C146.393 20.5523 146.653 20.6325 146.991 20.4691C147.991 20.6561 148.472 21.0339 149.107 21.5988C149.678 22.1057 149.214 22.1468 149.839 22.1019C150.09 22.0838 150.531 21.6583 151.105 21.7412C151.436 21.8056 151.755 21.9074 152.062 22.0464C152.394 22.33 152.747 22.3657 153.12 22.1536C153.726 22.4492 153.785 22.9729 154.524 23.0445C155.341 23.124 155.078 22.1074 155.639 23.5412C156.394 22.0211 156.671 24.4427 157.451 24.6383C158.259 24.8411 158.346 24.1872 159.038 24.9017C159.245 25.1158 159.233 25.4696 159.466 25.6967C159.848 26.0683 160.363 25.994 160.695 26.5009C160.51 26.218 160.738 27.5035 160.734 27.461C160.786 28.0282 160.281 28.6636 161.316 28.6153C161.304 28.6749 160.807 29.398 160.71 29.3161C160.687 29.2336 160.666 29.15 160.651 29.0654C160.54 29.113 160.49 29.8018 160.511 29.9234C160.598 29.9371 160.634 29.872 160.618 29.7282C160.448 30.2594 160.705 30.5968 160.378 31.101C160.169 31.4233 159.597 31.6655 159.293 31.8645C158.559 32.3447 157.841 32.8263 157.126 33.3373C155.457 34.5293 153.589 35.9665 151.488 36.2152C152.543 35.1808 158.615 31.2661 155.569 30.1423C155.005 29.934 153.976 29.7367 153.385 29.6929C152.651 29.6384 151.891 30.0584 151.081 29.7963C150.103 29.4805 150.471 28.5629 149.874 28.2338C148.605 27.5354 148.905 29.1777 148.506 29.608C148.086 29.1685 148.176 28.9548 147.514 28.915C146.842 28.8746 146.682 29.4949 145.897 29.1086C144.816 28.5759 145.388 27.5151 143.855 27.4901C143.881 27.2572 144.103 26.6064 143.81 26.4249C143.416 26.9356 143.721 27.5066 143.355 27.9981C143.172 28.2447 142.774 28.4413 142.484 28.5211C141.804 28.7075 141.708 29.0644 141.818 28.0426C141.315 28.9486 139.77 28.5759 138.851 28.4848C137.357 28.3365 135.769 28.0543 134.337 27.5761C133.013 27.1336 132.305 26.3735 131.213 25.682C130.8 25.4203 130.603 25.5203 130.011 25.3579C129.426 25.1976 128.856 24.887 129.132 24.1718ZM132.284 8.13041C132.509 7.99478 132.671 10.0187 132.398 10.3969C131.898 9.60669 131.01 8.44759 132.284 8.13041ZM133.004 7.32309C133.729 6.66784 133.226 8.36025 133.093 8.6442C132.824 8.47225 132.555 8.30031 132.287 8.12836C132.629 7.91839 132.715 7.58443 133.004 7.32309ZM160.366 4.59558C167.066 5.99924 173.705 8.62296 179.079 12.9408C183.974 16.8736 187.429 22.4537 189.366 28.3893C191.376 34.5502 190.701 41.3856 185.918 46.1008C183.398 48.5844 180.07 50.0829 176.899 51.5452C175.379 52.2456 173.815 52.8293 172.289 53.5136C171.194 54.0052 169.856 54.7916 168.606 54.6553C169.244 53.9853 170.169 53.9716 170.941 53.5619C171.874 53.0667 172.635 52.1161 173.439 51.4373C174.237 50.7632 176.008 48.6406 177.234 49.1544C177.064 48.0237 178.355 47.4986 178.936 46.7529C179.551 45.9641 179.596 45.0417 180.729 44.7834C179.512 43.8326 179.884 42.0391 180.149 40.7447C180.488 39.0893 180.645 37.5696 180.778 35.885C181.019 32.8479 181.213 28.9791 179.532 26.3091C178.986 25.4422 178.292 24.6455 177.805 23.745C177.219 22.6599 177.348 21.7046 177.348 20.515C176.276 21.2343 176.05 19.7676 175.597 19.0528C175.257 18.5164 174.81 18.2167 174.7 17.5419C174.621 17.0507 175.154 16.9678 174.862 16.453C174.503 16.7236 174.36 17.1429 174.178 17.532C173.847 17.3998 174.237 16.9394 174.048 16.7897C174.042 16.7856 173.403 16.5085 173.435 16.5486C173.024 16.0283 172.891 15.1648 172.69 14.5455C171.937 14.9264 172.077 14.8815 171.237 14.2451C171.089 14.1331 170.35 13.6187 170.28 13.4505C169.955 12.664 170.525 13.1299 170.365 12.6418C169.908 11.2398 167.34 11.5049 167.136 9.40426C165.884 10.1979 165.407 9.07338 164.667 8.27359C163.908 7.45428 162.635 7.13915 162.704 5.83962C162.31 5.97423 161.915 6.1085 161.522 6.24243C161.726 5.04326 159.942 5.11964 159.296 4.51132C159.654 4.51577 160.011 4.54386 160.366 4.59558ZM161.386 78.8679C162.007 78.3133 161.819 79.0511 162.218 78.9669C162.56 78.8946 162.628 78.6367 162.955 78.5575C164.305 78.2318 166.324 78.6411 167.743 78.5709C169.388 78.4897 172.206 78.8305 172.99 80.751C173.462 81.9077 172.742 81.5142 171.948 81.4282C171.332 81.3618 170.785 81.4861 170.176 81.4799C169.875 81.5262 169.575 81.5217 169.277 81.4659C169.131 81.37 169.045 81.235 169.018 81.061C168.171 80.9329 167.271 81.4333 166.332 81.4584C165.08 81.4916 163.967 81.2518 163.016 80.4078C162.637 80.9706 162.38 81.2498 161.7 81.3128C161.682 81.3145 161.017 81.0473 160.914 81.0206C160.778 80.9853 160.434 81.2707 160.171 81.1891C160.637 80.4486 160.705 79.4758 161.386 78.8679ZM246.913 85.5515C247.134 84.7839 247.319 84.0064 247.52 83.2337C250.612 86.7466 253.317 91.4491 254.534 95.9543C255.324 98.8818 256.555 104.186 252.785 105.696C249.715 106.926 248.003 102.517 247.226 100.346C245.511 95.5521 245.511 90.429 246.913 85.5515ZM108.618 30.5074C108.658 30.4995 106.617 31.6843 107.289 30.7249C107.559 30.3392 108.584 30.068 109.038 30.068L108.618 30.5074ZM106.655 31.0096C106.419 31.2079 106.18 31.4038 105.94 31.597C105.709 31.2325 105.477 30.8681 105.246 30.5037C105.702 30.3118 107.636 30.168 106.655 31.0096ZM105.217 67.8472C104.79 67.5584 104.451 67.7119 104.323 68.1966C104.323 67.7143 104.574 66.5939 104.961 66.4634C105.211 66.3788 104.131 65.1029 104.434 64.7689C105.206 65.2104 104.744 65.6335 104.97 66.2034C105.072 66.4607 105.379 66.7038 105.446 66.9015C105.56 67.2368 106.021 68.3901 105.217 67.8472ZM103.125 64.9762C102.687 65.0878 103.453 65.8085 103.452 66.127C103.452 66.3678 103.162 66.5528 103.042 66.8823C102.783 67.5965 103.229 68.0787 102.495 68.6237C102.495 67.059 101.443 62.9132 103.465 62.1507C102.479 61.3756 103.289 60.4809 104.061 61.4084C104.804 62.3004 104.331 64.6679 103.125 64.9762ZM102.072 58.8018C101.674 57.3955 100.478 56.9036 99.1117 56.9868C99.1638 56.2668 99.7104 55.2287 100.105 56.5265C100.268 56.1428 100.38 55.6424 100.75 55.3883C101.374 57.3393 104.481 58.4172 102.546 60.5312C102.388 59.9548 102.234 59.3773 102.072 58.8018ZM98.4603 57.0916C91.2636 57.6126 81.1602 59.1033 75.4012 53.5965C71.6463 50.0059 71.8468 44.4142 74.8813 40.4248C76.613 38.1484 78.9769 36.5454 81.3511 35.0184C82.2671 34.429 83.0434 34.0399 84.0492 33.7011C84.212 33.6836 84.3651 33.7199 84.5084 33.81C84.5649 33.5675 84.7017 33.388 84.9196 33.2709C85.3079 33.0633 85.8613 32.9893 86.0851 32.5584C85.8463 33.3675 85.7236 34.2005 85.6359 35.0376C85.4419 34.8122 85.2483 34.5869 85.0546 34.3615C84.8929 35.8861 83.3018 34.9633 82.3518 35.1537C82.9776 36.0183 83.4251 36.3324 83.4789 37.475C83.0129 36.616 82.0382 36.0512 81.1321 35.7744C81.6242 37.2274 81.9721 38.0898 81.4765 39.6833C80.8782 39.3421 80.8378 38.5228 80.1119 38.3265C79.9204 39.2767 79.8864 40.331 79.6411 41.253C77.7823 40.4067 77.9636 42.6862 78.7099 43.8141C79.1068 44.4142 79.3018 45.1088 79.6558 45.6849C80.5245 47.0978 79.8645 44.9848 80.8302 45.0852C80.6133 46.5755 80.5379 46.7238 81.6304 47.8151C82.6965 48.8793 83.2497 50.3559 84.3902 51.3558C84.7202 50.9344 84.201 50.4936 84.1554 50.0905C85.2167 50.2682 85.7136 51.3304 86.7339 50.3895C87.1787 51.255 87.6602 52.2083 88.7256 52.3861C88.0214 51.0495 90.0782 51.9559 90.6057 52.1456C91.0059 52.2895 91.7225 52.4039 91.8771 52.4594C92.7461 52.7728 92.1502 52.2103 92.6776 53.2376C93.4521 53.0043 93.7444 52.3628 94.6707 52.9046C95.424 53.3455 95.4257 54.1004 95.5977 54.8738C95.7773 54.3679 95.9586 53.8623 96.157 53.3633C96.3592 53.4482 97.2074 54.3799 97.1148 54.3843C99.0997 54.2871 99.0295 55.5174 98.4603 57.0916ZM88.3558 31.87C88.7544 31.5908 89.241 31.9625 89.6886 31.8624C90.3082 31.7244 90.6601 31.1945 91.3524 31.1377C91.1598 31.7521 90.7982 31.6946 90.4926 32.1772C90.3884 32.3416 90.4425 32.7362 90.35 32.8308C89.5741 33.624 89.3061 32.9767 88.5142 32.3762C88.5831 33.1003 88.7225 33.3291 88.0392 33.5233C87.4206 33.6994 86.3997 33.051 86.0879 32.5537C86.3507 32.0282 87.8788 32.2043 88.3558 31.87ZM93.2938 30.7383C93.9658 30.8023 93.1563 32.7814 92.1934 30.8616C92.5559 30.7828 92.923 30.7417 93.2938 30.7383ZM96.7492 30.3557C97.8088 30.1399 101.344 29.1342 101.737 30.7811C101.808 30.74 102.071 29.8104 102.193 29.9238C102.682 30.3783 102.737 30.9808 102.7 31.6121C102.108 30.3817 102.318 31.4624 101.917 31.3781C101.813 31.3559 101.653 31.5511 101.388 31.4706C101.04 31.3648 100.791 30.6266 100.572 30.3766C100.206 30.8972 99.7536 31.5675 99.0219 31.5223C98.5041 31.4905 97.6697 30.1594 98.3403 31.6165C97.9466 31.4867 97.4908 31.1928 97.0521 31.2517C96.561 31.3178 96.3057 31.8018 95.8455 31.8799C94.8249 32.0525 94.6711 31.0722 94.0086 30.54C94.9223 30.4869 95.8469 30.5393 96.7492 30.3557ZM103.161 30.3399C103.235 30.0022 104.163 29.8659 104.399 29.9731C104.975 30.2344 104.762 30.5794 104.656 31.1534C104.229 30.9513 103.801 30.7496 103.373 30.5475C104.012 31.5737 102.855 31.7227 103.161 30.3399ZM282.67 90.4499C282.594 87.9906 282.522 85.4888 281.898 83.0946C281.461 81.419 280.387 78.4144 278.356 78.1236C275.293 77.6848 273.597 83.7276 272.739 85.8019C272.568 83.3597 272.718 80.7603 271.794 78.4424C271.054 76.5849 269.185 74.8257 267.575 76.9117C266.143 78.7682 265.867 81.5087 265.49 83.7423C265.002 86.6366 264.708 89.5532 264.352 92.465C262.953 89.7662 262.708 86.677 261.603 83.8721C260.559 81.2254 258.918 78.6976 257.336 76.3435C256.045 74.4205 254.473 72.6127 252.45 71.4372C250.689 70.4141 247.61 69.3074 245.931 71.0066C244.53 72.4243 244.75 74.3215 244.823 76.1105C244.855 76.9073 244.98 77.4536 244.279 77.855C243.934 78.0523 243.395 77.9502 243.016 78.0557C242.405 78.226 241.937 78.5144 241.42 78.8977C237.798 81.5851 236.129 86.428 235.612 90.7458C234.958 96.2166 237.094 100.906 238.932 105.912C239.226 106.71 240.156 108.402 240.027 109.293C239.887 110.269 238.66 110.294 237.832 110.314C235.331 110.376 232.718 110.19 230.23 109.957C224.307 109.404 218.389 106.557 213.085 104.016C212.118 103.552 210.749 103.287 209.959 102.556C209.217 101.87 209.021 100.77 208.38 99.9823C206.807 98.0502 205.805 96.4012 203.489 95.2339C201.13 94.0454 198.724 92.9469 196.422 91.645C193.577 90.0344 190.947 87.9944 188.22 86.191C183.152 82.8404 178.118 79.1672 172.745 76.3181C170.249 74.9939 167.459 74.7795 164.866 73.6954C162.342 72.6398 159.243 72.6384 156.609 73.3049C155.326 73.63 154.453 74.4 153.273 74.9025C151.889 75.4916 150.761 74.8415 149.544 74.1383C147.685 73.0642 145.842 71.3139 148.49 70.1551C149.388 69.7619 150.513 69.6129 151.298 68.9946C152.135 68.336 152.806 67.1207 153.486 66.2956C154.998 64.4614 155.901 62.3497 158.114 61.2091C160.561 59.9476 163.462 59.6044 166.072 58.7799C168.899 57.887 171.667 56.8251 174.442 55.7825C179.441 53.9041 184.638 51.876 188.23 47.7411C191.328 44.1737 192.678 39.5692 192.553 34.8924C192.298 25.3316 187.167 15.6286 179.807 9.65087C170.781 2.32089 159.298 -0.123354 147.897 0.00474956C142.546 0.0650336 136.161 0.764122 131.696 4.00952C127.84 6.81273 127.198 11.7156 127.772 16.1413C128.005 17.9375 128.8 20.3078 127.531 21.8906C126.821 22.776 125.546 22.9952 124.59 23.5474C123.388 24.241 122.328 24.9058 120.966 25.2726C115.183 26.8318 109.091 26.2889 103.178 26.2026C93.3273 26.0587 83.2305 28.7212 75.882 35.6504C69.9479 41.2455 68.1682 51.7962 75.4057 57.2509C81.2531 61.6575 90.425 61.1728 97.3198 60.4042C99.4579 60.1654 100.928 59.8188 100.933 62.4302C100.938 65.2827 100.465 68.264 101.194 71.0645C102.342 75.4748 106.587 75.58 110.341 74.6302C112.321 74.1291 114.235 73.3755 116.116 72.5863C118.874 71.4289 121.403 69.727 124.127 68.5716C125.974 67.7886 127.356 70.3209 128.995 68.5655C129.297 68.2411 129.353 67.7574 129.81 67.5913C130.525 67.3314 131.725 68.2431 132.353 68.5316C133.292 68.9635 134.24 69.281 134.615 70.3209C134.966 71.2937 134.812 72.8405 134.476 73.8002C133.745 75.8862 131.777 75.4738 129.979 75.3344C126.846 75.0909 123.732 74.5747 120.6 74.3579C117.789 74.1633 115.156 75.0018 112.732 76.3856C107.64 79.2919 103.474 83.9146 99.0583 87.7162C96.7858 89.6727 94.5892 91.7861 92.118 93.4898C91.0436 94.2307 89.8798 94.9116 88.946 95.8323C88.0193 96.7455 87.9175 97.5758 87.6005 98.791C87.0361 100.955 84.2332 102.012 82.481 103.154C80.0033 104.768 77.3765 105.907 74.599 106.898C68.7166 108.995 62.7879 110.46 56.6382 111.543C53.6273 112.073 50.6413 112.421 47.6009 112.708C44.9803 112.954 42.1935 113.76 39.576 113.116C40.3299 111.896 41.6658 111.163 42.7062 110.219C44.0475 109.003 45.1884 107.561 46.2034 106.068C48.1794 103.16 49.5653 100.04 49.8836 96.5122C50.1705 93.3377 49.8415 89.5402 47.9227 86.8586C47.2599 85.932 45.9488 85.6799 45.3556 84.8456C44.7658 84.016 44.9906 82.588 44.6678 81.6207C43.8457 79.1607 41.406 76.1123 39.259 74.6836C36.9297 73.133 33.5223 72.5634 30.8314 73.3714C25.8465 74.8682 22.7845 80.1862 20.5035 84.4846C19.2575 81.867 21.3442 77.9838 18.91 75.8403C16.8569 74.0321 15.2274 77.5348 14.5406 79.0333C11.3172 86.0677 10.5852 93.5285 9.23462 101.055C8.68425 100.514 8.96629 99.1236 9.01804 98.4776C9.11434 97.275 9.10543 96.0954 9.10783 94.8876C9.11434 91.8368 9.68253 88.7719 9.42208 85.7238C9.27164 83.9619 8.70893 80.2465 6.14452 80.8319C3.96977 81.3285 2.60755 84.3814 1.92421 86.2478C0.938612 88.9401 0.711062 91.6053 0.772404 94.4492C0.840258 97.5915 0.240538 100.682 0.0952348 103.82C-0.187148 109.915 0.0918079 115.958 1.84368 121.84C4.71239 131.473 11.3083 139.477 20.1115 144.31C24.9617 146.973 30.3424 148.658 35.8745 149.02C38.8724 149.217 41.7665 148.86 44.7387 148.551C47.6719 148.245 50.6204 148.104 53.5484 147.746C60.0693 146.948 66.4232 144.887 72.3502 142.114C75.4701 140.654 78.4039 138.862 81.4728 137.305C82.7041 136.681 83.5361 135.9 84.5869 135.032C85.6287 134.171 85.9172 134.104 87.1019 134.104C86.7544 133.176 87.7688 132.89 88.2201 132.302C88.1948 132.587 88.1694 132.872 88.1441 133.156C88.4881 132.411 88.8085 132.419 89.105 133.178C89.398 132.327 89.6149 131.453 89.9686 130.624C91.3212 131.307 91.2074 132.932 93.0162 131.746C94.5059 130.77 95.8756 129.618 97.3941 128.661C100.853 126.482 103.836 123.646 107.305 121.491C107.305 123.589 107.453 125.706 107.172 127.794C106.905 129.779 106.162 131.635 105.572 133.536C104.483 137.043 104.407 140.79 103.201 144.262C102.701 145.699 101.401 146.901 101.028 148.301C100.648 149.729 101.526 150.873 100.054 151.81C99.0165 152.471 97.7194 152.75 96.5703 153.15C94.8174 153.76 93.1533 154.621 91.447 155.35C83.4436 158.774 75.637 162.26 68.222 166.864C61.1851 171.232 54.0406 175.743 47.5763 180.931C41.966 185.434 36.2947 191.255 34.929 198.6C33.6038 205.724 37.1346 213.371 44.2243 215.717C47.9107 216.937 52.0783 216.786 55.9172 216.839C60.048 216.896 64.4253 215.902 68.4866 215.183C72.7758 214.423 76.9913 213.235 81.2929 212.557C85.42 211.906 89.2054 210.451 93.265 209.555C97.5888 208.6 102.024 208.082 106.371 207.224C108.329 206.837 110.246 206.267 112.209 205.909C114.358 205.517 116.53 205.37 118.658 204.851C122.785 203.844 126.737 202.221 130.882 201.284C132.745 200.863 134.581 200.299 136.445 199.905C138.161 199.543 139.499 198.58 141.219 199.37C142.609 200.01 143.717 201.105 145.032 201.868C146.738 202.859 148.537 203.745 150.315 204.597C153.889 206.309 157.595 207.492 161.332 208.777C165.257 210.128 169.111 211.667 173.177 212.559C177.346 213.473 181.598 213.727 185.796 214.45C194.392 215.931 202.915 216.595 211.641 216.649C216.051 216.677 220.461 216.155 224.861 216.216C228.757 216.271 232.143 217.148 235.705 215.08C241.397 211.777 247.999 206.801 247.859 199.574C247.732 193.028 243.798 186.774 240.109 181.611C235.629 175.341 229.241 170.926 222.98 166.601C216.307 161.992 208.812 158.807 201.8 154.784C198.213 152.726 194.905 150.513 191.011 149.05C189.152 148.353 187.338 147.544 185.501 146.792C184.022 146.188 181.888 145.854 180.623 144.85C179.833 144.225 179.757 143.277 179.549 142.346C179.087 140.287 178.361 138.334 177.658 136.348C176.3 132.513 175.398 128.607 174.815 124.585C174.258 120.751 173.024 116.764 173.663 112.867C177.869 116.929 182.191 120.833 186.495 124.787C188.108 126.269 189.691 127.782 191.312 129.255C192.529 130.361 194.051 132.003 195.748 132.331C197.914 132.75 197.123 130.358 198.611 129.987C199.52 129.761 202.262 132.067 202.981 132.522C207.538 135.41 212.583 137.24 217.595 139.206C222.85 141.267 228.255 143.098 233.91 143.617C239.133 144.097 244.474 143.481 249.515 142.06C259.553 139.231 266.94 132.518 272.361 123.817C278.538 113.901 283.033 102.286 282.67 90.4499Z" fill="black"/>
<path fill-rule="evenodd" clip-rule="evenodd" d="M129.244 68.8281C129.242 68.8311 129.227 68.8638 129.227 68.8638C129.246 68.8507 129.251 68.8389 129.244 68.8281Z" fill="black"/>
<path fill-rule="evenodd" clip-rule="evenodd" d="M129.741 68.9591C129.704 68.6432 129.622 68.334 129.498 68.0312C129.165 68.5572 128.868 68.7824 129.305 69.3394C129.45 69.2127 129.595 69.0859 129.741 68.9591Z" fill="black"/>
<path fill-rule="evenodd" clip-rule="evenodd" d="M152.879 144.135C153.251 143.74 152.601 143.591 152.354 143.586C152.378 144.01 152.168 145.025 152.748 145.221C152.609 144.838 152.653 144.476 152.879 144.135Z" fill="black"/>
<path fill-rule="evenodd" clip-rule="evenodd" d="M143.08 61.5031C142.441 62.7346 143.852 63.1167 144.669 62.5217C145.284 62.0744 145.647 60.9341 145.748 60.2025C146.075 57.835 144.415 55.5817 143.588 53.4812C143.374 52.9382 143.081 51.0762 142.393 51.0249C141.602 50.9661 141.543 52.6812 141.533 53.1238C141.503 54.4582 141.856 55.8172 142.271 57.0768C142.718 58.4348 143.826 60.0648 143.08 61.5031Z" fill="black"/>
<path fill-rule="evenodd" clip-rule="evenodd" d="M146.115 56.5636C148.57 58.7464 150.535 55.1109 150.363 52.9605C150.321 52.4276 149.96 50.4633 148.948 51.1782C148.439 51.5373 148.873 52.7045 148.63 53.2168C147.456 55.7012 146.325 51.8478 145.534 51.545C144.572 51.1765 144.475 52.4387 144.477 53.1133C144.479 54.4525 145.117 55.6767 146.115 56.5636Z" fill="black"/>
<path fill-rule="evenodd" clip-rule="evenodd" d="M137.197 56.9126C137.776 56.0034 138.487 54.7839 138.565 53.6947C138.687 52.0015 137.699 52.1428 136.886 53.3242C136.311 54.1586 135.88 55.5741 134.612 55.2223C133.046 54.7884 133.524 52.6864 132.648 51.6875C130.434 54.6558 134.623 60.9585 137.197 56.9126Z" fill="black"/>
<path fill-rule="evenodd" clip-rule="evenodd" d="M140.52 65.9907C141.435 66.1882 143.822 66.1153 142.995 64.7158C141.952 62.9528 138.483 65.551 140.52 65.9907Z" fill="black"/>
<path fill-rule="evenodd" clip-rule="evenodd" d="M172.6 13.4108C172.767 12.9126 172.537 12.8221 172.138 12.4297C171.759 12.7784 172.244 13.1452 172.6 13.4108Z" fill="black"/>
<path fill-rule="evenodd" clip-rule="evenodd" d="M189.674 103.66C190.278 103.756 190.473 103.437 190.257 102.703C189.304 102.641 189.11 102.96 189.674 103.66Z" fill="black"/>
<path fill-rule="evenodd" clip-rule="evenodd" d="M156.692 26.6788C157.358 26.9829 157.103 27.6068 157.092 28.1342C157.435 27.7618 158.128 27.0811 157.846 26.5463C157.411 25.7217 156.275 26.4886 156.692 26.6788Z" fill="black"/>
<path fill-rule="evenodd" clip-rule="evenodd" d="M133.991 16.3044C133.889 16.1066 133.788 15.9088 133.686 15.7109C133.272 16.0424 132.633 16.919 133.291 17.3462C133.56 17.0196 133.794 16.6723 133.991 16.3044Z" fill="black"/>
<path fill-rule="evenodd" clip-rule="evenodd" d="M141.983 22.1229C142.812 22.7719 142.415 20.7799 142.39 20.6172C142.267 20.8509 141.565 21.795 141.983 22.1229Z" fill="black"/>
<path fill-rule="evenodd" clip-rule="evenodd" d="M141.522 21.1113C141.459 20.9467 141.395 20.7821 141.332 20.6172C140.996 20.9278 140.584 21.562 141.139 21.9254C141.292 21.6709 141.419 21.3996 141.522 21.1113Z" fill="black"/>
<path fill-rule="evenodd" clip-rule="evenodd" d="M146.796 27.9499C146.864 28.0123 146.932 28.0747 146.999 28.1374C147.272 27.5868 146.962 27.1731 146.445 27.1562C146.482 27.4654 146.599 27.73 146.796 27.9499Z" fill="black"/>
<path fill-rule="evenodd" clip-rule="evenodd" d="M124.586 89.8876C124.915 89.6642 125.213 89.4093 125.482 89.1233C124.509 88.5293 125.092 89.8165 123.92 89.0261C123.668 89.3744 124.08 90.1539 124.586 89.8876Z" fill="black"/>
<path fill-rule="evenodd" clip-rule="evenodd" d="M165.478 143.903C165.848 143.336 165.915 143.352 165.41 142.922C164.988 143.623 165.032 143.443 165.478 143.903Z" fill="black"/>
<path fill-rule="evenodd" clip-rule="evenodd" d="M88.1328 53.6635C88.3343 53.8733 88.5358 54.0831 88.7372 54.2926C88.8313 54.0181 89.3442 53.2426 88.9959 52.9844C88.7083 53.2107 88.4204 53.4371 88.1328 53.6635Z" fill="black"/>
<path fill-rule="evenodd" clip-rule="evenodd" d="M95.2924 55.7396C94.9708 55.686 94.2015 55.4517 94.0234 55.7503C94.4941 56.1353 95.556 55.7837 95.2924 55.7396Z" fill="black"/>
</svg>
