<svg width="541" height="192" viewBox="0 0 541 192" fill="none" xmlns="http://www.w3.org/2000/svg">
<path d="M27.4242 54.8485C12.2775 54.8485 0 42.5692 0 27.4243C0 12.2775 12.2793 0 27.4242 0V54.8485Z" fill="#787878"/>
<path d="M27.418 191.997C65.2867 191.997 95.9877 161.298 95.9877 123.427C95.9877 85.5566 65.2885 54.8574 27.418 54.8574V191.997V191.997Z" fill="#FDCE1E"/>
<path d="M0 27.4261L27.4261 0V54.8503L0 27.4261Z" fill="#1B3355"/>
<path d="M27.418 192V123.432H95.9859L27.418 192Z" fill="#CC912E"/>
<path d="M61.701 64.0347L27.418 123.43H95.9859L61.701 64.0347Z" fill="#A5A0A3"/>
<path d="M61.7112 102.396L47.999 129.826H75.4233L61.7112 102.396Z" fill="white"/>
<path d="M131.01 123.007L155.605 118.276C155.605 120.719 155.649 122.874 155.739 124.742C155.827 126.608 156.061 128.642 156.439 130.84C156.815 133.041 157.327 134.839 157.972 136.239C158.615 137.639 159.527 138.816 160.704 139.771C161.881 140.727 163.27 141.204 164.869 141.204C169.668 141.204 172.068 138.138 172.068 132.006C172.068 123.609 167.337 115.255 157.872 106.945L150.34 100.547C147.941 98.5473 146.029 96.8806 144.609 95.5483C143.187 94.216 141.51 92.4159 139.576 90.1497C137.642 87.8835 136.133 85.696 135.044 83.5851C133.954 81.4743 133.021 78.9304 132.244 75.9533C131.465 72.9762 131.078 69.8219 131.078 66.4884C131.078 56.7567 134.166 49.059 140.342 43.3936C146.517 37.7282 154.715 34.8955 164.937 34.8955C173.424 34.8955 180.643 37.9183 186.599 43.9602C192.553 50.0039 195.53 57.2903 195.53 65.8213L195.464 66.6876C195.464 67.2651 195.464 67.9321 195.464 68.6869L170.403 72.152C170.403 71.664 170.436 70.8964 170.504 69.8529C170.569 68.8094 170.604 67.9541 170.604 67.287C170.604 65.6879 170.493 64.1546 170.272 62.6889C170.049 61.2232 169.681 59.7557 169.171 58.29C168.66 56.8243 167.872 55.6565 166.805 54.7902C165.737 53.924 164.449 53.4908 162.939 53.4908C160.273 53.4908 158.274 54.5362 156.941 56.6233C155.609 58.7122 154.942 61.1775 154.942 64.0212C154.942 66.5103 155.331 68.8423 156.108 71.0189C156.885 73.1973 158.064 75.2296 159.641 77.1174C161.218 79.0071 162.673 80.5733 164.007 81.8161C165.339 83.0606 167.117 84.5812 169.34 86.3813C171.562 88.1814 173.139 89.5027 174.071 90.3471C177.492 93.3698 180.38 96.2026 182.735 98.8452C185.089 101.49 187.312 104.478 189.401 107.809C191.489 111.143 193.056 114.741 194.099 118.607C195.143 122.472 195.665 126.65 195.665 131.136C195.665 139.534 192.666 146.411 186.668 151.766C180.67 157.12 173.382 159.798 164.807 159.798C159.251 159.798 154.321 158.774 150.011 156.731C145.7 154.688 142.224 151.91 139.58 148.399C136.935 144.89 134.903 141.001 133.481 136.736C132.054 132.472 131.231 127.896 131.01 123.007Z" fill="#1B3355"/>
<path d="M208.473 123.405V88.7344C208.473 64.3603 218.521 52.1724 238.616 52.1724C258.75 52.1724 268.817 64.3603 268.817 88.7344V122.889C268.817 127.016 268.511 130.827 267.899 134.323C267.289 137.819 266.247 141.134 264.776 144.266C263.305 147.399 261.433 150.063 259.16 152.26C256.886 154.457 254.012 156.186 250.536 157.447C247.06 158.708 243.087 159.338 238.616 159.338C234.184 159.338 230.23 158.717 226.754 157.476C223.276 156.235 220.412 154.554 218.157 152.434C215.902 150.314 214.039 147.715 212.57 144.639C211.099 141.563 210.048 138.288 209.418 134.811C208.787 131.333 208.473 127.531 208.473 123.405ZM247.957 128.105V83.5204C247.957 73.3573 244.843 68.2767 238.616 68.2767C236.743 68.2767 235.159 68.7446 233.859 69.6803C232.56 70.6179 231.604 71.8971 230.994 73.52C230.381 75.1447 229.952 76.7493 229.703 78.3338C229.455 79.9201 229.331 81.649 229.331 83.5204V128.105C229.331 138.23 232.425 143.292 238.614 143.292C244.843 143.29 247.957 138.23 247.957 128.105Z" fill="#1B3355"/>
<path d="M293.177 157.333V69.7678H278.048V54.1807H328.88V69.7678H314.037V157.335H293.177V157.333Z" fill="#1B3355"/>
<path d="M340.512 157.33V54.1758H363.206C368.364 54.1758 372.9 54.6637 376.816 55.6378C380.732 56.6119 384.161 58.1397 387.103 60.2231C390.046 62.3066 392.281 65.1137 393.809 68.6482C395.336 72.1826 396.1 76.4134 396.1 81.3423C396.1 83.4824 396.024 85.3922 395.872 87.0735C395.718 88.7549 395.366 90.6756 394.812 92.8321C394.258 94.9905 393.503 96.9003 392.548 98.5634C391.592 100.225 390.217 101.858 388.421 103.463C386.625 105.068 384.505 106.405 382.059 107.474C388.249 127.112 393.635 143.731 398.22 157.332H376.615L364.809 109.823H361.371V157.332H340.512V157.33ZM361.371 97.0995H367.331C368.936 97.0995 370.312 96.564 371.458 95.4949C372.604 94.4258 373.435 93.0697 373.95 91.4268C374.466 89.7838 374.829 88.2742 375.04 86.8999C375.25 85.5238 375.354 84.2262 375.354 83.0036C375.354 81.781 375.268 80.5199 375.096 79.2205C374.924 77.923 374.618 76.4792 374.179 74.8929C373.738 73.3084 373.013 72.009 372 70.9966C370.988 69.9841 369.756 69.4779 368.303 69.4779H361.37V97.0995H361.371Z" fill="#1B3355"/>
<path d="M409.037 118.992V54.1758H429.897V118.361C429.897 122.029 429.915 124.694 429.953 126.355C429.992 128.016 430.087 130.043 430.24 132.43C430.392 134.818 430.661 136.491 431.043 137.445C431.425 138.4 431.949 139.431 432.618 140.539C433.285 141.648 434.155 142.372 435.226 142.717C436.295 143.061 437.594 143.232 439.122 143.232C440.65 143.232 441.95 143.061 443.019 142.717C444.088 142.373 444.958 141.657 445.627 140.568C446.295 139.479 446.82 138.457 447.202 137.501C447.584 136.547 447.851 134.893 448.004 132.545C448.156 130.195 448.253 128.21 448.291 126.585C448.329 124.962 448.348 122.336 448.348 118.705C448.348 118.553 448.348 118.438 448.348 118.361V54.1758H469.207V118.992C469.207 122.278 469.112 125.258 468.921 127.932C468.729 130.606 468.367 133.376 467.831 136.242C467.296 139.108 466.57 141.639 465.653 143.835C464.735 146.032 463.513 148.134 461.985 150.139C460.457 152.145 458.652 153.797 456.57 155.095C454.487 156.394 451.975 157.425 449.033 158.189C446.091 158.953 442.787 159.335 439.119 159.335C435.451 159.335 432.147 158.953 429.204 158.189C426.262 157.425 423.76 156.394 421.697 155.095C419.633 153.797 417.837 152.144 416.309 150.139C414.781 148.132 413.559 146.032 412.641 143.835C411.724 141.639 410.989 139.108 410.435 136.242C409.881 133.376 409.509 130.608 409.319 127.932C409.132 125.258 409.037 122.278 409.037 118.992Z" fill="#1B3355"/>
<path d="M480.864 157.333L520.694 54.1782H540.064L500.578 157.333H480.864Z" fill="#1B3355"/>
<path d="M540.064 157.333L500.234 54.1782H480.864L520.35 157.333H540.064Z" fill="#FDCE1E"/>
</svg>
