<svg width="457" height="140" viewBox="0 0 457 140" fill="none" xmlns="http://www.w3.org/2000/svg">
<path d="M20.5019 40.29C17.8368 40.3642 15.1838 39.9036 12.6998 38.9353C10.2158 37.967 7.95126 36.5108 6.03994 34.6527C4.12862 32.7946 2.60934 30.5723 1.57192 28.1172C0.534507 25.6621 0 23.024 0 20.3588C0 17.6937 0.534507 15.0556 1.57192 12.6005C2.60934 10.1454 4.12862 7.9231 6.03994 6.06499C7.95126 4.20687 10.2158 2.75064 12.6998 1.78238C15.1838 0.814112 17.8368 0.353454 20.5019 0.427651V40.29Z" fill="#787878"/>
<path d="M20.502 140C48.0406 140 70.3685 117.68 70.3685 90.1524C70.3685 62.6244 48.0406 40.3052 20.502 40.3052V140Z" fill="#FDCE1E"/>
<path d="M0.562012 20.3662L20.5086 0.427246V40.2896L0.562012 20.3662Z" fill="#1D1D1B"/>
<path d="M20.502 140V90.1523H70.3685L20.502 140Z" fill="#CC912E"/>
<path d="M45.4275 46.9673L20.502 90.1528H70.3685L45.4275 46.9673Z" fill="#A5A0A3"/>
<path d="M45.4259 74.8662L35.4526 94.8051H55.3992L45.4259 74.8662Z" fill="white"/>
<path d="M96.2627 89.8438L114.137 86.397C114.137 88.1745 114.168 89.7511 114.23 91.1112C114.322 92.5927 114.493 94.0682 114.74 95.5318C115.019 97.1393 115.39 98.4376 115.854 99.4578C116.316 100.453 116.998 101.33 117.848 102.024C118.703 102.721 119.776 103.093 120.879 103.075C124.373 103.075 126.105 100.849 126.105 96.3819C126.105 90.2817 122.667 84.2125 115.792 78.1741L110.318 73.5217C108.571 72.0688 107.179 70.8477 106.143 69.8894C104.855 68.6445 103.632 67.3341 102.479 65.9635C101.203 64.5016 100.098 62.8993 99.1851 61.1874C98.3965 59.6572 97.7162 57.8024 97.1595 55.6385C96.5794 53.3923 96.2936 51.0802 96.3091 48.7604C96.3091 41.6813 98.5512 36.086 103.035 31.9746C107.519 27.8632 113.483 25.8023 120.925 25.792C127.1 25.792 132.352 27.992 136.682 32.3919C141.011 36.7919 143.176 42.0883 143.176 48.2812L143.114 48.8995V50.3524L124.899 52.8718C124.899 52.5318 124.93 51.9599 124.977 51.2025C125.023 50.4451 125.038 49.8269 125.038 49.3477C125.042 48.2256 124.964 47.1046 124.806 45.9937C124.635 44.9102 124.366 43.8445 124.002 42.8096C123.68 41.8156 123.086 40.932 122.286 40.2593C121.513 39.6256 120.57 39.3164 119.472 39.3164C117.539 39.3164 116.07 40.0738 115.111 41.5886C114.153 43.1033 113.658 44.8962 113.658 46.9674C113.642 48.6991 113.93 50.4202 114.508 52.0526C115.09 53.6736 115.96 55.1764 117.075 56.4886C118.06 57.6914 119.119 58.8322 120.245 59.9045C121.219 60.801 122.503 61.9139 124.126 63.2277C125.75 64.5415 126.878 65.4998 127.559 66.1026C129.78 68.039 131.887 70.1033 133.867 72.2852C135.661 74.3142 137.28 76.491 138.707 78.7924C140.229 81.2259 141.381 83.8721 142.124 86.6443C142.905 89.6153 143.29 92.6764 143.269 95.7482C143.269 101.859 141.088 106.861 136.728 110.756C132.368 114.652 127.069 116.594 120.833 116.584C116.781 116.584 113.194 115.842 110.071 114.358C106.932 112.874 104.411 110.849 102.479 108.299C100.551 105.736 99.057 102.875 98.0563 99.8287C96.9953 96.6003 96.3916 93.2394 96.2627 89.8438V89.8438Z" fill="#1B3355"/>
<path d="M168.513 114.791V40.7694H155.726V27.585H198.711V40.7694H186.156V114.791H168.513Z" fill="#1B3355"/>
<path d="M276.413 114.791V27.585H297.55L306.858 85.7324L316.878 27.585H337.288V114.791H324.3L323.913 53.4592C322.934 59.7654 321.238 69.9873 318.826 84.1249C316.414 98.2625 314.718 108.484 313.739 114.791H300.55L289.834 53.0728L289.447 114.791H276.413Z" fill="#1B3355"/>
<path d="M234.236 68.56L243.591 114.79H260.878L234.236 15.7451L207.609 114.79H224.896L234.236 68.56Z" fill="#1B3355"/>
<path d="M234.238 68.5601L224.898 114.79H243.593L234.238 68.5601Z" fill="#FDCE1E"/>
<path d="M456.636 101.931H350.471V114.62H456.636V101.931Z" fill="#1B3355"/>
<path d="M361.867 93.2127C359.377 93.2127 357.321 92.7336 355.651 91.7598C353.981 90.786 352.744 89.3795 351.893 87.5093C351.043 85.639 350.563 83.3669 350.471 80.6466L356.919 79.3791C356.967 80.8023 357.164 82.2165 357.506 83.5988C357.836 84.8147 358.331 85.7575 358.991 86.4273C359.64 87.0765 360.521 87.4165 361.604 87.4165C362.686 87.4165 363.691 87.0456 364.201 86.3191C364.712 85.5927 364.959 84.6653 364.959 83.5524C364.959 81.7594 364.557 80.2756 363.737 79.1318C362.918 77.9881 361.836 76.8134 360.49 75.6696L355.295 71.0944C353.898 69.9078 352.72 68.4848 351.816 66.8903C350.95 65.3601 350.517 63.4435 350.517 61.1714C350.517 57.9255 351.46 55.4061 353.362 53.644C355.264 51.882 357.862 51.001 361.155 51.001C363.088 51.001 364.696 51.2946 365.98 51.8975C367.203 52.4324 368.265 53.28 369.057 54.355C369.831 55.4407 370.407 56.6547 370.757 57.941C371.141 59.3295 371.379 60.7539 371.469 62.1915L365.067 63.3044C365.009 62.1462 364.864 60.9941 364.634 59.8576C364.418 58.8374 364.016 58.0337 363.459 57.4618C362.903 56.8899 362.083 56.5962 361.001 56.5962C359.918 56.5962 359.021 56.9672 358.434 57.6936C357.846 58.4201 357.537 59.332 357.537 60.414C357.537 61.8051 357.831 62.9489 358.403 63.8453C358.975 64.7418 359.81 65.6692 360.892 66.6121L366.026 71.1408C367.734 72.5707 369.205 74.2608 370.386 76.1487C371.577 78.0653 372.18 80.3838 372.18 83.0887C372.18 85.0517 371.747 86.7983 370.897 88.3285C370.049 89.8379 368.796 91.08 367.278 91.9144C365.732 92.7799 363.923 93.2127 361.867 93.2127Z" fill="#1B3355"/>
<path d="M387.395 93.2129C384.349 93.2129 381.967 92.6565 380.282 91.5281C378.597 90.3998 377.406 88.8232 376.772 86.7521C376.138 84.6809 375.798 82.2079 375.798 79.3329V51.4648H383.127V80.1985C383.12 81.4137 383.203 82.6278 383.374 83.8308C383.545 84.9591 383.947 85.8865 384.581 86.5821C385.215 87.2776 386.142 87.6176 387.395 87.6176C388.647 87.6176 389.683 87.2776 390.271 86.5821C390.858 85.8865 391.26 84.9591 391.446 83.8308C391.636 82.6295 391.729 81.4148 391.724 80.1985V51.4648H398.992V79.3329C398.992 82.2079 398.667 84.6809 398.033 86.7521C397.399 88.8232 396.224 90.4153 394.538 91.5281C392.853 92.641 390.487 93.2129 387.395 93.2129Z" fill="#1B3355"/>
<path d="M404.59 92.6565V51.4648H412.012V92.6565H404.59Z" fill="#1B3355"/>
<path d="M421.981 92.6565V56.9983H415.425V51.4648H435.974V56.9983H429.511V92.6565H421.981Z" fill="#1B3355"/>
<path d="M439.243 92.6565V51.4648H456.53V56.751H446.757V68.6061H454.442V73.8304H446.757V87.4631H456.638V92.6565H439.243Z" fill="#1B3355"/>
</svg>
