<svg width="274" height="195" viewBox="0 0 274 195" fill="none" xmlns="http://www.w3.org/2000/svg">
<path fill-rule="evenodd" clip-rule="evenodd" d="M243.023 115.274C237.068 122.842 226.906 124.038 217.909 123.974C212.472 124.006 207.067 123.456 201.759 122.421C198.911 121.839 196.063 121.03 193.312 120.093C191.5 119.478 188.782 119.155 188.005 117.214C185.966 112.072 187.455 105.603 188.296 100.364C188.717 97.7115 189.04 95.027 189.461 92.3749C189.72 90.6608 189.85 88.7849 190.562 87.2001C191.403 85.3243 192.471 85.7124 194.219 86.2298C196.646 86.9414 199.17 87.2325 201.662 87.6206C207.779 88.5585 213.119 90.4344 218.686 93.1188C224.188 95.7709 229.528 98.3583 234.414 102.045C236.874 103.857 239.075 105.959 241.049 108.288C242.602 110.034 244.9 112.88 243.023 115.274ZM216.97 148.845C216.938 149.654 207.585 147.196 206.355 146.937C198.297 145.126 190.044 143.056 182.438 139.789C175.318 136.749 169.04 133.256 163.441 127.822C160.852 125.3 158.457 122.648 156.224 119.801C155.091 118.378 153.57 118.54 152.308 117.343C151.175 116.276 150.301 115.403 150.657 113.786C153.473 114.53 158.683 119.187 161.628 116.826C163.311 115.468 160.981 114.077 159.913 113.301C157.939 111.813 156.159 110.066 154.605 108.126C157.324 108.643 159.913 109.678 162.276 111.101C163.344 111.748 166.968 114.044 167.81 111.845C168.328 110.487 165.868 108.805 165.091 108.061C163.214 106.218 161.175 104.083 160.172 101.625C162.632 101.043 164.962 102.951 166.677 104.503C168.554 106.218 170.852 108.029 172.406 110.034C173.215 111.069 173.376 112.266 174.024 113.365C174.736 114.627 175.868 115.694 176.969 116.6C179.072 118.378 181.5 119.672 184.024 120.772C189.817 123.197 195.869 125.041 202.051 126.205C205.028 126.787 208.038 127.111 211.048 127.176C213.41 127.24 214.478 127.952 215.385 130.151C217.779 136.135 217.326 142.635 216.97 148.845ZM146.644 103.857C145.285 105.15 143.505 105.926 142.048 107.188C140.754 108.32 139.395 109.355 137.938 110.293C136.449 111.231 135.317 110.584 133.957 109.711C132.372 108.708 130.559 108.32 128.909 107.414C123.245 104.342 116.352 96.8059 117.387 89.8846C117.84 86.9414 119.361 84.0629 122.112 82.7368C124.604 81.5402 128.261 80.861 130.915 81.8636C132.436 82.4458 133.504 83.6748 134.475 84.9361C135.608 86.3916 136.029 86.1652 137.194 84.7744C139.233 82.284 142.631 80.1171 145.997 80.1494C147.647 80.1818 149.298 80.5375 150.819 81.2167C151.013 81.3138 151.143 81.6049 151.337 81.7019C151.596 81.8313 151.984 81.5725 152.178 81.6695C152.631 81.9606 153.052 82.8015 153.311 83.2543C154.314 85.0332 156.159 88.4938 154.314 89.9816C154.314 89.9816 154.411 91.9868 154.379 92.2132C154.217 93.3776 153.861 94.4772 153.311 95.5122C151.66 98.8435 149.298 101.399 146.644 103.857ZM149.363 131.768C148.068 132.156 146.676 128.114 147.906 127.467C149.104 126.852 150.528 131.412 149.363 131.768ZM128.973 126.917C128.52 128.437 128.326 130.183 127.226 131.445C126.222 130.248 126.125 128.049 127.096 126.82C127.679 126.108 129.459 125.235 128.973 126.917ZM170.528 100.008C170.528 100.04 172.082 100.784 171.338 101.625C170.27 102.757 170.399 100.558 170.528 100.008ZM177.001 87.4912C176.969 89.0437 173.7 88.6555 173.732 87.1031C173.732 85.1949 177.034 85.8417 177.001 87.4912ZM173.085 74.5218C173.409 73.0987 179.137 71.1258 178.975 73.6162C178.878 74.8452 172.373 77.5297 173.085 74.5218ZM114.442 122.712C113.795 123.489 112.889 123.78 112.112 124.362C111.303 124.976 110.72 125.785 110.041 126.529C108.099 128.534 105.769 130.183 103.697 131.995C99.8784 135.358 96.1889 138.981 91.9493 141.859C84.3438 146.969 75.5409 149.751 66.8027 152.209C66.0907 152.403 63.987 153.244 63.275 152.629C62.4983 151.982 62.8867 149.654 62.919 148.78C63.0485 145.19 63.4692 141.568 63.4368 137.978C63.4045 136.523 62.9837 134.42 63.7605 133.062C64.6019 131.574 66.9969 131.121 68.4856 130.539C72.9841 128.825 77.3209 125.914 81.3016 123.23C86.1885 119.931 91.1402 116.567 96.1566 113.495C101.076 110.487 106.513 108.449 112.015 106.735C112.274 107.285 109.652 108.999 109.361 109.225C107.937 110.39 106.351 111.586 105.283 113.107C104.539 114.174 103.762 116.632 105.833 116.697C106.837 116.729 108.325 115.759 109.264 115.435C110.785 114.918 112.338 114.562 113.924 114.303C112.565 115.791 107.937 118.508 108.778 120.998C109.588 123.424 114.313 120.61 115.931 120.61C115.64 121.483 114.992 122.065 114.442 122.712ZM58.7117 129.472C55.7019 130.539 52.595 131.121 49.4881 131.833C46.5106 132.48 43.7597 132.965 40.7175 132.609C36.5102 132.092 31.8498 130.345 31.332 125.558C30.6847 119.899 34.6978 114.724 38.1284 110.649C42.3033 105.732 46.9961 101.269 52.0772 97.291C57.1583 93.3129 62.6277 89.7875 68.3561 86.812C72.7252 84.548 77.6445 83.1896 82.2725 81.4755C83.1464 81.1521 85.5736 80.0201 86.4151 80.958C87.0947 81.7019 86.1885 82.9956 85.8649 83.6748C85.2824 85.0655 85.1853 86.4239 85.0558 87.9117C84.3762 94.5096 83.5671 101.107 83.1787 107.705C83.0816 109.549 82.8874 111.489 82.9845 113.333C83.0493 114.368 83.5671 115.662 83.2111 116.664C82.5314 118.572 79.3922 119.866 77.7416 120.707C74.7641 122.227 71.6572 123.392 68.6474 124.847C65.3787 126.529 62.1747 128.275 58.7117 129.472ZM100.59 86.6503C101.432 86.5209 102.662 86.3269 103.406 86.8444C104.377 87.5559 104.118 88.5262 103.212 89.0113C102.5 89.3994 100.849 89.5288 100.17 89.173C99.0046 88.5262 99.1988 86.812 100.59 86.6503ZM105.186 101.916C104.506 103.016 102.079 103.76 102.273 101.69C102.468 99.8784 106.416 99.8461 105.186 101.916ZM104.28 70.479C105.348 70.8994 107.322 71.2552 107.646 72.6459C107.937 73.9397 106.707 73.8426 105.833 73.4869C105.089 73.1958 101.885 70.479 104.28 70.479ZM273.024 119.64C272.409 117.182 272.863 114.497 272.539 111.975C272.215 109.581 271.6 107.253 270.727 105.021C268.817 99.9431 266.584 95.3828 263.477 90.9519C257.587 82.5751 250.79 75.201 242.538 69.0883C234.382 63.0078 225.417 58.1565 215.87 54.6958C205.773 51.0411 195.578 49.7797 184.93 49.0682C181.759 48.8741 178.555 48.6154 175.383 48.1949C173.053 47.9038 170.172 47.5481 167.875 48.2596C166.451 48.7124 165.642 49.9738 167.195 50.7823C168.295 51.3645 169.752 51.4292 170.982 51.5909C169.493 56.2806 167.098 61.0026 163.279 64.2369C159.557 67.4064 154.573 68.4737 149.848 69.2823C147.291 69.7028 144.443 70.0585 141.854 69.8645C140.204 69.7351 138.941 68.9912 138.262 70.673C137.809 71.8374 137.582 73.1311 136.967 71.3522C136.255 69.25 135.899 69.2823 133.666 68.6678C129.103 67.4388 123.892 66.3391 119.944 63.7194C115.834 61.0026 114.377 56.5717 112.08 52.4642C111.497 51.4615 109.782 49.3916 110.688 48.2273C111.497 47.16 114.086 47.257 115.284 47.16C116.546 47.0306 117.808 47.0306 119.07 46.9983C119.814 46.9659 121.271 47.257 120.98 46.1897C120.526 44.5402 115.769 44.7666 114.604 44.7343C112.403 44.6696 110.202 44.7343 108.002 44.993C97.0951 46.2544 86.2856 48.389 75.7027 51.3645C55.3459 57.0891 35.604 67.6652 20.7491 82.8986C6.47667 97.5174 1.97811 121.839 10.7487 140.501C15.312 150.204 25.1829 154.182 34.7949 157.384C39.8437 159.065 45.2161 160.424 50.5884 160.1C53.1775 159.939 55.6048 159.259 58.1292 158.742C59.2296 158.516 60.4594 158.16 61.5921 158.257C62.4336 158.322 63.275 159.098 64.0518 158.677C64.6343 158.386 64.8608 157.545 65.5728 157.19C66.4143 156.769 67.4176 156.607 68.3238 156.381C70.8158 155.766 73.243 154.796 75.7027 153.988C78.1947 153.114 80.6544 152.112 83.0493 150.98C84.2791 150.43 87.0947 148.198 87.9038 149.815C88.2598 150.559 88.098 151.982 88.1951 152.791C88.3569 154.149 88.5187 155.508 88.7453 156.898C89.1984 159.906 89.7162 162.882 90.2664 165.857C91.2373 171.226 92.4995 176.369 94.6031 181.447C96.286 185.489 97.7424 190.05 100.849 193.284C102.144 194.707 104.118 195.289 105.995 194.869C108.196 194.351 109.296 192.346 110.656 190.729C113.601 187.139 118.488 184.422 123.018 183.419C128.553 182.223 133.925 183.969 139.2 185.489C144.767 187.074 150.463 188.594 155.932 190.502C161.046 192.281 166.548 194.901 172.082 194.675C176.904 194.481 181.403 190.567 184.898 187.559C188.393 184.551 192.762 180.153 197.779 180.509C200.271 180.67 202.536 181.899 204.963 182.384C207.617 182.934 210.465 182.999 213.184 183.193C216.55 183.452 224.09 182.579 225.32 178.503C225.514 177.889 225.514 176.66 224.705 176.433C223.961 176.207 223.605 177.08 222.925 177.016C221.534 176.951 220.433 174.493 219.657 173.523C216.55 169.706 212.245 166.828 208.75 163.367C204.802 159.454 201.436 154.732 198.458 150.042C199.818 149.686 201.242 150.268 202.569 150.559C204.154 150.883 205.708 151.303 207.261 151.724C208.977 152.209 210.724 152.532 212.472 152.888C213.766 153.147 215.514 153.244 216.679 153.891C217.715 154.473 218.265 155.087 219.559 155.249C220.854 155.411 222.181 155.281 223.476 155.281C227.003 155.249 230.498 155.184 233.994 154.829C246.357 153.502 259.496 148.295 266.94 137.913C269.011 135.1 270.597 131.962 271.633 128.631C272.345 126.011 273.736 122.357 273.024 119.64Z" fill="black"/>
<path fill-rule="evenodd" clip-rule="evenodd" d="M156.938 0.00197851C160.207 0.0343211 163.249 1.0046 166.259 2.10425C168.913 3.07453 171.761 3.94778 173.929 5.88834C177.813 9.349 178.816 15.0736 179.463 19.9897C180.24 26.1025 177.618 31.2449 175.418 36.7755C173.346 41.9504 169.527 46.1549 165.029 49.3245C162.666 51.0063 160.045 52.0089 157.294 52.8822C154.511 53.7878 151.825 54.9844 148.847 54.9844C144.316 54.9844 138.523 52.8175 136.614 48.3865C135.74 46.349 136.581 45.9932 138.361 47.0928C140.918 48.6776 143.345 50.4241 146.323 51.1357C152.083 52.5264 159.009 50.3918 164.058 47.578C169.107 44.7642 172.505 40.5596 174.77 35.2878C177.068 29.9836 177.942 24.7441 177.068 19.0518C176.324 14.2004 174.835 9.76945 170.466 7.1497C161.048 1.4574 148.329 1.94254 139.947 9.31665C138.782 10.3193 137.649 11.3219 136.484 12.2922C135.74 12.9067 134.834 13.6506 134.963 14.7179C135.06 15.6235 137.002 19.1165 134.672 18.0492C132.762 17.1759 131.759 15.4618 129.461 15.2677C127.034 15.0413 124.121 16.9172 123.377 19.2782C122.665 21.5422 123.927 24.6147 125.869 25.9084C127.066 26.717 128.393 26.5876 129.752 26.5553C130.432 26.5553 132.309 26.3289 132.762 27.0404C133.571 28.3018 130.756 29.6278 129.85 29.9189C127.649 30.5981 125.06 29.7895 123.765 27.849C122.438 25.8437 121.629 23.5474 121.435 21.1541C121.241 18.8577 121.823 16.5937 123.118 14.6855C124.542 12.6803 127.455 10.4486 130.076 11.1602C131.209 11.4513 132.115 12.6479 133.248 12.842C133.96 12.9714 133.668 13.0684 134.251 12.5509C134.607 12.2275 134.963 11.613 135.319 11.2249C137.293 8.96089 139.235 6.56753 141.63 4.75634C145.87 1.4574 151.598 -0.0627067 156.938 0.00197851ZM145.028 44.6671C145.546 43.4705 146.484 45.6051 146.743 45.9608C147.294 46.6724 148.588 47.2222 148.523 48.2572C148.426 49.9713 146.096 49.6479 145.319 48.7747C144.413 47.7397 144.51 45.8638 145.028 44.6671ZM161.631 36.5491C162.893 38.522 161.339 40.6243 160.369 42.3708C159.43 44.0203 158.524 45.9285 157.423 47.4809C155.579 50.0684 151.566 47.2545 151.436 44.6024C151.339 42.5649 152.795 43.4381 153.734 44.2143C154.705 44.9906 155.158 45.1846 156.161 44.3437C158.168 42.6296 159.074 39.7187 160.466 37.5518C160.725 37.099 161.242 36.8402 161.631 36.5491ZM165.255 37.196C165.579 38.1339 164.899 40.6567 166.809 40.3979C167.845 40.2685 168.071 38.7484 168.621 38.1016C170.466 35.9023 169.916 40.0745 169.43 41.1094C168.362 43.4058 165.385 44.9906 163.896 42.0797C163.378 40.9477 163.314 39.654 163.637 38.4574C163.767 37.8105 164.641 35.4495 165.255 37.196ZM148.329 32.7004C148.167 33.8 147.132 36.0317 148.394 36.8079C149.527 37.5194 151.469 35.9993 152.342 35.3525C153.249 34.7056 155.287 32.7974 155.352 35.1584C155.385 36.3551 154.187 37.7782 153.346 38.4897C151.533 39.9451 147.714 41.2712 146.387 38.522C145.643 37.0019 146.064 34.8673 146.549 33.3472C146.873 32.0859 148.718 30.0159 148.329 32.7004ZM172.278 26.62C173.023 27.4932 174.77 29.4014 173.832 30.6304C172.699 32.0535 170.887 29.4338 170.175 28.6899C169.527 28.043 168.168 26.1348 168.751 25.1645C169.689 23.5151 171.631 25.8437 172.278 26.62ZM160.595 22.9006C163.022 24.4853 159.818 25.6173 158.459 25.7467C156.776 25.9084 154.64 26.0378 153.119 25.1969C150.951 24.0325 151.663 22.286 153.766 21.8656C155.902 21.4451 158.718 21.6715 160.595 22.9006ZM129.008 17.8551C130.788 18.2109 132.827 18.6637 133.442 20.6042C134.057 22.6095 133.183 23.2887 131.338 22.8359C129.655 22.4154 127.131 21.995 126.16 20.3455C125.027 18.3726 127.358 17.5317 129.008 17.8551Z" fill="black"/>
<path fill-rule="evenodd" clip-rule="evenodd" d="M30.7161 61.0995C30.1012 63.0401 27.0913 64.3338 25.5702 65.4981C20.2302 69.5733 15.1491 73.9396 10.3269 78.5969C7.83491 81.0226 5.95782 83.9981 3.82181 86.6826C3.30399 87.3294 2.36544 88.8172 1.32981 88.6878C0.197074 88.5261 -0.0294716 86.5855 0.00289214 85.7446C0.132347 82.8338 2.78617 80.0523 4.66327 78.0471C6.79927 75.8154 9.06474 73.6161 11.3949 71.5785C13.9517 69.3146 16.7349 67.4063 19.5506 65.4981C22.3339 63.6546 24.9877 61.4876 27.8681 59.8058C29.195 58.9973 31.4281 58.7062 30.7161 61.0995ZM215.707 42.7289C217.908 42.7936 220.076 43.5375 222.148 44.1843C226.743 45.6721 231.08 47.7097 235.384 49.8443C242.957 53.6284 250.142 58.124 256.841 63.3312C258.233 64.3661 259.689 65.3041 261.178 66.1773C262.149 66.7595 263.541 67.4387 263.897 68.603C264.835 71.5462 260.045 68.603 259.366 68.1826L258.395 67.6004C244.22 58.8356 230.077 50.2971 214.057 45.284C213.442 45.1546 213.053 44.5401 213.183 43.9256C213.215 43.7639 213.28 43.6345 213.377 43.5051C213.959 42.6319 214.898 42.6966 215.707 42.7289ZM30.0688 48.8417C29.9717 49.7473 28.9684 49.9413 28.2564 50.2324C25.6997 51.2997 23.1106 52.2053 20.5539 53.305C15.8288 55.3102 11.5244 58.2534 6.57273 59.7735C5.44 60.1293 5.27818 58.9973 5.56945 58.221C5.89309 57.3478 6.89637 56.7656 7.64073 56.2481C9.74437 54.8251 12.1393 53.7901 14.4695 52.7875C16.7673 51.7849 19.1622 51.041 21.5248 50.2001C23.7255 49.4238 26.2822 48.0008 28.6448 47.8714H28.7419C29.551 47.8714 30.1659 47.8067 30.0688 48.8417ZM219.753 35.2901C217.487 34.6433 219.623 33.2202 220.982 33.3172C222.471 33.4143 223.928 34.1258 225.319 34.5462C229.591 35.7429 233.734 37.3277 237.714 39.2683C238.329 39.5593 240.983 40.9824 239.203 41.6293C237.973 42.0821 235.125 40.1739 234.09 39.7534C229.494 37.8128 224.542 36.6485 219.753 35.2901Z" fill="black"/>
<path fill-rule="evenodd" clip-rule="evenodd" d="M129.944 39.9162C130.235 39.0753 133.698 30.0517 132.339 29.7929C130.882 29.5018 128.973 34.7413 128.552 35.6793C126.999 39.1723 126.092 42.924 125.38 46.6758C124.895 49.2955 124.442 51.9476 124.604 54.6321C124.733 56.6696 125.575 56.9931 126.966 58.2544C126.966 52.0123 127.97 45.8349 129.944 39.9162Z" fill="black"/>
</svg>
