<svg width="173" height="109" viewBox="0 0 173 109" fill="none" xmlns="http://www.w3.org/2000/svg">
<path d="M99.6723 23.0754C98.8369 21.9037 97.9656 20.7612 97.0379 19.6611C86.9644 7.65603 71.8046 0 54.8796 0C54.8481 0 54.8233 0.00223599 54.7963 0.00223599C54.7783 0.00223599 54.7648 0 54.7468 0C54.686 0 54.623 0.00670797 54.5577 0.00670797C37.761 0.102856 22.734 7.73652 12.7191 19.6611C11.7959 20.7634 10.9201 21.9037 10.0848 23.0754C3.74435 31.9635 0 42.8013 0 54.5C0 66.1965 3.7421 77.0388 10.0848 85.9246C10.9201 87.0963 11.7959 88.2388 12.7191 89.3389C22.7318 101.263 37.7587 108.897 54.5577 108.993C54.623 108.993 54.686 109 54.7468 109C54.7648 109 54.7783 108.998 54.7941 108.998C54.8211 108.998 54.8459 109 54.8774 109C71.8046 109 86.9622 101.346 97.0379 89.3412C97.9611 88.2411 98.8369 87.0963 99.6723 85.9246C106.013 77.0365 109.757 66.1987 109.757 54.4978C109.757 42.8035 106.013 31.9635 99.6723 23.0754ZM38.8372 7.08809C33.7937 11.9201 29.6013 18.9835 26.7126 27.4602C22.8421 26.0247 19.359 24.2963 16.3554 22.342C22.2432 15.397 29.9863 10.0485 38.8372 7.08809ZM13.712 25.7608C17.1254 28.0237 21.0701 30.0025 25.4314 31.6325C23.5491 38.4612 22.4684 46.0413 22.4278 54.0394H4.51214C4.60895 43.5191 8.02007 33.7836 13.712 25.7608ZM4.681 58.5114H22.5156C22.8061 65.2059 23.8306 71.5584 25.4269 77.3697C21.0634 78.9997 17.1209 80.9786 13.712 83.2436C8.66627 76.131 5.41276 67.6744 4.681 58.5114ZM16.3689 86.649C19.3725 84.6993 22.8466 82.9753 26.7081 81.5398C29.5968 90.0187 33.7915 97.0777 38.8372 101.91C29.9863 98.9515 22.259 93.5918 16.3689 86.649ZM52.6281 104.367C43.3876 103.11 35.4126 93.6991 30.8915 80.1446C37.4097 78.2037 44.7881 77.0276 52.6281 76.8375V104.367ZM52.6281 72.37C44.3603 72.5668 36.5677 73.8346 29.6283 75.9498C28.2076 70.5924 27.298 64.714 27.0255 58.5136H52.6281V72.37ZM52.6281 54.0394H26.931C26.9715 46.5287 27.9554 39.4339 29.6486 33.0569C36.5789 35.1654 44.3671 36.4354 52.6258 36.63V54.0394H52.6281ZM52.6281 32.1625C44.7926 31.9724 37.4165 30.8007 30.905 28.8599C35.4239 15.3121 43.3922 5.89183 52.6281 4.63297V32.1625ZM105.24 54.0394H87.0657C87.0252 46.0748 85.958 38.5261 84.0892 31.722C88.5473 30.0763 92.5753 28.0661 96.045 25.7631C101.735 33.7858 105.144 43.5191 105.24 54.0394ZM93.3971 22.3465C90.3328 24.3387 86.7708 26.094 82.808 27.5452C79.8923 18.9522 75.6391 11.8038 70.5167 6.95393C79.532 9.88531 87.417 15.2942 93.3971 22.3465ZM57.1312 4.66651C66.2703 6.06847 74.1418 15.4708 78.6134 28.927C72.1626 30.8253 64.8698 31.9746 57.1312 32.1625V4.66651ZM57.1312 36.6322C65.2931 36.4399 72.9935 35.1967 79.863 33.1329C81.5472 39.492 82.5243 46.56 82.5626 54.0416H57.1312V36.6322ZM57.1312 58.5114H82.4703C82.1979 64.6827 81.2927 70.5343 79.8855 75.876C73.007 73.8055 65.2976 72.5646 57.1357 72.37L57.1312 58.5114ZM57.1312 104.333V76.8398C64.8743 77.0276 72.1671 78.1769 78.6269 80.0752C74.1485 93.5359 66.268 102.932 57.1312 104.333ZM70.5167 102.048C75.6391 97.2007 79.9013 90.0567 82.817 81.4616C86.7708 82.9105 90.3283 84.6635 93.3881 86.6513C87.408 93.7014 79.532 99.1147 70.5167 102.048ZM96.045 83.2436C92.5753 80.9406 88.5473 78.9259 84.0869 77.2825C85.6675 71.4958 86.683 65.1724 86.9689 58.5136H105.074C104.342 67.6744 101.098 76.1332 96.045 83.2436Z" fill="#575757"/>
<path d="M150.16 74.0735C149.597 74.7827 148.52 74.7827 147.957 74.0735L130.901 52.5878C130.169 51.6662 130.825 50.3071 132.002 50.3071L166.115 50.3071C167.292 50.3071 167.948 51.6662 167.216 52.5878L150.16 74.0735Z" fill="#575757"/>
</svg>
