<svg width="303" height="303" viewBox="0 0 303 303" fill="none" xmlns="http://www.w3.org/2000/svg">
<path d="M297.991 297.655C294.429 301.218 289.976 302.555 285.523 302.555C281.071 302.555 276.618 300.773 273.056 297.655L151.5 176.054L29.9438 297.655C26.3817 301.218 21.9291 303 17.4765 303C13.0239 303 8.57127 301.218 5.00918 298.1C-1.66973 291.419 -1.66973 280.283 5.00918 273.602L127.011 151.556L5.00918 29.9548C-1.66973 23.2734 -1.66973 12.1378 5.00918 5.45645C11.6881 -1.22492 22.8196 -1.22492 29.4985 5.45645L151.5 127.057L273.056 5.01103C279.735 -1.67034 290.867 -1.67034 297.546 5.01103C304.224 11.6924 304.224 22.828 297.546 29.5094L175.989 151.556L297.991 273.157C304.67 279.838 304.67 290.974 297.991 297.655Z" fill="#1B2545"/>
</svg>
