<svg width="21" height="23" viewBox="0 0 21 23" fill="none" xmlns="http://www.w3.org/2000/svg">
<path d="M10.1098 17.4987L10.1095 17.4987C9.97904 17.5079 9.8508 17.46 9.75818 17.3674C9.66558 17.2747 9.61759 17.1467 9.62705 17.0158M10.1098 17.4987L9.72679 17.023M10.1098 17.4987C10.238 17.4895 10.3559 17.4262 10.4346 17.3252L15.6373 12.1225L15.6381 12.1217C15.8101 11.9459 15.8101 11.6648 15.6381 11.489L15.6373 11.4882L10.43 6.28089L10.4249 6.27585L10.4192 6.27158C10.2393 6.13671 9.98751 6.15464 9.82862 6.31353C9.66952 6.47263 9.65149 6.72422 9.78674 6.90424L9.78598 6.90481L9.79571 6.91462L14.2004 11.3534H1.35171C1.1023 11.3534 0.9 11.5557 0.9 11.8053C0.9 12.0549 1.10229 12.2573 1.35171 12.2573H14.2004L9.80057 16.6912M10.1098 17.4987L9.86669 16.7665M9.62705 17.0158L9.72679 17.023M9.62705 17.0158C9.62704 17.0159 9.62704 17.0159 9.62703 17.016L9.72679 17.023M9.62705 17.0158C9.63608 16.8876 9.69928 16.7697 9.80057 16.6912M9.72679 17.023C9.73391 16.9211 9.78496 16.8276 9.86669 16.7665M9.80057 16.6912L9.79571 16.6961L9.86669 16.7665M9.80057 16.6912C9.80264 16.6896 9.80471 16.688 9.80681 16.6864L9.86669 16.7665" fill="#A9A9A9" stroke="#A9A9A9" stroke-width="0.2"/>
<path d="M7.53634 2.0129L7.60701 2.08365C7.78633 1.90455 8.02943 1.8039 8.2827 1.8039H18.2401C18.4936 1.8039 18.7367 1.90456 18.9157 2.08361C19.0951 2.26292 19.1957 2.50599 19.1957 2.75926V20.8444C19.1957 21.0977 19.0951 21.3407 18.9157 21.5201C18.7367 21.6991 18.4936 21.7998 18.2401 21.7998H8.2827C8.02943 21.7998 7.78634 21.6991 7.60701 21.52C7.42796 21.3407 7.32734 21.0976 7.32734 20.8444V17.7831C7.32734 17.5334 7.12491 17.3314 6.87539 17.3314C6.62586 17.3314 6.42344 17.5334 6.42344 17.7831V20.8444C6.42344 21.3375 6.61954 21.8104 6.96813 22.159C7.31672 22.5076 7.78957 22.7037 8.2827 22.7037H18.2401C18.7332 22.7037 19.206 22.5076 19.5549 22.159L19.5549 22.159C19.9035 21.8103 20.0993 21.3375 20.0993 20.8444V2.75926C20.0993 2.26618 19.9035 1.79331 19.5549 1.44469L19.5549 1.44467C19.206 1.0961 18.7332 0.9 18.2401 0.9H8.2827C7.78958 0.9 7.31673 1.0961 6.96813 1.44469C6.61954 1.79329 6.42344 2.26613 6.42344 2.75926V5.46858C6.42344 5.71819 6.62577 5.92053 6.87539 5.92053C7.125 5.92053 7.32734 5.71819 7.32734 5.46858V2.75926C7.32734 2.50599 7.42798 2.2629 7.60709 2.08356L7.53634 2.0129ZM7.53634 2.0129C7.7344 1.81508 8.00291 1.7039 8.2827 1.7039H18.2401C18.5201 1.7039 18.7886 1.81508 18.9864 2.0129C19.1845 2.21096 19.2957 2.47946 19.2957 2.75926V20.8444C19.2957 21.1242 19.1845 21.3927 18.9864 21.5908C18.7886 21.7886 18.5201 21.8998 18.2401 21.8998H8.2827C8.00291 21.8998 7.73441 21.7886 7.53634 21.5908L19.4842 1.5154C19.1541 1.18554 18.7067 1 18.2401 1H8.2827C7.81613 1 7.3687 1.18554 7.03884 1.5154C6.70898 1.84526 6.52344 2.29268 6.52344 2.75926V5.46858C6.52344 5.66296 6.681 5.82053 6.87539 5.82053C7.06977 5.82053 7.22734 5.66296 7.22734 5.46858V2.75926C7.22734 2.47947 7.33852 2.21096 7.53634 2.0129Z" fill="#A9A9A9" stroke="#A9A9A9" stroke-width="0.2"/>
</svg>
